<?xml version="1.0" encoding="utf-8"?>
<!-- Generator: Adobe Illustrator 21.0.2, SVG Export Plug-In . SVG Version: 6.00 Build 0)  -->
<svg version="1.1" id="Layer_1" xmlns="http://www.w3.org/2000/svg" xmlns:xlink="http://www.w3.org/1999/xlink" x="0px" y="0px"
	 viewBox="0 0 251.5 33.2" style="enable-background:new 0 0 251.5 33.2;" xml:space="preserve">
<style type="text/css">
	.st0{fill:#FFCD3E;}
</style>
<g>
	<path class="st0" d="M1,0.5h4.6v26.9h14.8V32H1V0.5z"/>
	<path class="st0" d="M30.8,0.5h4.6V32h-4.6V0.5z"/>
	<path class="st0" d="M47.4,0.5h4.3l13.8,22.3h0.1V0.5h4.6V32h-4.4L52.1,9.6H52V32h-4.6V0.5z"/>
	<path class="st0" d="M99.5,18.2H87.4V32h-4.6V0.5h4.6V14h12.1V0.5h4.6V32h-4.6V18.2z"/>
	<path class="st0" d="M149.4,29.5c-1.8,1.8-4.2,2.7-7.2,2.7c-2.4-0.1-4.4-0.7-6-1.8c-1.6-1.1-2.8-2.4-3.5-3.8
		c-0.2-0.5-0.4-0.9-0.6-1.4c-0.2-0.4-0.3-1-0.4-1.7c-0.2-1.3-0.3-3.7-0.3-7.3c0-3.6,0.1-6.1,0.3-7.3c0.2-1.2,0.6-2.2,1-3
		c0.7-1.5,1.9-2.7,3.5-3.9c1.6-1.1,3.6-1.7,6-1.8c2.4,0,4.4,0.6,6.1,1.8c1.6,1.1,2.8,2.4,3.5,3.9c0.5,0.8,0.9,1.8,1.1,3
		c0.2,1.2,0.3,3.7,0.3,7.3c0,3.3-0.1,5.5-0.2,6.8c-0.2,1.3-0.5,2.3-0.9,3l4,3.3l-2.7,3.3L149.4,29.5z M141.7,23.2l2.7-3.3l3.6,2.9
		c0.3-1.1,0.4-3.3,0.4-6.6c0-3.1-0.1-5.2-0.3-6.3c-0.2-1.1-0.6-1.9-1.2-2.6c-0.5-0.6-1.1-1.2-1.8-1.6c-0.8-0.4-1.8-0.6-2.9-0.7
		c-1.1,0-2,0.3-2.8,0.7c-0.8,0.4-1.4,1-1.9,1.6c-0.6,0.7-1,1.5-1.2,2.6c-0.2,1.1-0.3,3.2-0.3,6.3c0,3.1,0.1,5.2,0.3,6.3
		c0.2,1.1,0.6,2,1.2,2.7c0.5,0.6,1.1,1.2,1.9,1.6c0.8,0.5,1.7,0.7,2.8,0.7c1.4,0,2.6-0.4,3.4-1.1L141.7,23.2z"/>
	<path class="st0" d="M163.7,0.5h4.6v20.3c0,2.1,0.6,3.8,1.8,4.9c1.1,1.2,2.6,1.8,4.4,1.8c1.8,0,3.3-0.6,4.5-1.8
		c1.1-1.1,1.7-2.8,1.8-4.9V0.5h4.6v20.8c-0.1,3.3-1.1,5.9-3.1,7.9c-2,2-4.6,3-7.7,3c-3,0-5.6-1-7.6-3c-2.1-1.9-3.1-4.6-3.2-7.9V0.5z
		"/>
	<path class="st0" d="M211.8,24.9h-11.5l-2.3,7H193l11.1-31.4h3.9L219,32h-4.9L211.8,24.9z M210.5,20.7L206.1,7H206l-4.4,13.7H210.5
		z"/>
	<path class="st0" d="M228.3,0.5h4.3l13.8,22.3h0.1V0.5h4.6V32h-4.4L233,9.6h-0.1V32h-4.6V0.5z"/>
</g>
</svg>
