<?xml version="1.0" encoding="utf-8"?>
<!-- Generator: Adobe Illustrator 20.1.0, SVG Export Plug-In . SVG Version: 6.00 Build 0)  -->
<svg version="1.1" id="Layer_1" xmlns="http://www.w3.org/2000/svg" xmlns:xlink="http://www.w3.org/1999/xlink" x="0px" y="0px"
	 viewBox="0 0 250 250" style="enable-background:new 0 0 250 250;" xml:space="preserve">
<style type="text/css">
	.st0{opacity:0.52;fill:#7876B7;enable-background:new    ;}
	.st1{fill:#FFFFFF;}
</style>
<circle class="st0" cx="125" cy="125" r="125"/>
<path class="st1" d="M211.9,231.5c-4.5-9.1-20.8-38.3-26.7-47.4c5.9-12.7,9.5-27.1,12.5-39.9c5.8-24.7,2.2-52.1-10.2-74.4
	c-11.5-20.7-36.7-35.1-60.3-27.7c-24.9,7.7-41.2,31.3-51.3,54c-5.3,12-10.5,24.3-15,36.7c0.2-26.7,0.2-85.5-0.2-112.3
	c-0.2-11.2-17.5-11.2-17.3,0c0.9,55.1-0.6,162.8,0.2,217.8c0.2,11.2,17.3,11.2,17.3,0c0.1-23.9,5.3-67.5,12.9-90.1
	c6.6-19.8,14-40.7,24.6-58.7c9-15.4,25.9-34.8,45.9-31.9c21.2,3,31.6,23.8,36.2,42.4c4.9,19.6,1.6,37.8-4.2,56.7
	c-1.2,3.7-2.3,7.4-3.6,11.1c-4.5-4.8-9.5-9.1-14.9-12.6c-16.6-10.5-41.4-10.2-56.3,3.4c-16.9,15.4-12,41.3,4.8,54.6
	c20.4,16.2,49.7,8.4,66.3-9.5c1-1,1.9-2.1,2.7-3.2c3.9,6.7,18.6,33.1,21.8,39.6C201.8,250.2,216.8,241.4,211.9,231.5z M147.9,200.9
	c-8,4.1-17.8,5.8-26.3,1.9c-8-3.6-15-13-13.6-22.1c2.8-18.2,28.9-18.1,40.9-10.4c6,3.9,11.2,9,15.7,14.7
	C160.6,191.5,155.3,197.1,147.9,200.9z"/>
</svg>
