<?xml version="1.0" encoding="utf-8"?>
<!-- Generator: Adobe Illustrator 22.1.0, SVG Export Plug-In . SVG Version: 6.00 Build 0)  -->
<svg version="1.1" id="Layer_1" xmlns="http://www.w3.org/2000/svg" xmlns:xlink="http://www.w3.org/1999/xlink" x="0px" y="0px"
	 viewBox="0 0 612 792" style="enable-background:new 0 0 612 792;" xml:space="preserve">
<style type="text/css">
	.st0{fill:#8469A8;}
	.st1{font-family:'Roboto-Regular';}
	.st2{font-size:30px;}
	.st3{fill:#737474;}
	.st4{font-size:11px;}
	.st5{clip-path:url(#SVGID_2_);}
	.st6{clip-path:url(#SVGID_4_);}
	.st7{clip-path:url(#SVGID_2_);fill:none;stroke:#8469A8;stroke-width:0.5;stroke-miterlimit:10;}
	.st8{clip-path:url(#SVGID_6_);}
	.st9{clip-path:url(#SVGID_8_);}
	.st10{clip-path:url(#SVGID_6_);fill:none;}
	.st11{clip-path:url(#SVGID_10_);}
	.st12{fill:none;stroke:#8369A6;stroke-miterlimit:10;}
</style>
<text transform="matrix(1 0 0 1 155.48 67.4355)" class="st0 st1 st2">Compa</text>
<text transform="matrix(1 0 0 1 251.58 67.4355)" class="st0 st1 st2">r</text>
<text transform="matrix(1 0 0 1 261.18 67.4355)" class="st0 st1 st2">ative Resea</text>
<text transform="matrix(1 0 0 1 414.48 67.4355)" class="st0 st1 st2">r</text>
<text transform="matrix(1 0 0 1 424.28 67.4355)" class="st0 st1 st2">ch</text>
<text transform="matrix(1 0 0 1 245 109.9263)" class="st3 st1 st4">The “Companio</text>
<text transform="matrix(1 0 0 1 320.3 109.9263)" class="st3 st1 st4">n</text>
<text transform="matrix(1 0 0 1 325.8 109.9263)" class="st3 st1 st4">” app is a safety app for people t</text>
<text transform="matrix(1 0 0 1 482.9 109.9263)" class="st3 st1 st4">r</text>
<text transform="matrix(1 0 0 1 486.4 109.9263)" class="st3 st1 st4">a</text>
<text transform="matrix(1 0 0 1 492.3 109.9263)" class="st3 st1 st4">veling alone. </text>
<text transform="matrix(1 0 0 1 245 123.1265)" class="st3 st1 st4">The premise is that it is an app that allows your friends and l</text>
<text transform="matrix(1 0 0 1 537.9 123.1265)" class="st3 st1 st4">o</text>
<text transform="matrix(1 0 0 1 543.9 123.1265)" class="st3 st1 st4">ved </text>
<text transform="matrix(1 0 0 1 245 136.3262)" class="st3 st1 st4">ones </text>
<text transform="matrix(1 0 0 1 271.6 136.3262)" class="st3 st1 st4">t</text>
<text transform="matrix(1 0 0 1 275 136.3262)" class="st3 st1 st4">o know where you are at anytime. Before you le</text>
<text transform="matrix(1 0 0 1 504.6 136.3262)" class="st3 st1 st4">a</text>
<text transform="matrix(1 0 0 1 510.5 136.3262)" class="st3 st1 st4">ve for your </text>
<path class="st3" d="M246.8,143.7v6.5c0,1.1-0.5,1.7-1.5,1.7c-0.2,0-0.4,0-0.6-0.1V151c0.1,0,0.3,0,0.5,0s0.4-0.1,0.5-0.2
	c0.1-0.1,0.2-0.3,0.2-0.6v-6.5H246.8z M245.7,142.2c0-0.2,0-0.3,0.1-0.4c0.1-0.1,0.2-0.2,0.4-0.2s0.3,0.1,0.4,0.2
	c0.1,0.1,0.2,0.2,0.2,0.4s-0.1,0.3-0.2,0.4c-0.1,0.1-0.2,0.2-0.4,0.2s-0.3-0.1-0.4-0.2S245.7,142.3,245.7,142.2z M248.1,146.6
	c0-0.6,0.1-1.1,0.3-1.5c0.2-0.5,0.5-0.8,0.9-1.1c0.4-0.2,0.9-0.4,1.4-0.4c0.8,0,1.4,0.3,1.9,0.8s0.7,1.3,0.7,2.2v0.1
	c0,0.6-0.1,1.1-0.3,1.5s-0.5,0.8-0.9,1.1s-0.9,0.4-1.4,0.4c-0.8,0-1.4-0.3-1.9-0.8S248.1,147.5,248.1,146.6L248.1,146.6z
	 M249.1,146.7c0,0.6,0.1,1.2,0.4,1.6c0.3,0.4,0.7,0.6,1.2,0.6s0.9-0.2,1.2-0.6c0.3-0.4,0.4-0.9,0.4-1.7c0-0.6-0.2-1.2-0.5-1.5
	c-0.3-0.4-0.7-0.6-1.2-0.6s-0.9,0.2-1.2,0.6C249.3,145.4,249.1,146,249.1,146.7z M258.2,149c-0.4,0.5-1,0.7-1.7,0.7
	c-0.6,0-1.1-0.2-1.4-0.5c-0.3-0.4-0.5-0.9-0.5-1.6v-3.8h1v3.8c0,0.9,0.4,1.3,1.1,1.3c0.8,0,1.3-0.3,1.5-0.8v-4.2h1v5.8h-0.9
	L258.2,149z M263.5,144.6c-0.2,0-0.3,0-0.5,0c-0.7,0-1.1,0.3-1.3,0.8v4.1h-1v-5.8h1v0.7c0.3-0.5,0.8-0.8,1.4-0.8
	c0.2,0,0.3,0,0.4,0.1V144.6z M265.4,143.7v0.7c0.4-0.6,1-0.8,1.7-0.8c1.2,0,1.8,0.7,1.9,2.1v3.8h-1v-3.8c0-0.4-0.1-0.7-0.3-0.9
	c-0.2-0.2-0.5-0.3-0.9-0.3c-0.3,0-0.6,0.1-0.8,0.3c-0.2,0.2-0.4,0.4-0.6,0.7v4.1h-1v-5.8h1V143.7z M275.1,148.5
	c-0.5,0.7-1.2,1.1-2.2,1.1c-0.8,0-1.4-0.3-1.9-0.8s-0.7-1.2-0.7-2.1v-0.2c0-0.6,0.1-1.1,0.3-1.5c0.2-0.5,0.5-0.8,0.9-1.1
	s0.8-0.4,1.3-0.4c0.8,0,1.3,0.2,1.8,0.7c0.4,0.5,0.6,1.2,0.6,2.1v0.4h-3.9c0,0.6,0.2,1,0.5,1.4s0.7,0.5,1.2,0.5
	c0.4,0,0.6-0.1,0.9-0.2c0.2-0.1,0.5-0.3,0.6-0.6L275.1,148.5L275.1,148.5z M272.8,144.4c-0.4,0-0.7,0.1-1,0.4
	c-0.3,0.3-0.4,0.7-0.5,1.2h2.9v0c0-0.5-0.2-0.9-0.4-1.2C273.5,144.6,273.2,144.4,272.8,144.4z M278.2,148.1l1.4-4.4h1.1l-2.3,6.7
	c-0.4,1-0.9,1.5-1.7,1.5h-0.2l-0.4-0.1V151h0.3c0.3,0,0.6-0.1,0.8-0.2c0.2-0.1,0.3-0.4,0.5-0.7l0.2-0.6l-2.1-5.7h1.1L278.2,148.1z
	 M281.5,151.1l-0.6-0.4c0.3-0.5,0.5-1,0.5-1.5v-0.9h1v0.8c0,0.4-0.1,0.7-0.3,1.1C282,150.6,281.8,150.9,281.5,151.1z M288.3,148.1
	l1.4-4.4h1.1l-2.3,6.7c-0.4,1-0.9,1.5-1.7,1.5h-0.2l-0.4-0.1V151h0.3c0.3,0,0.6-0.1,0.8-0.2c0.2-0.1,0.3-0.4,0.5-0.7l0.2-0.6
	l-2.1-5.7h1.1L288.3,148.1z M291.4,146.6c0-0.6,0.1-1.1,0.3-1.5c0.2-0.5,0.5-0.8,0.9-1.1c0.4-0.2,0.9-0.4,1.4-0.4
	c0.8,0,1.4,0.3,1.9,0.8s0.7,1.3,0.7,2.2v0.1c0,0.6-0.1,1.1-0.3,1.5c-0.2,0.4-0.5,0.8-0.9,1.1s-0.9,0.4-1.4,0.4
	c-0.8,0-1.4-0.3-1.9-0.8S291.4,147.5,291.4,146.6L291.4,146.6z M292.4,146.7c0,0.6,0.1,1.2,0.4,1.6c0.3,0.4,0.7,0.6,1.2,0.6
	s0.9-0.2,1.2-0.6c0.3-0.4,0.4-0.9,0.4-1.7c0-0.6-0.2-1.2-0.5-1.5c-0.3-0.4-0.7-0.6-1.2-0.6s-0.9,0.2-1.2,0.6
	C292.5,145.4,292.4,146,292.4,146.7z M301.5,149c-0.4,0.5-1,0.7-1.7,0.7c-0.6,0-1.1-0.2-1.4-0.5c-0.3-0.4-0.5-0.9-0.5-1.6v-3.8h1
	v3.8c0,0.9,0.4,1.3,1.1,1.3c0.8,0,1.3-0.3,1.5-0.8v-4.2h1v5.8h-0.9L301.5,149z M307,149.5v-5h-0.9v-0.8h0.9v-0.5
	c0-0.6,0.2-1.2,0.6-1.5c0.4-0.4,0.9-0.5,1.6-0.5c0.4,0,0.9,0.1,1.5,0.3l-0.2,0.8c-0.4-0.2-0.9-0.3-1.3-0.3s-0.7,0.1-0.9,0.3
	c-0.2,0.2-0.3,0.5-0.3,0.9v0.5h1.2v0.8H308v5H307z M311.2,149.5h-1v-5.8h1V149.5z M315.6,144.6c-0.2,0-0.3,0-0.5,0
	c-0.7,0-1.1,0.3-1.3,0.8v4.1h-1v-5.8h1v0.7c0.3-0.5,0.8-0.8,1.4-0.8c0.2,0,0.3,0,0.4,0.1V144.6z M319.9,148c0-0.3-0.1-0.5-0.3-0.6
	c-0.2-0.1-0.6-0.3-1.1-0.4c-0.5-0.1-0.9-0.2-1.2-0.4s-0.5-0.3-0.7-0.5c-0.1-0.2-0.2-0.5-0.2-0.7c0-0.5,0.2-0.9,0.6-1.2
	s0.9-0.5,1.5-0.5c0.7,0,1.2,0.2,1.6,0.5s0.6,0.8,0.6,1.3h-1c0-0.3-0.1-0.5-0.3-0.7c-0.2-0.2-0.5-0.3-0.9-0.3s-0.6,0.1-0.8,0.2
	c-0.2,0.2-0.3,0.4-0.3,0.6c0,0.2,0.1,0.4,0.3,0.5c0.2,0.1,0.5,0.2,1,0.3s0.9,0.2,1.2,0.4c0.3,0.2,0.5,0.3,0.7,0.6
	c0.1,0.2,0.2,0.5,0.2,0.8c0,0.5-0.2,0.9-0.6,1.2s-1,0.5-1.6,0.5c-0.5,0-0.9-0.1-1.2-0.2c-0.4-0.2-0.6-0.4-0.8-0.7
	c-0.2-0.3-0.3-0.6-0.3-1h1c0,0.3,0.2,0.6,0.4,0.8c0.2,0.2,0.6,0.3,1,0.3s0.7-0.1,0.9-0.2C319.8,148.4,319.9,148.2,319.9,148z
	 M323.5,142.3v1.4h1.1v0.8h-1.1v3.6c0,0.2,0,0.4,0.1,0.5s0.3,0.2,0.5,0.2c0.1,0,0.3,0,0.5-0.1v0.8c-0.3,0.1-0.5,0.1-0.8,0.1
	c-0.4,0-0.8-0.1-1-0.4s-0.3-0.6-0.3-1.1v-3.6h-1.1v-0.8h1.1v-1.4H323.5z M333.1,148.5c-0.5,0.7-1.2,1.1-2.2,1.1
	c-0.8,0-1.4-0.3-1.9-0.8s-0.7-1.2-0.7-2.1v-0.2c0-0.6,0.1-1.1,0.3-1.5c0.2-0.5,0.5-0.8,0.9-1.1s0.8-0.4,1.3-0.4
	c0.8,0,1.3,0.2,1.8,0.7c0.4,0.5,0.6,1.2,0.6,2.1v0.4h-3.9c0,0.6,0.2,1,0.5,1.4s0.7,0.5,1.2,0.5c0.4,0,0.6-0.1,0.9-0.2
	c0.2-0.1,0.5-0.3,0.6-0.6L333.1,148.5L333.1,148.5z M330.8,144.4c-0.4,0-0.7,0.1-1,0.4c-0.3,0.3-0.4,0.7-0.5,1.2h2.9v0
	c0-0.5-0.2-0.9-0.4-1.2C331.5,144.6,331.2,144.4,330.8,144.4z M337.7,148c0-0.3-0.1-0.5-0.3-0.6c-0.2-0.1-0.6-0.3-1.1-0.4
	c-0.5-0.1-0.9-0.2-1.2-0.4s-0.5-0.3-0.7-0.5c-0.1-0.2-0.2-0.5-0.2-0.7c0-0.5,0.2-0.9,0.6-1.2s0.9-0.5,1.5-0.5c0.7,0,1.2,0.2,1.6,0.5
	s0.6,0.8,0.6,1.3h-1c0-0.3-0.1-0.5-0.3-0.7c-0.2-0.2-0.5-0.3-0.9-0.3s-0.6,0.1-0.8,0.2c-0.2,0.2-0.3,0.4-0.3,0.6
	c0,0.2,0.1,0.4,0.3,0.5c0.2,0.1,0.5,0.2,1,0.3s0.9,0.2,1.2,0.4c0.3,0.2,0.5,0.3,0.7,0.6c0.1,0.2,0.2,0.5,0.2,0.8
	c0,0.5-0.2,0.9-0.6,1.2s-1,0.5-1.6,0.5c-0.5,0-0.9-0.1-1.2-0.2c-0.4-0.2-0.6-0.4-0.8-0.7c-0.2-0.3-0.3-0.6-0.3-1h1
	c0,0.3,0.2,0.6,0.4,0.8c0.2,0.2,0.6,0.3,1,0.3s0.7-0.1,0.9-0.2C337.6,148.4,337.7,148.2,337.7,148z M341.3,142.3v1.4h1.1v0.8h-1.1
	v3.6c0,0.2,0,0.4,0.1,0.5s0.3,0.2,0.5,0.2c0.1,0,0.3,0,0.5-0.1v0.8c-0.3,0.1-0.5,0.1-0.8,0.1c-0.4,0-0.8-0.1-1-0.4s-0.3-0.6-0.3-1.1
	v-3.6h-1.1v-0.8h1.1v-1.4H341.3z M347.2,149.5c-0.1-0.1-0.1-0.3-0.1-0.6c-0.5,0.5-1,0.7-1.7,0.7c-0.6,0-1-0.2-1.4-0.5
	s-0.6-0.7-0.6-1.2c0-0.6,0.2-1.1,0.7-1.4c0.5-0.3,1.1-0.5,1.9-0.5h1v-0.5c0-0.3-0.1-0.6-0.3-0.8c-0.2-0.2-0.5-0.3-0.9-0.3
	s-0.7,0.1-0.9,0.3c-0.2,0.2-0.4,0.4-0.4,0.6h-1c0-0.3,0.1-0.6,0.3-0.8c0.2-0.3,0.5-0.5,0.8-0.6c0.4-0.2,0.7-0.2,1.2-0.2
	c0.7,0,1.2,0.2,1.6,0.5s0.6,0.8,0.6,1.4v2.7c0,0.5,0.1,1,0.2,1.3v0.1h-1V149.5z M345.5,148.8c0.3,0,0.6-0.1,0.9-0.2s0.5-0.4,0.6-0.6
	v-1.2h-0.8c-1.2,0-1.8,0.4-1.8,1.1c0,0.3,0.1,0.6,0.3,0.7S345.2,148.8,345.5,148.8z M354.5,146.7c0,0.9-0.2,1.6-0.6,2.1
	s-1,0.8-1.6,0.8c-0.7,0-1.3-0.3-1.7-0.8v0.7h-0.9v-8.2h1v3.1c0.4-0.5,1-0.7,1.7-0.7s1.3,0.3,1.7,0.8
	C354.3,144.9,354.5,145.7,354.5,146.7L354.5,146.7z M353.5,146.6c0-0.7-0.1-1.2-0.4-1.6c-0.3-0.4-0.6-0.6-1.1-0.6
	c-0.7,0-1.1,0.3-1.4,0.9v2.5c0.3,0.6,0.8,0.9,1.4,0.9c0.5,0,0.8-0.2,1.1-0.6C353.4,147.9,353.5,147.3,353.5,146.6z M356.8,149.5h-1
	v-8.2h1V149.5z M358.4,142.2c0-0.2,0-0.3,0.1-0.4c0.1-0.1,0.2-0.2,0.4-0.2s0.3,0.1,0.4,0.2c0.1,0.1,0.2,0.2,0.2,0.4
	s-0.1,0.3-0.2,0.4c-0.1,0.1-0.2,0.2-0.4,0.2s-0.3-0.1-0.4-0.2C358.5,142.5,358.4,142.3,358.4,142.2z M359.5,149.5h-1v-5.8h1V149.5z
	 M364.5,148c0-0.3-0.1-0.5-0.3-0.6c-0.2-0.1-0.6-0.3-1.1-0.4c-0.5-0.1-0.9-0.2-1.2-0.4s-0.5-0.3-0.7-0.5c-0.1-0.2-0.2-0.5-0.2-0.7
	c0-0.5,0.2-0.9,0.6-1.2s0.9-0.5,1.5-0.5c0.7,0,1.2,0.2,1.6,0.5s0.6,0.8,0.6,1.3h-1c0-0.3-0.1-0.5-0.3-0.7c-0.2-0.2-0.5-0.3-0.9-0.3
	s-0.6,0.1-0.8,0.2c-0.2,0.2-0.3,0.4-0.3,0.6c0,0.2,0.1,0.4,0.3,0.5c0.2,0.1,0.5,0.2,1,0.3s0.9,0.2,1.2,0.4c0.3,0.2,0.5,0.3,0.7,0.6
	c0.1,0.2,0.2,0.5,0.2,0.8c0,0.5-0.2,0.9-0.6,1.2s-1,0.5-1.6,0.5c-0.5,0-0.9-0.1-1.2-0.2c-0.4-0.2-0.6-0.4-0.8-0.7
	c-0.2-0.3-0.3-0.6-0.3-1h1c0,0.3,0.2,0.6,0.4,0.8c0.2,0.2,0.6,0.3,1,0.3s0.7-0.1,0.9-0.2C364.4,148.4,364.5,148.2,364.5,148z
	 M367.8,144.4c0.4-0.5,1-0.8,1.7-0.8c1.2,0,1.8,0.7,1.9,2.1v3.8h-1v-3.8c0-0.4-0.1-0.7-0.3-0.9c-0.2-0.2-0.5-0.3-0.9-0.3
	c-0.3,0-0.6,0.1-0.8,0.3c-0.2,0.2-0.4,0.4-0.6,0.7v4.1h-1v-8.2h1L367.8,144.4L367.8,144.4z M380.7,148.2l1.1-4.4h1l-1.7,5.8h-0.8
	l-1.4-4.4l-1.4,4.4h-0.8l-1.7-5.8h1l1.1,4.4l1.4-4.4h0.8L380.7,148.2z M384.8,144.4c0.4-0.5,1-0.8,1.7-0.8c1.2,0,1.8,0.7,1.9,2.1
	v3.8h-1v-3.8c0-0.4-0.1-0.7-0.3-0.9c-0.2-0.2-0.5-0.3-0.9-0.3c-0.3,0-0.6,0.1-0.8,0.3c-0.2,0.2-0.4,0.4-0.6,0.7v4.1h-1v-8.2h1
	L384.8,144.4L384.8,144.4z M394.5,148.5c-0.5,0.7-1.2,1.1-2.2,1.1c-0.8,0-1.4-0.3-1.9-0.8s-0.7-1.2-0.7-2.1v-0.2
	c0-0.6,0.1-1.1,0.3-1.5c0.2-0.5,0.5-0.8,0.9-1.1s0.8-0.4,1.3-0.4c0.8,0,1.3,0.2,1.8,0.7c0.4,0.5,0.6,1.2,0.6,2.1v0.4h-3.9
	c0,0.6,0.2,1,0.5,1.4s0.7,0.5,1.2,0.5c0.4,0,0.6-0.1,0.9-0.2c0.2-0.1,0.5-0.3,0.6-0.6L394.5,148.5L394.5,148.5z M392.2,144.4
	c-0.4,0-0.7,0.1-1,0.4c-0.3,0.3-0.4,0.7-0.5,1.2h2.9v0c0-0.5-0.2-0.9-0.4-1.2C392.9,144.6,392.6,144.4,392.2,144.4z M398.5,144.6
	c-0.2,0-0.3,0-0.5,0c-0.7,0-1.1,0.3-1.3,0.8v4.1h-1v-5.8h1v0.7c0.3-0.5,0.8-0.8,1.4-0.8c0.2,0,0.3,0,0.4,0.1V144.6z M404,148.5
	c-0.5,0.7-1.2,1.1-2.2,1.1c-0.8,0-1.4-0.3-1.9-0.8s-0.7-1.2-0.7-2.1v-0.2c0-0.6,0.1-1.1,0.3-1.5c0.2-0.5,0.5-0.8,0.9-1.1
	s0.8-0.4,1.3-0.4c0.8,0,1.3,0.2,1.8,0.7c0.4,0.5,0.6,1.2,0.6,2.1v0.4h-3.9c0,0.6,0.2,1,0.5,1.4s0.7,0.5,1.2,0.5
	c0.4,0,0.6-0.1,0.9-0.2c0.2-0.1,0.5-0.3,0.6-0.6L404,148.5L404,148.5z M401.7,144.4c-0.4,0-0.7,0.1-1,0.4c-0.3,0.3-0.4,0.7-0.5,1.2
	h2.9v0c0-0.5-0.2-0.9-0.4-1.2C402.5,144.6,402.1,144.4,401.7,144.4z M409.9,148.1l1.4-4.4h1.1l-2.3,6.7c-0.4,1-0.9,1.5-1.7,1.5h-0.2
	l-0.4-0.1V151h0.3c0.3,0,0.6-0.1,0.8-0.2c0.2-0.1,0.3-0.4,0.5-0.7l0.2-0.6l-2.1-5.7h1.1L409.9,148.1z M412.9,146.6
	c0-0.6,0.1-1.1,0.3-1.5c0.2-0.5,0.5-0.8,0.9-1.1c0.4-0.2,0.9-0.4,1.4-0.4c0.8,0,1.4,0.3,1.9,0.8s0.7,1.3,0.7,2.2v0.1
	c0,0.6-0.1,1.1-0.3,1.5c-0.2,0.4-0.5,0.8-0.9,1.1s-0.9,0.4-1.4,0.4c-0.8,0-1.4-0.3-1.9-0.8S412.9,147.5,412.9,146.6L412.9,146.6z
	 M413.9,146.7c0,0.6,0.1,1.2,0.4,1.6c0.3,0.4,0.7,0.6,1.2,0.6s0.9-0.2,1.2-0.6c0.3-0.4,0.4-0.9,0.4-1.7c0-0.6-0.2-1.2-0.5-1.5
	c-0.3-0.4-0.7-0.6-1.2-0.6s-0.9,0.2-1.2,0.6C414.1,145.4,413.9,146,413.9,146.7z M423.1,149c-0.4,0.5-1,0.7-1.7,0.7
	c-0.6,0-1.1-0.2-1.4-0.5c-0.3-0.4-0.5-0.9-0.5-1.6v-3.8h1v3.8c0,0.9,0.4,1.3,1.1,1.3c0.8,0,1.3-0.3,1.5-0.8v-4.2h1v5.8h-0.9
	L423.1,149z M433.4,148.2l1.1-4.4h1l-1.7,5.8H433l-1.4-4.4l-1.4,4.4h-0.8l-1.7-5.8h1l1.1,4.4l1.4-4.4h0.8L433.4,148.2z M440.1,149.5
	c-0.1-0.1-0.1-0.3-0.1-0.6c-0.5,0.5-1,0.7-1.7,0.7c-0.6,0-1-0.2-1.4-0.5s-0.6-0.7-0.6-1.2c0-0.6,0.2-1.1,0.7-1.4
	c0.5-0.3,1.1-0.5,1.9-0.5h1v-0.5c0-0.3-0.1-0.6-0.3-0.8c-0.2-0.2-0.5-0.3-0.9-0.3s-0.7,0.1-0.9,0.3c-0.2,0.2-0.4,0.4-0.4,0.6h-1
	c0-0.3,0.1-0.6,0.3-0.8c0.2-0.3,0.5-0.5,0.8-0.6c0.4-0.2,0.7-0.2,1.2-0.2c0.7,0,1.2,0.2,1.6,0.5s0.6,0.8,0.6,1.4v2.7
	c0,0.5,0.1,1,0.2,1.3v0.1h-1V149.5z M438.5,148.8c0.3,0,0.6-0.1,0.9-0.2s0.5-0.4,0.6-0.6v-1.2h-0.8c-1.2,0-1.8,0.4-1.8,1.1
	c0,0.3,0.1,0.6,0.3,0.7S438.1,148.8,438.5,148.8z M443.4,143.7v0.7c0.4-0.6,1-0.8,1.7-0.8c1.2,0,1.8,0.7,1.9,2.1v3.8h-1v-3.8
	c0-0.4-0.1-0.7-0.3-0.9c-0.2-0.2-0.5-0.3-0.9-0.3c-0.3,0-0.6,0.1-0.8,0.3c-0.2,0.2-0.4,0.4-0.6,0.7v4.1h-1v-5.8h1V143.7z
	 M449.9,142.3v1.4h1.1v0.8h-1.1v3.6c0,0.2,0,0.4,0.1,0.5s0.3,0.2,0.5,0.2c0.1,0,0.3,0,0.5-0.1v0.8c-0.3,0.1-0.5,0.1-0.8,0.1
	c-0.4,0-0.8-0.1-1-0.4s-0.3-0.6-0.3-1.1v-3.6h-1.1v-0.8h1.1v-1.4H449.9z M456.2,142.3v1.4h1.1v0.8h-1.1v3.6c0,0.2,0,0.4,0.1,0.5
	s0.3,0.2,0.5,0.2c0.1,0,0.3,0,0.5-0.1v0.8c-0.3,0.1-0.5,0.1-0.8,0.1c-0.4,0-0.8-0.1-1-0.4s-0.3-0.6-0.3-1.1v-3.6h-1.1v-0.8h1.1v-1.4
	H456.2z M458.1,146.6c0-0.6,0.1-1.1,0.3-1.5c0.2-0.5,0.5-0.8,0.9-1.1c0.4-0.2,0.9-0.4,1.4-0.4c0.8,0,1.4,0.3,1.9,0.8
	s0.7,1.3,0.7,2.2v0.1c0,0.6-0.1,1.1-0.3,1.5c-0.2,0.4-0.5,0.8-0.9,1.1s-0.9,0.4-1.4,0.4c-0.8,0-1.4-0.3-1.9-0.8
	S458.1,147.5,458.1,146.6L458.1,146.6z M459.1,146.7c0,0.6,0.1,1.2,0.4,1.6c0.3,0.4,0.7,0.6,1.2,0.6s0.9-0.2,1.2-0.6
	c0.3-0.4,0.4-0.9,0.4-1.7c0-0.6-0.2-1.2-0.5-1.5c-0.3-0.4-0.7-0.6-1.2-0.6s-0.9,0.2-1.2,0.6C459.2,145.4,459.1,146,459.1,146.7z
	 M467.1,146.6c0-0.9,0.2-1.6,0.6-2.2c0.4-0.5,1-0.8,1.7-0.8s1.3,0.3,1.7,0.8v-0.6h0.9v5.7c0,0.8-0.2,1.3-0.7,1.8
	c-0.4,0.4-1,0.6-1.8,0.6c-0.4,0-0.8-0.1-1.2-0.3c-0.4-0.2-0.7-0.4-0.9-0.7l0.5-0.6c0.4,0.5,0.9,0.8,1.6,0.8c0.5,0,0.9-0.1,1.1-0.4
	c0.3-0.3,0.4-0.7,0.4-1.1v-0.5c-0.4,0.5-0.9,0.7-1.6,0.7s-1.2-0.3-1.7-0.8C467.3,148.3,467.1,147.5,467.1,146.6z M468.1,146.7
	c0,0.7,0.1,1.2,0.4,1.5c0.3,0.4,0.6,0.6,1.1,0.6c0.6,0,1.1-0.3,1.4-0.9v-2.7c-0.3-0.6-0.8-0.8-1.4-0.8c-0.5,0-0.9,0.2-1.1,0.6
	C468.2,145.4,468.1,145.9,468.1,146.7z M473.2,146.6c0-0.6,0.1-1.1,0.3-1.5c0.2-0.5,0.5-0.8,0.9-1.1c0.4-0.2,0.9-0.4,1.4-0.4
	c0.8,0,1.4,0.3,1.9,0.8s0.7,1.3,0.7,2.2v0.1c0,0.6-0.1,1.1-0.3,1.5c-0.2,0.4-0.5,0.8-0.9,1.1s-0.9,0.4-1.4,0.4
	c-0.8,0-1.4-0.3-1.9-0.8S473.2,147.5,473.2,146.6L473.2,146.6z M474.2,146.7c0,0.6,0.1,1.2,0.4,1.6c0.3,0.4,0.7,0.6,1.2,0.6
	s0.9-0.2,1.2-0.6c0.3-0.4,0.4-0.9,0.4-1.7c0-0.6-0.2-1.2-0.5-1.5c-0.3-0.4-0.7-0.6-1.2-0.6s-0.9,0.2-1.2,0.6
	C474.4,145.4,474.2,146,474.2,146.7z M486.1,149.5c-0.1-0.1-0.1-0.3-0.1-0.6c-0.5,0.5-1,0.7-1.7,0.7c-0.6,0-1-0.2-1.4-0.5
	s-0.6-0.7-0.6-1.2c0-0.6,0.2-1.1,0.7-1.4c0.5-0.3,1.1-0.5,1.9-0.5h1v-0.5c0-0.3-0.1-0.6-0.3-0.8c-0.2-0.2-0.5-0.3-0.9-0.3
	s-0.7,0.1-0.9,0.3c-0.2,0.2-0.4,0.4-0.4,0.6h-1c0-0.3,0.1-0.6,0.3-0.8c0.2-0.3,0.5-0.5,0.8-0.6c0.4-0.2,0.7-0.2,1.2-0.2
	c0.7,0,1.2,0.2,1.6,0.5s0.6,0.8,0.6,1.4v2.7c0,0.5,0.1,1,0.2,1.3v0.1h-1V149.5z M484.4,148.8c0.3,0,0.6-0.1,0.9-0.2s0.5-0.4,0.6-0.6
	v-1.2h-0.8c-1.2,0-1.8,0.4-1.8,1.1c0,0.3,0.1,0.6,0.3,0.7C483.9,148.7,484.1,148.8,484.4,148.8z M489.4,143.7v0.7
	c0.4-0.6,1-0.8,1.7-0.8c1.2,0,1.8,0.7,1.9,2.1v3.8h-1v-3.8c0-0.4-0.1-0.7-0.3-0.9c-0.2-0.2-0.5-0.3-0.9-0.3c-0.3,0-0.6,0.1-0.8,0.3
	c-0.2,0.2-0.4,0.4-0.6,0.7v4.1h-1v-5.8h1V143.7z M494.3,146.6c0-0.9,0.2-1.6,0.6-2.2c0.4-0.5,1-0.8,1.7-0.8s1.2,0.2,1.6,0.7v-3h1
	v8.2h-0.9v-0.6c-0.4,0.5-1,0.7-1.7,0.7s-1.2-0.3-1.6-0.8C494.5,148.3,494.3,147.5,494.3,146.6L494.3,146.6z M495.3,146.7
	c0,0.7,0.1,1.2,0.4,1.5c0.3,0.4,0.6,0.6,1.1,0.6c0.6,0,1.1-0.3,1.4-0.8v-2.7c-0.3-0.5-0.8-0.8-1.4-0.8c-0.5,0-0.9,0.2-1.1,0.6
	C495.5,145.4,495.3,145.9,495.3,146.7z M506.9,148c0-0.3-0.1-0.5-0.3-0.6c-0.2-0.1-0.6-0.3-1.1-0.4c-0.5-0.1-0.9-0.2-1.2-0.4
	s-0.5-0.3-0.7-0.5c-0.1-0.2-0.2-0.5-0.2-0.7c0-0.5,0.2-0.9,0.6-1.2s0.9-0.5,1.5-0.5c0.7,0,1.2,0.2,1.6,0.5s0.6,0.8,0.6,1.3h-1
	c0-0.3-0.1-0.5-0.3-0.7c-0.2-0.2-0.5-0.3-0.9-0.3s-0.6,0.1-0.8,0.2c-0.2,0.2-0.3,0.4-0.3,0.6c0,0.2,0.1,0.4,0.3,0.5
	c0.2,0.1,0.5,0.2,1,0.3s0.9,0.2,1.2,0.4c0.3,0.2,0.5,0.3,0.7,0.6c0.1,0.2,0.2,0.5,0.2,0.8c0,0.5-0.2,0.9-0.6,1.2s-1,0.5-1.6,0.5
	c-0.5,0-0.9-0.1-1.2-0.2c-0.4-0.2-0.6-0.4-0.8-0.7c-0.2-0.3-0.3-0.6-0.3-1h1c0,0.3,0.2,0.6,0.4,0.8c0.2,0.2,0.6,0.3,1,0.3
	s0.7-0.1,0.9-0.2C506.8,148.4,506.9,148.2,506.9,148z M513.8,148.5c-0.5,0.7-1.2,1.1-2.2,1.1c-0.8,0-1.4-0.3-1.9-0.8
	s-0.7-1.2-0.7-2.1v-0.2c0-0.6,0.1-1.1,0.3-1.5c0.2-0.5,0.5-0.8,0.9-1.1s0.8-0.4,1.3-0.4c0.8,0,1.3,0.2,1.8,0.7
	c0.4,0.5,0.6,1.2,0.6,2.1v0.4H510c0,0.6,0.2,1,0.5,1.4s0.7,0.5,1.2,0.5c0.4,0,0.6-0.1,0.9-0.2c0.2-0.1,0.5-0.3,0.6-0.6L513.8,148.5
	L513.8,148.5z M511.5,144.4c-0.4,0-0.7,0.1-1,0.4c-0.3,0.3-0.4,0.7-0.5,1.2h2.9v0c0-0.5-0.2-0.9-0.4-1.2
	C512.2,144.6,511.9,144.4,511.5,144.4z M516.1,149.5h-1v-8.2h1V149.5z M522.3,148.5c-0.5,0.7-1.2,1.1-2.2,1.1
	c-0.8,0-1.4-0.3-1.9-0.8s-0.7-1.2-0.7-2.1v-0.2c0-0.6,0.1-1.1,0.3-1.5c0.2-0.5,0.5-0.8,0.9-1.1s0.8-0.4,1.3-0.4
	c0.8,0,1.3,0.2,1.8,0.7c0.4,0.5,0.6,1.2,0.6,2.1v0.4h-3.9c0,0.6,0.2,1,0.5,1.4s0.7,0.5,1.2,0.5c0.4,0,0.6-0.1,0.9-0.2
	c0.2-0.1,0.5-0.3,0.6-0.6L522.3,148.5L522.3,148.5z M520,144.4c-0.4,0-0.7,0.1-1,0.4c-0.3,0.3-0.4,0.7-0.5,1.2h2.9v0
	c0-0.5-0.2-0.9-0.4-1.2C520.7,144.6,520.4,144.4,520,144.4z M525.8,148.8c0.4,0,0.7-0.1,0.9-0.3c0.3-0.2,0.4-0.5,0.4-0.8h0.9
	c0,0.3-0.1,0.6-0.3,1c-0.2,0.3-0.5,0.5-0.8,0.7c-0.4,0.2-0.7,0.3-1.1,0.3c-0.8,0-1.4-0.3-1.9-0.8s-0.7-1.3-0.7-2.2v-0.2
	c0-0.6,0.1-1.1,0.3-1.5s0.5-0.8,0.9-1s0.8-0.4,1.4-0.4c0.7,0,1.2,0.2,1.6,0.6c0.4,0.4,0.7,0.9,0.7,1.5h-0.9c0-0.4-0.2-0.7-0.4-0.9
	c-0.3-0.2-0.6-0.4-0.9-0.4c-0.5,0-0.9,0.2-1.2,0.5c-0.3,0.4-0.4,0.9-0.4,1.6v0.2c0,0.7,0.1,1.2,0.4,1.5
	C524.9,148.6,525.3,148.8,525.8,148.8z M530.6,142.3v1.4h1.1v0.8h-1.1v3.6c0,0.2,0,0.4,0.1,0.5s0.3,0.2,0.5,0.2c0.1,0,0.3,0,0.5-0.1
	v0.8c-0.3,0.1-0.5,0.1-0.8,0.1c-0.4,0-0.8-0.1-1-0.4s-0.3-0.6-0.3-1.1v-3.6h-1.1v-0.8h1.1v-1.4H530.6z M536.9,142.3v1.4h1.1v0.8
	h-1.1v3.6c0,0.2,0,0.4,0.1,0.5s0.3,0.2,0.5,0.2c0.1,0,0.3,0,0.5-0.1v0.8c-0.3,0.1-0.5,0.1-0.8,0.1c-0.4,0-0.8-0.1-1-0.4
	s-0.3-0.6-0.3-1.1v-3.6h-1.1v-0.8h1.1v-1.4H536.9z M540.2,144.4c0.4-0.5,1-0.8,1.7-0.8c1.2,0,1.8,0.7,1.9,2.1v3.8h-1v-3.8
	c0-0.4-0.1-0.7-0.3-0.9s-0.5-0.3-0.9-0.3c-0.3,0-0.6,0.1-0.8,0.3s-0.4,0.4-0.6,0.7v4.1h-1v-8.2h1L540.2,144.4L540.2,144.4z
	 M549.8,148.5c-0.5,0.7-1.2,1.1-2.2,1.1c-0.8,0-1.4-0.3-1.9-0.8s-0.7-1.2-0.7-2.1v-0.2c0-0.6,0.1-1.1,0.3-1.5
	c0.2-0.5,0.5-0.8,0.9-1.1s0.8-0.4,1.3-0.4c0.8,0,1.3,0.2,1.8,0.7c0.4,0.5,0.6,1.2,0.6,2.1v0.4H546c0,0.6,0.2,1,0.5,1.4
	s0.7,0.5,1.2,0.5c0.4,0,0.6-0.1,0.9-0.2c0.2-0.1,0.5-0.3,0.6-0.6L549.8,148.5L549.8,148.5z M547.5,144.4c-0.4,0-0.7,0.1-1,0.4
	c-0.3,0.3-0.4,0.7-0.5,1.2h2.9v0c0-0.5-0.2-0.9-0.4-1.2C548.3,144.6,547.9,144.4,547.5,144.4z"/>
<path class="st3" d="M248.1,162c0.4,0,0.7-0.1,0.9-0.3c0.3-0.2,0.4-0.5,0.4-0.8h0.9c0,0.3-0.1,0.6-0.3,1c-0.2,0.3-0.5,0.5-0.8,0.7
	c-0.4,0.2-0.7,0.3-1.1,0.3c-0.8,0-1.4-0.3-1.9-0.8s-0.7-1.3-0.7-2.2v-0.2c0-0.6,0.1-1.1,0.3-1.5s0.5-0.8,0.9-1s0.8-0.4,1.4-0.4
	c0.7,0,1.2,0.2,1.6,0.6c0.4,0.4,0.7,0.9,0.7,1.5h-0.9c0-0.4-0.2-0.7-0.4-0.9c-0.3-0.2-0.6-0.4-0.9-0.4c-0.5,0-0.9,0.2-1.2,0.5
	c-0.3,0.4-0.4,0.9-0.4,1.6v0.2c0,0.7,0.1,1.2,0.4,1.5C247.2,161.8,247.6,162,248.1,162z M251.2,159.8c0-0.6,0.1-1.1,0.3-1.5
	c0.2-0.5,0.5-0.8,0.9-1.1c0.4-0.2,0.9-0.4,1.4-0.4c0.8,0,1.4,0.3,1.9,0.8s0.7,1.3,0.7,2.2v0.1c0,0.6-0.1,1.1-0.3,1.5
	c-0.2,0.4-0.5,0.8-0.9,1.1s-0.9,0.4-1.4,0.4c-0.8,0-1.4-0.3-1.9-0.8S251.2,160.7,251.2,159.8L251.2,159.8z M252.2,159.9
	c0,0.6,0.1,1.2,0.4,1.6c0.3,0.4,0.7,0.6,1.2,0.6s0.9-0.2,1.2-0.6c0.3-0.4,0.4-0.9,0.4-1.7c0-0.6-0.2-1.2-0.5-1.5
	c-0.3-0.4-0.7-0.6-1.2-0.6s-0.9,0.2-1.2,0.6C252.4,158.6,252.2,159.2,252.2,159.9z M258.7,156.9v0.7c0.4-0.6,1-0.8,1.7-0.8
	c1.2,0,1.8,0.7,1.9,2.1v3.8h-1v-3.8c0-0.4-0.1-0.7-0.3-0.9c-0.2-0.2-0.5-0.3-0.9-0.3c-0.3,0-0.6,0.1-0.8,0.3
	c-0.2,0.2-0.4,0.4-0.6,0.7v4.1h-1V157h1V156.9z M265.2,155.5v1.4h1.1v0.8h-1.1v3.6c0,0.2,0,0.4,0.1,0.5s0.3,0.2,0.5,0.2
	c0.1,0,0.3,0,0.5-0.1v0.8c-0.3,0.1-0.5,0.1-0.8,0.1c-0.4,0-0.8-0.1-1-0.4s-0.3-0.6-0.3-1.1v-3.6h-1.1v-0.8h1.1v-1.4H265.2z
	 M271,162.7c-0.1-0.1-0.1-0.3-0.1-0.6c-0.5,0.5-1,0.7-1.7,0.7c-0.6,0-1-0.2-1.4-0.5s-0.6-0.7-0.6-1.2c0-0.6,0.2-1.1,0.7-1.4
	c0.5-0.3,1.1-0.5,1.9-0.5h1v-0.5c0-0.3-0.1-0.6-0.3-0.8c-0.2-0.2-0.5-0.3-0.9-0.3s-0.7,0.1-0.9,0.3c-0.2,0.2-0.4,0.4-0.4,0.6h-1
	c0-0.3,0.1-0.6,0.3-0.8c0.2-0.3,0.5-0.5,0.8-0.6c0.4-0.2,0.7-0.2,1.2-0.2c0.7,0,1.2,0.2,1.6,0.5s0.6,0.8,0.6,1.4v2.7
	c0,0.5,0.1,1,0.2,1.3v0.1h-1V162.7z M269.4,162c0.3,0,0.6-0.1,0.9-0.2s0.5-0.4,0.6-0.6V160h-0.8c-1.2,0-1.8,0.4-1.8,1.1
	c0,0.3,0.1,0.6,0.3,0.7S269.1,162,269.4,162z M275.8,162c0.4,0,0.7-0.1,0.9-0.3c0.3-0.2,0.4-0.5,0.4-0.8h0.9c0,0.3-0.1,0.6-0.3,1
	c-0.2,0.3-0.5,0.5-0.8,0.7c-0.4,0.2-0.7,0.3-1.1,0.3c-0.8,0-1.4-0.3-1.9-0.8s-0.7-1.3-0.7-2.2v-0.2c0-0.6,0.1-1.1,0.3-1.5
	c0.2-0.4,0.5-0.8,0.9-1s0.8-0.4,1.4-0.4c0.7,0,1.2,0.2,1.6,0.6c0.4,0.4,0.7,0.9,0.7,1.5h-0.9c0-0.4-0.2-0.7-0.4-0.9
	c-0.3-0.2-0.6-0.4-0.9-0.4c-0.5,0-0.9,0.2-1.2,0.5c-0.3,0.4-0.4,0.9-0.4,1.6v0.2c0,0.7,0.1,1.2,0.4,1.5
	C274.9,161.8,275.2,162,275.8,162z M280.5,155.5v1.4h1.1v0.8h-1.1v3.6c0,0.2,0,0.4,0.1,0.5s0.3,0.2,0.5,0.2c0.1,0,0.3,0,0.5-0.1v0.8
	c-0.3,0.1-0.5,0.1-0.8,0.1c-0.4,0-0.8-0.1-1-0.4s-0.3-0.6-0.3-1.1v-3.6h-1.1v-0.8h1.1v-1.4H280.5z M286.2,161.2
	c0-0.3-0.1-0.5-0.3-0.6c-0.2-0.1-0.6-0.3-1.1-0.4c-0.5-0.1-0.9-0.2-1.2-0.4s-0.5-0.3-0.7-0.5c-0.1-0.2-0.2-0.5-0.2-0.7
	c0-0.5,0.2-0.9,0.6-1.2s0.9-0.5,1.5-0.5c0.7,0,1.2,0.2,1.6,0.5s0.6,0.8,0.6,1.3h-1c0-0.3-0.1-0.5-0.3-0.7c-0.2-0.2-0.5-0.3-0.9-0.3
	s-0.6,0.1-0.8,0.2c-0.2,0.2-0.3,0.4-0.3,0.6c0,0.2,0.1,0.4,0.3,0.5c0.2,0.1,0.5,0.2,1,0.3s0.9,0.2,1.2,0.4c0.3,0.2,0.5,0.3,0.7,0.6
	c0.1,0.2,0.2,0.5,0.2,0.8c0,0.5-0.2,0.9-0.6,1.2s-1,0.5-1.6,0.5c-0.5,0-0.9-0.1-1.2-0.2c-0.4-0.2-0.6-0.4-0.8-0.7
	c-0.2-0.3-0.3-0.6-0.3-1h1c0,0.3,0.2,0.6,0.4,0.8c0.2,0.2,0.6,0.3,1,0.3s0.7-0.1,0.9-0.2C286,161.6,286.2,161.4,286.2,161.2z
	 M292.5,155.5v1.4h1.1v0.8h-1.1v3.6c0,0.2,0,0.4,0.1,0.5s0.3,0.2,0.5,0.2c0.1,0,0.3,0,0.5-0.1v0.8c-0.3,0.1-0.5,0.1-0.8,0.1
	c-0.4,0-0.8-0.1-1-0.4s-0.3-0.6-0.3-1.1v-3.6h-1.1v-0.8h1.1v-1.4H292.5z M295.8,157.6c0.4-0.5,1-0.8,1.7-0.8c1.2,0,1.8,0.7,1.9,2.1
	v3.8h-1v-3.8c0-0.4-0.1-0.7-0.3-0.9c-0.2-0.2-0.5-0.3-0.9-0.3c-0.3,0-0.6,0.1-0.8,0.3c-0.2,0.2-0.4,0.4-0.6,0.7v4.1h-1v-8.2h1
	L295.8,157.6L295.8,157.6z M304.4,162.7c-0.1-0.1-0.1-0.3-0.1-0.6c-0.5,0.5-1,0.7-1.7,0.7c-0.6,0-1-0.2-1.4-0.5s-0.6-0.7-0.6-1.2
	c0-0.6,0.2-1.1,0.7-1.4c0.5-0.3,1.1-0.5,1.9-0.5h1v-0.5c0-0.3-0.1-0.6-0.3-0.8c-0.2-0.2-0.5-0.3-0.9-0.3s-0.7,0.1-0.9,0.3
	c-0.2,0.2-0.4,0.4-0.4,0.6h-1c0-0.3,0.1-0.6,0.3-0.8c0.2-0.3,0.5-0.5,0.8-0.6c0.4-0.2,0.7-0.2,1.2-0.2c0.7,0,1.2,0.2,1.6,0.5
	s0.6,0.8,0.6,1.4v2.7c0,0.5,0.1,1,0.2,1.3v0.1h-1V162.7z M302.8,162c0.3,0,0.6-0.1,0.9-0.2s0.5-0.4,0.6-0.6V160h-0.8
	c-1.2,0-1.8,0.4-1.8,1.1c0,0.3,0.1,0.6,0.3,0.7C302.2,161.9,302.5,162,302.8,162z M308.2,155.5v1.4h1.1v0.8h-1.1v3.6
	c0,0.2,0,0.4,0.1,0.5s0.3,0.2,0.5,0.2c0.1,0,0.3,0,0.5-0.1v0.8c-0.3,0.1-0.5,0.1-0.8,0.1c-0.4,0-0.8-0.1-1-0.4s-0.3-0.6-0.3-1.1
	v-3.6h-1.1v-0.8h1.1v-1.4H308.2z M315.1,161.3l1.4-4.4h1.1l-2.3,6.7c-0.4,1-0.9,1.5-1.7,1.5h-0.2L313,165v-0.8h0.3
	c0.3,0,0.6-0.1,0.8-0.2c0.2-0.1,0.3-0.4,0.5-0.7l0.2-0.6l-2.1-5.7h1.1L315.1,161.3z M318.1,159.8c0-0.6,0.1-1.1,0.3-1.5
	c0.2-0.5,0.5-0.8,0.9-1.1c0.4-0.2,0.9-0.4,1.4-0.4c0.8,0,1.4,0.3,1.9,0.8s0.7,1.3,0.7,2.2v0.1c0,0.6-0.1,1.1-0.3,1.5
	c-0.2,0.4-0.5,0.8-0.9,1.1s-0.9,0.4-1.4,0.4c-0.8,0-1.4-0.3-1.9-0.8S318.1,160.7,318.1,159.8L318.1,159.8z M319.1,159.9
	c0,0.6,0.1,1.2,0.4,1.6c0.3,0.4,0.7,0.6,1.2,0.6s0.9-0.2,1.2-0.6c0.3-0.4,0.4-0.9,0.4-1.7c0-0.6-0.2-1.2-0.5-1.5
	c-0.3-0.4-0.7-0.6-1.2-0.6s-0.9,0.2-1.2,0.6C319.2,158.6,319.1,159.2,319.1,159.9z M328.2,162.2c-0.4,0.5-1,0.7-1.7,0.7
	c-0.6,0-1.1-0.2-1.4-0.5c-0.3-0.4-0.5-0.9-0.5-1.6V157h1v3.8c0,0.9,0.4,1.3,1.1,1.3c0.8,0,1.3-0.3,1.5-0.8v-4.2h1v5.8h-0.9
	L328.2,162.2z M338.6,161.4l1.1-4.4h1l-1.7,5.8h-0.8l-1.4-4.4l-1.4,4.4h-0.8l-1.7-5.8h1l1.1,4.4l1.4-4.4h0.8L338.6,161.4z
	 M345.3,162.7c-0.1-0.1-0.1-0.3-0.1-0.6c-0.5,0.5-1,0.7-1.7,0.7c-0.6,0-1-0.2-1.4-0.5s-0.6-0.7-0.6-1.2c0-0.6,0.2-1.1,0.7-1.4
	c0.5-0.3,1.1-0.5,1.9-0.5h1v-0.5c0-0.3-0.1-0.6-0.3-0.8c-0.2-0.2-0.5-0.3-0.9-0.3s-0.7,0.1-0.9,0.3c-0.2,0.2-0.4,0.4-0.4,0.6h-1
	c0-0.3,0.1-0.6,0.3-0.8c0.2-0.3,0.5-0.5,0.8-0.6c0.4-0.2,0.7-0.2,1.2-0.2c0.7,0,1.2,0.2,1.6,0.5s0.6,0.8,0.6,1.4v2.7
	c0,0.5,0.1,1,0.2,1.3v0.1h-1V162.7z M343.6,162c0.3,0,0.6-0.1,0.9-0.2s0.5-0.4,0.6-0.6V160h-0.8c-1.2,0-1.8,0.4-1.8,1.1
	c0,0.3,0.1,0.6,0.3,0.7S343.3,162,343.6,162z M348.6,156.9v0.7c0.4-0.6,1-0.8,1.7-0.8c1.2,0,1.8,0.7,1.9,2.1v3.8h-1v-3.8
	c0-0.4-0.1-0.7-0.3-0.9c-0.2-0.2-0.5-0.3-0.9-0.3c-0.3,0-0.6,0.1-0.8,0.3c-0.2,0.2-0.4,0.4-0.6,0.7v4.1h-1V157h1V156.9z
	 M355.1,155.5v1.4h1.1v0.8h-1.1v3.6c0,0.2,0,0.4,0.1,0.5s0.3,0.2,0.5,0.2c0.1,0,0.3,0,0.5-0.1v0.8c-0.3,0.1-0.5,0.1-0.8,0.1
	c-0.4,0-0.8-0.1-1-0.4s-0.3-0.6-0.3-1.1v-3.6H353v-0.8h1.1v-1.4H355.1z M361.4,155.5v1.4h1.1v0.8h-1.1v3.6c0,0.2,0,0.4,0.1,0.5
	s0.3,0.2,0.5,0.2c0.1,0,0.3,0,0.5-0.1v0.8c-0.3,0.1-0.5,0.1-0.8,0.1c-0.4,0-0.8-0.1-1-0.4s-0.3-0.6-0.3-1.1v-3.6h-1.1v-0.8h1.1v-1.4
	H361.4z M363.3,159.8c0-0.6,0.1-1.1,0.3-1.5c0.2-0.5,0.5-0.8,0.9-1.1c0.4-0.2,0.9-0.4,1.4-0.4c0.8,0,1.4,0.3,1.9,0.8
	s0.7,1.3,0.7,2.2v0.1c0,0.6-0.1,1.1-0.3,1.5c-0.2,0.4-0.5,0.8-0.9,1.1s-0.9,0.4-1.4,0.4c-0.8,0-1.4-0.3-1.9-0.8
	S363.3,160.7,363.3,159.8L363.3,159.8z M364.2,159.9c0,0.6,0.1,1.2,0.4,1.6c0.3,0.4,0.7,0.6,1.2,0.6s0.9-0.2,1.2-0.6
	c0.3-0.4,0.4-0.9,0.4-1.7c0-0.6-0.2-1.2-0.5-1.5c-0.3-0.4-0.7-0.6-1.2-0.6s-0.9,0.2-1.2,0.6C364.4,158.6,364.2,159.2,364.2,159.9z
	 M377.4,159.9c0,0.9-0.2,1.6-0.6,2.1s-1,0.8-1.6,0.8c-0.7,0-1.3-0.3-1.7-0.8v0.7h-0.9v-8.2h1v3.1c0.4-0.5,1-0.7,1.7-0.7
	s1.3,0.3,1.7,0.8C377.2,158.1,377.4,158.9,377.4,159.9L377.4,159.9z M376.4,159.8c0-0.7-0.1-1.2-0.4-1.6c-0.3-0.4-0.6-0.6-1.1-0.6
	c-0.7,0-1.1,0.3-1.4,0.9v2.5c0.3,0.6,0.8,0.9,1.4,0.9c0.5,0,0.8-0.2,1.1-0.6C376.3,161.1,376.4,160.5,376.4,159.8z M383.3,161.7
	c-0.5,0.7-1.2,1.1-2.2,1.1c-0.8,0-1.4-0.3-1.9-0.8s-0.7-1.2-0.7-2.1v-0.2c0-0.6,0.1-1.1,0.3-1.5c0.2-0.5,0.5-0.8,0.9-1.1
	s0.8-0.4,1.3-0.4c0.8,0,1.3,0.2,1.8,0.7c0.4,0.5,0.6,1.2,0.6,2.1v0.4h-3.9c0,0.6,0.2,1,0.5,1.4s0.7,0.5,1.2,0.5
	c0.4,0,0.6-0.1,0.9-0.2c0.2-0.1,0.5-0.3,0.6-0.6L383.3,161.7L383.3,161.7z M381,157.6c-0.4,0-0.7,0.1-1,0.4
	c-0.3,0.3-0.4,0.7-0.5,1.2h2.9v-0.1c0-0.5-0.2-0.9-0.4-1.2C381.7,157.8,381.4,157.6,381,157.6z M388.2,156.9v0.7
	c0.4-0.6,1-0.8,1.7-0.8c1.2,0,1.8,0.7,1.9,2.1v3.8h-1v-3.8c0-0.4-0.1-0.7-0.3-0.9c-0.2-0.2-0.5-0.3-0.9-0.3c-0.3,0-0.6,0.1-0.8,0.3
	c-0.2,0.2-0.4,0.4-0.6,0.7v4.1h-1V157h1V156.9z M393,159.8c0-0.6,0.1-1.1,0.3-1.5c0.2-0.5,0.5-0.8,0.9-1.1c0.4-0.2,0.9-0.4,1.4-0.4
	c0.8,0,1.4,0.3,1.9,0.8s0.7,1.3,0.7,2.2v0.1c0,0.6-0.1,1.1-0.3,1.5c-0.2,0.4-0.5,0.8-0.9,1.1s-0.9,0.4-1.4,0.4
	c-0.8,0-1.4-0.3-1.9-0.8S393,160.7,393,159.8L393,159.8z M394,159.9c0,0.6,0.1,1.2,0.4,1.6c0.3,0.4,0.7,0.6,1.2,0.6s0.9-0.2,1.2-0.6
	c0.3-0.4,0.4-0.9,0.4-1.7c0-0.6-0.2-1.2-0.5-1.5c-0.3-0.4-0.7-0.6-1.2-0.6s-0.9,0.2-1.2,0.6C394.2,158.6,394,159.2,394,159.9z
	 M400.9,155.5v1.4h1.1v0.8h-1.1v3.6c0,0.2,0,0.4,0.1,0.5s0.3,0.2,0.5,0.2c0.1,0,0.3,0,0.5-0.1v0.8c-0.3,0.1-0.5,0.1-0.8,0.1
	c-0.4,0-0.8-0.1-1-0.4s-0.3-0.6-0.3-1.1v-3.6h-1.1v-0.8h1.1v-1.4H400.9z M403.2,155.4c0-0.2,0-0.3,0.1-0.4c0.1-0.1,0.2-0.2,0.4-0.2
	s0.3,0.1,0.4,0.2c0.1,0.1,0.2,0.2,0.2,0.4s-0.1,0.3-0.2,0.4c-0.1,0.1-0.2,0.2-0.4,0.2s-0.3-0.1-0.4-0.2S403.2,155.5,403.2,155.4z
	 M404.3,162.7h-1v-5.8h1V162.7z M406.2,162.7v-5h-0.9v-0.8h0.9v-0.5c0-0.6,0.2-1.2,0.6-1.5c0.4-0.4,0.9-0.5,1.6-0.5
	c0.4,0,0.9,0.1,1.5,0.3l-0.2,0.8c-0.4-0.2-0.9-0.3-1.3-0.3s-0.7,0.1-0.9,0.3c-0.2,0.2-0.3,0.5-0.3,0.9v0.5h1.2v0.8h-1.2v5H406.2z
	 M410.3,162.7h-1v-5.8h1V162.7z M416.5,161.7c-0.5,0.7-1.2,1.1-2.2,1.1c-0.8,0-1.4-0.3-1.9-0.8s-0.7-1.2-0.7-2.1v-0.2
	c0-0.6,0.1-1.1,0.3-1.5c0.2-0.5,0.5-0.8,0.9-1.1s0.8-0.4,1.3-0.4c0.8,0,1.3,0.2,1.8,0.7c0.4,0.5,0.6,1.2,0.6,2.1v0.4h-3.9
	c0,0.6,0.2,1,0.5,1.4s0.7,0.5,1.2,0.5c0.4,0,0.6-0.1,0.9-0.2c0.2-0.1,0.5-0.3,0.6-0.6L416.5,161.7L416.5,161.7z M414.2,157.6
	c-0.4,0-0.7,0.1-1,0.4c-0.3,0.3-0.4,0.7-0.5,1.2h2.9v-0.1c0-0.5-0.2-0.9-0.4-1.2C415,157.8,414.7,157.6,414.2,157.6z M417.5,159.8
	c0-0.9,0.2-1.6,0.6-2.2c0.4-0.5,1-0.8,1.7-0.8s1.2,0.2,1.6,0.7v-3h1v8.2h-0.9v-0.6c-0.4,0.5-1,0.7-1.7,0.7s-1.2-0.3-1.6-0.8
	C417.7,161.5,417.5,160.7,417.5,159.8L417.5,159.8z M418.5,159.9c0,0.7,0.1,1.2,0.4,1.5c0.3,0.4,0.6,0.6,1.1,0.6
	c0.6,0,1.1-0.3,1.4-0.8v-2.7c-0.3-0.5-0.8-0.8-1.4-0.8c-0.5,0-0.9,0.2-1.1,0.6C418.7,158.6,418.5,159.1,418.5,159.9z M426.7,155.4
	c0-0.2,0-0.3,0.1-0.4c0.1-0.1,0.2-0.2,0.4-0.2s0.3,0.1,0.4,0.2c0.1,0.1,0.2,0.2,0.2,0.4s-0.1,0.3-0.2,0.4c-0.1,0.1-0.2,0.2-0.4,0.2
	s-0.3-0.1-0.4-0.2C426.8,155.7,426.7,155.5,426.7,155.4z M427.8,162.7h-1v-5.8h1V162.7z M429.9,162.7v-5H429v-0.8h0.9v-0.6
	c0-0.6,0.2-1.1,0.5-1.4c0.3-0.3,0.8-0.5,1.4-0.5c0.2,0,0.5,0,0.7,0.1l-0.1,0.8c-0.2,0-0.3,0-0.5,0c-0.3,0-0.6,0.1-0.7,0.3
	c-0.2,0.2-0.3,0.5-0.3,0.8v0.6h1.2v0.8h-1.2v5h-1V162.7z M439.5,162.7c-0.1-0.1-0.1-0.3-0.1-0.6c-0.5,0.5-1,0.7-1.7,0.7
	c-0.6,0-1-0.2-1.4-0.5s-0.6-0.7-0.6-1.2c0-0.6,0.2-1.1,0.7-1.4c0.5-0.3,1.1-0.5,1.9-0.5h1v-0.5c0-0.3-0.1-0.6-0.3-0.8
	c-0.2-0.2-0.5-0.3-0.9-0.3s-0.7,0.1-0.9,0.3c-0.2,0.2-0.4,0.4-0.4,0.6h-1c0-0.3,0.1-0.6,0.3-0.8c0.2-0.3,0.5-0.5,0.8-0.6
	c0.4-0.2,0.7-0.2,1.2-0.2c0.7,0,1.2,0.2,1.6,0.5s0.6,0.8,0.6,1.4v2.7c0,0.5,0.1,1,0.2,1.3v0.1h-1V162.7z M437.9,162
	c0.3,0,0.6-0.1,0.9-0.2s0.5-0.4,0.6-0.6V160h-0.8c-1.2,0-1.8,0.4-1.8,1.1c0,0.3,0.1,0.6,0.3,0.7S437.5,162,437.9,162z M442.9,156.9
	v0.7c0.4-0.6,1-0.8,1.7-0.8c1.2,0,1.8,0.7,1.9,2.1v3.8h-1v-3.8c0-0.4-0.1-0.7-0.3-0.9c-0.2-0.2-0.5-0.3-0.9-0.3
	c-0.3,0-0.6,0.1-0.8,0.3c-0.2,0.2-0.4,0.4-0.6,0.7v4.1h-1V157h1V156.9z M449.9,161.3l1.4-4.4h1.1l-2.3,6.7c-0.4,1-0.9,1.5-1.7,1.5
	h-0.2l-0.4-0.1v-0.8h0.3c0.3,0,0.6-0.1,0.8-0.2c0.2-0.1,0.3-0.4,0.5-0.7l0.2-0.6l-2.1-5.7h1.1L449.9,161.3z M454.5,155.5v1.4h1.1
	v0.8h-1.1v3.6c0,0.2,0,0.4,0.1,0.5s0.3,0.2,0.5,0.2c0.1,0,0.3,0,0.5-0.1v0.8c-0.3,0.1-0.5,0.1-0.8,0.1c-0.4,0-0.8-0.1-1-0.4
	s-0.3-0.6-0.3-1.1v-3.6h-1.1v-0.8h1.1v-1.4H454.5z M457.8,157.6c0.4-0.5,1-0.8,1.7-0.8c1.2,0,1.8,0.7,1.9,2.1v3.8h-1v-3.8
	c0-0.4-0.1-0.7-0.3-0.9c-0.2-0.2-0.5-0.3-0.9-0.3c-0.3,0-0.6,0.1-0.8,0.3c-0.2,0.2-0.4,0.4-0.6,0.7v4.1h-1v-8.2h1L457.8,157.6
	L457.8,157.6z M462.8,155.4c0-0.2,0-0.3,0.1-0.4c0.1-0.1,0.2-0.2,0.4-0.2s0.3,0.1,0.4,0.2c0.1,0.1,0.2,0.2,0.2,0.4s-0.1,0.3-0.2,0.4
	c-0.1,0.1-0.2,0.2-0.4,0.2s-0.3-0.1-0.4-0.2C462.9,155.7,462.8,155.5,462.8,155.4z M463.9,162.7h-1v-5.8h1V162.7z M466.5,156.9v0.7
	c0.4-0.6,1-0.8,1.7-0.8c1.2,0,1.8,0.7,1.9,2.1v3.8h-1v-3.8c0-0.4-0.1-0.7-0.3-0.9c-0.2-0.2-0.5-0.3-0.9-0.3c-0.3,0-0.6,0.1-0.8,0.3
	c-0.2,0.2-0.4,0.4-0.6,0.7v4.1h-1V157h1V156.9z M471.4,159.8c0-0.9,0.2-1.6,0.6-2.2c0.4-0.5,1-0.8,1.7-0.8s1.3,0.3,1.7,0.8V157h0.9
	v5.7c0,0.8-0.2,1.3-0.7,1.8c-0.4,0.4-1,0.6-1.8,0.6c-0.4,0-0.8-0.1-1.2-0.3c-0.4-0.2-0.7-0.4-0.9-0.7l0.5-0.6
	c0.4,0.5,0.9,0.8,1.6,0.8c0.5,0,0.9-0.1,1.1-0.4c0.3-0.3,0.4-0.7,0.4-1.1v-0.5c-0.4,0.5-0.9,0.7-1.6,0.7s-1.2-0.3-1.7-0.8
	C471.6,161.5,471.4,160.7,471.4,159.8z M472.4,159.9c0,0.7,0.1,1.2,0.4,1.5c0.3,0.4,0.6,0.6,1.1,0.6c0.6,0,1.1-0.3,1.4-0.9v-2.7
	c-0.3-0.6-0.8-0.8-1.4-0.8c-0.5,0-0.9,0.2-1.1,0.6C472.5,158.6,472.4,159.1,472.4,159.9z M481.5,157.6c0.4-0.5,1-0.8,1.7-0.8
	c1.2,0,1.8,0.7,1.9,2.1v3.8h-1v-3.8c0-0.4-0.1-0.7-0.3-0.9c-0.2-0.2-0.5-0.3-0.9-0.3c-0.3,0-0.6,0.1-0.8,0.3
	c-0.2,0.2-0.4,0.4-0.6,0.7v4.1h-1v-8.2h1L481.5,157.6L481.5,157.6z M490.1,162.7c-0.1-0.1-0.1-0.3-0.1-0.6c-0.5,0.5-1,0.7-1.7,0.7
	c-0.6,0-1-0.2-1.4-0.5s-0.6-0.7-0.6-1.2c0-0.6,0.2-1.1,0.7-1.4c0.5-0.3,1.1-0.5,1.9-0.5h1v-0.5c0-0.3-0.1-0.6-0.3-0.8
	c-0.2-0.2-0.5-0.3-0.9-0.3s-0.7,0.1-0.9,0.3c-0.2,0.2-0.4,0.4-0.4,0.6h-1c0-0.3,0.1-0.6,0.3-0.8c0.2-0.3,0.5-0.5,0.8-0.6
	c0.4-0.2,0.7-0.2,1.2-0.2c0.7,0,1.2,0.2,1.6,0.5s0.6,0.8,0.6,1.4v2.7c0,0.5,0.1,1,0.2,1.3v0.1h-1V162.7z M488.5,162
	c0.3,0,0.6-0.1,0.9-0.2s0.5-0.4,0.6-0.6V160h-0.8c-1.2,0-1.8,0.4-1.8,1.1c0,0.3,0.1,0.6,0.3,0.7S488.2,162,488.5,162z M497.4,159.9
	c0,0.9-0.2,1.6-0.6,2.1s-1,0.8-1.6,0.8c-0.7,0-1.3-0.2-1.7-0.7v2.8h-1v-8h0.9v0.6c0.4-0.5,1-0.8,1.7-0.8s1.3,0.3,1.7,0.8
	C497.2,158.1,497.4,158.9,497.4,159.9L497.4,159.9z M496.4,159.8c0-0.7-0.1-1.2-0.4-1.6c-0.3-0.4-0.7-0.6-1.1-0.6
	c-0.6,0-1.1,0.3-1.4,0.8v2.8c0.3,0.5,0.8,0.8,1.4,0.8c0.5,0,0.9-0.2,1.1-0.6C496.3,161.1,496.4,160.5,496.4,159.8z M503.6,159.9
	c0,0.9-0.2,1.6-0.6,2.1s-1,0.8-1.6,0.8c-0.7,0-1.3-0.2-1.7-0.7v2.8h-1v-8h0.9v0.6c0.4-0.5,1-0.8,1.7-0.8s1.3,0.3,1.7,0.8
	C503.4,158.1,503.6,158.9,503.6,159.9L503.6,159.9z M502.6,159.8c0-0.7-0.1-1.2-0.4-1.6c-0.3-0.4-0.7-0.6-1.1-0.6
	c-0.6,0-1.1,0.3-1.4,0.8v2.8c0.3,0.5,0.8,0.8,1.4,0.8c0.5,0,0.9-0.2,1.1-0.6C502.5,161.1,502.6,160.5,502.6,159.8z M509.5,161.7
	c-0.5,0.7-1.2,1.1-2.2,1.1c-0.8,0-1.4-0.3-1.9-0.8s-0.7-1.2-0.7-2.1v-0.2c0-0.6,0.1-1.1,0.3-1.5c0.2-0.5,0.5-0.8,0.9-1.1
	s0.8-0.4,1.3-0.4c0.8,0,1.3,0.2,1.8,0.7c0.4,0.5,0.6,1.2,0.6,2.1v0.4h-3.9c0,0.6,0.2,1,0.5,1.4s0.7,0.5,1.2,0.5
	c0.4,0,0.6-0.1,0.9-0.2c0.2-0.1,0.5-0.3,0.6-0.6L509.5,161.7L509.5,161.7z M507.2,157.6c-0.4,0-0.7,0.1-1,0.4
	c-0.3,0.3-0.4,0.7-0.5,1.2h2.9v-0.1c0-0.5-0.2-0.9-0.4-1.2C507.9,157.8,507.6,157.6,507.2,157.6z M511.6,156.9v0.7
	c0.4-0.6,1-0.8,1.7-0.8c1.2,0,1.8,0.7,1.9,2.1v3.8h-1v-3.8c0-0.4-0.1-0.7-0.3-0.9s-0.5-0.3-0.9-0.3c-0.3,0-0.6,0.1-0.8,0.3
	s-0.4,0.4-0.6,0.7v4.1h-1V157h1V156.9z M520.2,161.2c0-0.3-0.1-0.5-0.3-0.6s-0.6-0.3-1.1-0.4c-0.5-0.1-0.9-0.2-1.2-0.4
	s-0.5-0.3-0.7-0.5c-0.1-0.2-0.2-0.5-0.2-0.7c0-0.5,0.2-0.9,0.6-1.2c0.4-0.3,0.9-0.5,1.5-0.5c0.7,0,1.2,0.2,1.6,0.5
	c0.4,0.3,0.6,0.8,0.6,1.3h-1c0-0.3-0.1-0.5-0.3-0.7s-0.5-0.3-0.9-0.3s-0.6,0.1-0.8,0.2c-0.2,0.2-0.3,0.4-0.3,0.6
	c0,0.2,0.1,0.4,0.3,0.5s0.5,0.2,1,0.3s0.9,0.2,1.2,0.4s0.5,0.3,0.7,0.6c0.1,0.2,0.2,0.5,0.2,0.8c0,0.5-0.2,0.9-0.6,1.2
	c-0.4,0.3-1,0.5-1.6,0.5c-0.5,0-0.9-0.1-1.2-0.2c-0.4-0.2-0.6-0.4-0.8-0.7s-0.3-0.6-0.3-1h1c0,0.3,0.2,0.6,0.4,0.8s0.6,0.3,1,0.3
	s0.7-0.1,0.9-0.2C520,161.6,520.2,161.4,520.2,161.2z M522.5,162.2c0-0.2,0.1-0.3,0.2-0.4c0.1-0.1,0.3-0.2,0.5-0.2s0.4,0.1,0.5,0.2
	c0.1,0.1,0.2,0.3,0.2,0.4c0,0.2-0.1,0.3-0.2,0.4c-0.1,0.1-0.3,0.2-0.5,0.2s-0.4-0.1-0.5-0.2S522.5,162.4,522.5,162.2z M534.2,159.1
	c0,0.8-0.1,1.4-0.4,2c-0.3,0.6-0.6,1-1.1,1.3s-1,0.5-1.7,0.5c-0.6,0-1.2-0.2-1.6-0.5c-0.5-0.3-0.8-0.7-1.1-1.3s-0.4-1.2-0.4-1.9
	v-0.6c0-0.8,0.1-1.4,0.4-2c0.3-0.6,0.6-1,1.1-1.3s1-0.5,1.6-0.5s1.2,0.2,1.7,0.5s0.8,0.7,1.1,1.3s0.4,1.2,0.4,2V159.1z M533.2,158.6
	c0-0.9-0.2-1.6-0.6-2.1c-0.4-0.5-0.9-0.7-1.6-0.7c-0.7,0-1.2,0.2-1.5,0.7c-0.4,0.5-0.6,1.2-0.6,2.1v0.6c0,0.9,0.2,1.6,0.6,2.1
	c0.4,0.5,0.9,0.8,1.6,0.8c0.7,0,1.2-0.2,1.5-0.7c0.4-0.5,0.6-1.2,0.6-2.1V158.6z M536.6,156.9v0.7c0.4-0.6,1-0.8,1.7-0.8
	c1.2,0,1.8,0.7,1.9,2.1v3.8h-1v-3.8c0-0.4-0.1-0.7-0.3-0.9s-0.5-0.3-0.9-0.3c-0.3,0-0.6,0.1-0.8,0.3s-0.4,0.4-0.6,0.7v4.1h-1V157h1
	V156.9z M544,162c0.4,0,0.7-0.1,0.9-0.3c0.3-0.2,0.4-0.5,0.4-0.8h0.9c0,0.3-0.1,0.6-0.3,1c-0.2,0.3-0.5,0.5-0.8,0.7
	c-0.4,0.2-0.7,0.3-1.1,0.3c-0.8,0-1.4-0.3-1.9-0.8s-0.7-1.3-0.7-2.2v-0.2c0-0.6,0.1-1.1,0.3-1.5s0.5-0.8,0.9-1s0.8-0.4,1.4-0.4
	c0.7,0,1.2,0.2,1.6,0.6c0.4,0.4,0.7,0.9,0.7,1.5h-0.9c0-0.4-0.2-0.7-0.4-0.9c-0.3-0.2-0.6-0.4-0.9-0.4c-0.5,0-0.9,0.2-1.2,0.5
	c-0.3,0.4-0.4,0.9-0.4,1.6v0.2c0,0.7,0.1,1.2,0.4,1.5C543.1,161.8,543.5,162,544,162z M552.1,161.7c-0.5,0.7-1.2,1.1-2.2,1.1
	c-0.8,0-1.4-0.3-1.9-0.8s-0.7-1.2-0.7-2.1v-0.2c0-0.6,0.1-1.1,0.3-1.5c0.2-0.5,0.5-0.8,0.9-1.1s0.8-0.4,1.3-0.4
	c0.8,0,1.3,0.2,1.8,0.7c0.4,0.5,0.6,1.2,0.6,2.1v0.4h-3.9c0,0.6,0.2,1,0.5,1.4s0.7,0.5,1.2,0.5c0.4,0,0.6-0.1,0.9-0.2
	c0.2-0.1,0.5-0.3,0.6-0.6L552.1,161.7L552.1,161.7z M549.8,157.6c-0.4,0-0.7,0.1-1,0.4c-0.3,0.3-0.4,0.7-0.5,1.2h2.9v-0.1
	c0-0.5-0.2-0.9-0.4-1.2C550.5,157.8,550.2,157.6,549.8,157.6z"/>
<text transform="matrix(1 0 0 1 245 175.9263)" class="st3 st1 st4">you are on your journey and on the app, you are able </text>
<text transform="matrix(1 0 0 1 500.4 175.9263)" class="st3 st1 st4">t</text>
<text transform="matrix(1 0 0 1 503.9 175.9263)" class="st3 st1 st4">o </text>
<text transform="matrix(1 0 0 1 512.9 175.9263)" class="st3 st1 st4">t</text>
<text transform="matrix(1 0 0 1 516.4 175.9263)" class="st3 st1 st4">o call the </text>
<text transform="matrix(1 0 0 1 245 189.1265)" class="st3 st1 st4">police, tell your chosen contacts safe, and allows yours contacts </text>
<text transform="matrix(1 0 0 1 245 202.3262)" class="st3 st1 st4">t</text>
<text transform="matrix(1 0 0 1 248.5 202.3262)" class="st3 st1 st4">o check where you are. It is intended for people who t</text>
<text transform="matrix(1 0 0 1 507.7 202.3262)" class="st3 st1 st4">r</text>
<text transform="matrix(1 0 0 1 511.2 202.3262)" class="st3 st1 st4">a</text>
<text transform="matrix(1 0 0 1 517.1 202.3262)" class="st3 st1 st4">vel alone </text>
<text transform="matrix(1 0 0 1 245 215.5264)" class="st3 st1 st4">in either unsafe or unknown areas.</text>
<text transform="matrix(1 0 0 1 413 215.5264)" class="st3 st1 st4"> </text>
<text transform="matrix(1 0 0 1 415.4 215.5264)" class="st3 st1 st4">Their targeted audience </text>
<text transform="matrix(1 0 0 1 245 228.7266)" class="st3 st1 st4">are young adults. Although the app is useful, there are some </text>
<text transform="matrix(1 0 0 1 245 241.9263)" class="st3 st1 st4">imp</text>
<text transform="matrix(1 0 0 1 263.5 241.9263)" class="st3 st1 st4">r</text>
<text transform="matrix(1 0 0 1 267.1 241.9263)" class="st3 st1 st4">o</text>
<text transform="matrix(1 0 0 1 273.3 241.9263)" class="st3 st1 st4">vements. </text>
<text transform="matrix(1 0 0 1 320.9 241.9263)" class="st3 st1 st4">F</text>
<text transform="matrix(1 0 0 1 326.8 241.9263)" class="st3 st1 st4">or instance, when you select your companions, </text>
<text transform="matrix(1 0 0 1 245 255.1265)" class="st3 st1 st4">you are required </text>
<text transform="matrix(1 0 0 1 326.5 255.1265)" class="st3 st1 st4">t</text>
<text transform="matrix(1 0 0 1 330 255.1265)" class="st3 st1 st4">o select at least three companions. It is an </text>
<text transform="matrix(1 0 0 1 245 268.3262)" class="st3 st1 st4">inconvenient, especially if you wanted companions that are close </text>
<text transform="matrix(1 0 0 1 245 281.5264)" class="st3 st1 st4">by and only h</text>
<text transform="matrix(1 0 0 1 309.1 281.5264)" class="st3 st1 st4">a</text>
<text transform="matrix(1 0 0 1 315 281.5264)" class="st3 st1 st4">ve 1 or 2 friends. Another critique is that they use </text>
<path class="st3" d="M249.3,294.7c-0.1-0.1-0.1-0.3-0.1-0.6c-0.5,0.5-1,0.7-1.7,0.7c-0.6,0-1-0.2-1.4-0.5s-0.6-0.7-0.6-1.2
	c0-0.6,0.2-1.1,0.7-1.4s1.1-0.5,1.9-0.5h1v-0.5c0-0.3-0.1-0.6-0.3-0.8c-0.2-0.2-0.5-0.3-0.9-0.3s-0.7,0.1-0.9,0.3
	c-0.2,0.2-0.4,0.4-0.4,0.6h-1c0-0.3,0.1-0.6,0.3-0.8c0.2-0.3,0.5-0.5,0.8-0.6c0.4-0.2,0.7-0.2,1.2-0.2c0.7,0,1.2,0.2,1.6,0.5
	c0.4,0.3,0.6,0.8,0.6,1.4v2.7c0,0.5,0.1,1,0.2,1.3v0.1h-1V294.7z M247.7,294c0.3,0,0.6-0.1,0.9-0.2s0.5-0.4,0.6-0.6V292h-0.8
	c-1.2,0-1.8,0.4-1.8,1.1c0,0.3,0.1,0.6,0.3,0.7C247.1,293.9,247.4,294,247.7,294z M255.8,287.5v1.4h1.1v0.8h-1.1v3.6
	c0,0.2,0,0.4,0.1,0.5s0.3,0.2,0.5,0.2c0.1,0,0.3,0,0.5-0.1v0.8c-0.3,0.1-0.5,0.1-0.8,0.1c-0.4,0-0.8-0.1-1-0.4s-0.3-0.6-0.3-1.1
	v-3.6h-1.1v-0.8h1.1v-1.4H255.8z M259.1,289.6c0.4-0.5,1-0.8,1.7-0.8c1.2,0,1.8,0.7,1.9,2.1v3.8h-1v-3.8c0-0.4-0.1-0.7-0.3-0.9
	c-0.2-0.2-0.5-0.3-0.9-0.3c-0.3,0-0.6,0.1-0.8,0.3c-0.2,0.2-0.4,0.4-0.6,0.7v4.1h-1v-8.2h1L259.1,289.6L259.1,289.6z M264.1,287.4
	c0-0.2,0-0.3,0.1-0.4s0.2-0.2,0.4-0.2s0.3,0.1,0.4,0.2s0.2,0.2,0.2,0.4s-0.1,0.3-0.2,0.4s-0.2,0.2-0.4,0.2s-0.3-0.1-0.4-0.2
	C264.2,287.7,264.1,287.5,264.1,287.4z M265.2,294.7h-1v-5.8h1V294.7z M269.6,289.8c-0.2,0-0.3,0-0.5,0c-0.7,0-1.1,0.3-1.3,0.8v4.1
	h-1v-5.8h1v0.7c0.3-0.5,0.8-0.8,1.4-0.8c0.2,0,0.3,0,0.4,0.1V289.8z M270.3,291.8c0-0.9,0.2-1.6,0.6-2.2c0.4-0.5,1-0.8,1.7-0.8
	s1.2,0.2,1.6,0.7v-3h1v8.2h-0.9v-0.6c-0.4,0.5-1,0.7-1.7,0.7s-1.2-0.3-1.6-0.8C270.5,293.5,270.3,292.7,270.3,291.8L270.3,291.8z
	 M271.3,291.9c0,0.7,0.1,1.2,0.4,1.5c0.3,0.4,0.6,0.6,1.1,0.6c0.6,0,1.1-0.3,1.4-0.8v-2.7c-0.3-0.5-0.8-0.8-1.4-0.8
	c-0.5,0-0.9,0.2-1.1,0.6C271.4,290.6,271.3,291.1,271.3,291.9z M284.4,291.9c0,0.9-0.2,1.6-0.6,2.1s-1,0.8-1.6,0.8
	c-0.7,0-1.3-0.2-1.7-0.7v2.8h-1v-8h0.9v0.6c0.4-0.5,1-0.8,1.7-0.8s1.3,0.3,1.7,0.8C284.2,290.1,284.4,290.9,284.4,291.9L284.4,291.9
	z M283.4,291.8c0-0.7-0.1-1.2-0.4-1.6s-0.7-0.6-1.1-0.6c-0.6,0-1.1,0.3-1.4,0.8v2.8c0.3,0.5,0.8,0.8,1.4,0.8c0.5,0,0.9-0.2,1.1-0.6
	C283.2,293.1,283.4,292.5,283.4,291.8z M289.2,294.7c-0.1-0.1-0.1-0.3-0.1-0.6c-0.5,0.5-1,0.7-1.7,0.7c-0.6,0-1-0.2-1.4-0.5
	s-0.6-0.7-0.6-1.2c0-0.6,0.2-1.1,0.7-1.4s1.1-0.5,1.9-0.5h1v-0.5c0-0.3-0.1-0.6-0.3-0.8c-0.2-0.2-0.5-0.3-0.9-0.3s-0.7,0.1-0.9,0.3
	c-0.2,0.2-0.4,0.4-0.4,0.6h-1c0-0.3,0.1-0.6,0.3-0.8c0.2-0.3,0.5-0.5,0.8-0.6c0.4-0.2,0.7-0.2,1.2-0.2c0.7,0,1.2,0.2,1.6,0.5
	s0.6,0.8,0.6,1.4v2.7c0,0.5,0.1,1,0.2,1.3v0.1h-1V294.7z M287.6,294c0.3,0,0.6-0.1,0.9-0.2s0.5-0.4,0.6-0.6V292h-0.8
	c-1.2,0-1.8,0.4-1.8,1.1c0,0.3,0.1,0.6,0.3,0.7S287.2,294,287.6,294z M294.4,289.8c-0.2,0-0.3,0-0.5,0c-0.7,0-1.1,0.3-1.3,0.8v4.1
	h-1v-5.8h1v0.7c0.3-0.5,0.8-0.8,1.4-0.8c0.2,0,0.3,0,0.4,0.1V289.8z M296.9,287.5v1.4h1.1v0.8h-1.1v3.6c0,0.2,0,0.4,0.1,0.5
	s0.3,0.2,0.5,0.2c0.1,0,0.3,0,0.5-0.1v0.8c-0.3,0.1-0.5,0.1-0.8,0.1c-0.4,0-0.8-0.1-1-0.4s-0.3-0.6-0.3-1.1v-3.6h-1.1v-0.8h1.1v-1.4
	H296.9z M301.1,293.3l1.4-4.4h1.1l-2.3,6.7c-0.4,1-0.9,1.5-1.7,1.5h-0.2L299,297v-0.8h0.3c0.3,0,0.6-0.1,0.8-0.2
	c0.2-0.1,0.3-0.4,0.5-0.7l0.2-0.6l-2.1-5.7h1.1L301.1,293.3z M304.3,296.3l-0.6-0.4c0.3-0.5,0.5-1,0.5-1.5v-0.9h1v0.8
	c0,0.4-0.1,0.7-0.3,1.1C304.8,295.8,304.6,296.1,304.3,296.3z M314.4,293.4l1.1-4.4h1l-1.7,5.8H314l-1.4-4.4l-1.4,4.4h-0.8l-1.7-5.8
	h1l1.1,4.4l1.4-4.4h0.8L314.4,293.4z M318.5,289.6c0.4-0.5,1-0.8,1.7-0.8c1.2,0,1.8,0.7,1.9,2.1v3.8h-1v-3.8c0-0.4-0.1-0.7-0.3-0.9
	c-0.2-0.2-0.5-0.3-0.9-0.3c-0.3,0-0.6,0.1-0.8,0.3c-0.2,0.2-0.4,0.4-0.6,0.7v4.1h-1v-8.2h1L318.5,289.6L318.5,289.6z M323.6,287.4
	c0-0.2,0-0.3,0.1-0.4s0.2-0.2,0.4-0.2s0.3,0.1,0.4,0.2s0.2,0.2,0.2,0.4s-0.1,0.3-0.2,0.4s-0.2,0.2-0.4,0.2s-0.3-0.1-0.4-0.2
	C323.6,287.7,323.6,287.5,323.6,287.4z M324.7,294.7h-1v-5.8h1V294.7z M328.6,294c0.4,0,0.7-0.1,0.9-0.3c0.3-0.2,0.4-0.5,0.4-0.8
	h0.9c0,0.3-0.1,0.6-0.3,1c-0.2,0.3-0.5,0.5-0.8,0.7c-0.4,0.2-0.7,0.3-1.1,0.3c-0.8,0-1.4-0.3-1.9-0.8s-0.7-1.3-0.7-2.2v-0.2
	c0-0.6,0.1-1.1,0.3-1.5c0.2-0.4,0.5-0.8,0.9-1s0.8-0.4,1.4-0.4c0.7,0,1.2,0.2,1.6,0.6s0.7,0.9,0.7,1.5H330c0-0.4-0.2-0.7-0.4-0.9
	c-0.3-0.2-0.6-0.4-0.9-0.4c-0.5,0-0.9,0.2-1.2,0.5c-0.3,0.4-0.4,0.9-0.4,1.6v0.2c0,0.7,0.1,1.2,0.4,1.5
	C327.7,293.8,328.1,294,328.6,294z M333,289.6c0.4-0.5,1-0.8,1.7-0.8c1.2,0,1.8,0.7,1.9,2.1v3.8h-1v-3.8c0-0.4-0.1-0.7-0.3-0.9
	c-0.2-0.2-0.5-0.3-0.9-0.3c-0.3,0-0.6,0.1-0.8,0.3c-0.2,0.2-0.4,0.4-0.6,0.7v4.1h-1v-8.2h1L333,289.6L333,289.6z M341.7,288.9v0.6
	c0.4-0.5,1-0.8,1.7-0.8c0.8,0,1.4,0.3,1.7,0.9c0.2-0.3,0.4-0.5,0.8-0.7c0.3-0.2,0.7-0.3,1.1-0.3c1.3,0,1.9,0.7,1.9,2v3.9h-1v-3.8
	c0-0.4-0.1-0.7-0.3-0.9c-0.2-0.2-0.5-0.3-1-0.3c-0.4,0-0.7,0.1-0.9,0.3c-0.2,0.2-0.4,0.5-0.4,0.9v3.9h-1v-3.8c0-0.8-0.4-1.3-1.2-1.3
	c-0.7,0-1.1,0.3-1.3,0.8v4.2h-1v-5.8h0.9V288.9z M354,294.7c-0.1-0.1-0.1-0.3-0.1-0.6c-0.5,0.5-1,0.7-1.7,0.7c-0.6,0-1-0.2-1.4-0.5
	s-0.6-0.7-0.6-1.2c0-0.6,0.2-1.1,0.7-1.4s1.1-0.5,1.9-0.5h1v-0.5c0-0.3-0.1-0.6-0.3-0.8c-0.2-0.2-0.5-0.3-0.9-0.3s-0.7,0.1-0.9,0.3
	c-0.2,0.2-0.4,0.4-0.4,0.6h-1c0-0.3,0.1-0.6,0.3-0.8c0.2-0.3,0.5-0.5,0.8-0.6c0.4-0.2,0.7-0.2,1.2-0.2c0.7,0,1.2,0.2,1.6,0.5
	s0.6,0.8,0.6,1.4v2.7c0,0.5,0.1,1,0.2,1.3v0.1h-1V294.7z M352.4,294c0.3,0,0.6-0.1,0.9-0.2s0.5-0.4,0.6-0.6V292h-0.8
	c-1.2,0-1.8,0.4-1.8,1.1c0,0.3,0.1,0.6,0.3,0.7S352,294,352.4,294z M358,292l-0.6,0.6v2h-1v-8.2h1v5l0.5-0.6l1.8-1.9h1.2l-2.3,2.4
	l2.5,3.4h-1.2L358,292z M366.6,293.7c-0.5,0.7-1.2,1.1-2.2,1.1c-0.8,0-1.4-0.3-1.9-0.8s-0.7-1.2-0.7-2.1v-0.2c0-0.6,0.1-1.1,0.3-1.5
	c0.2-0.5,0.5-0.8,0.9-1.1c0.4-0.3,0.8-0.4,1.3-0.4c0.8,0,1.3,0.2,1.8,0.7c0.4,0.5,0.6,1.2,0.6,2.1v0.4h-3.9c0,0.6,0.2,1,0.5,1.4
	s0.7,0.5,1.2,0.5c0.4,0,0.6-0.1,0.9-0.2c0.2-0.1,0.5-0.3,0.6-0.6L366.6,293.7L366.6,293.7z M364.3,289.6c-0.4,0-0.7,0.1-1,0.4
	s-0.4,0.7-0.5,1.2h2.9v-0.1c0-0.5-0.2-0.9-0.4-1.2C365,289.8,364.7,289.6,364.3,289.6z M371.2,293.2c0-0.3-0.1-0.5-0.3-0.6
	c-0.2-0.1-0.6-0.3-1.1-0.4s-0.9-0.2-1.2-0.4s-0.5-0.3-0.7-0.5c-0.1-0.2-0.2-0.5-0.2-0.7c0-0.5,0.2-0.9,0.6-1.2
	c0.4-0.3,0.9-0.5,1.5-0.5c0.7,0,1.2,0.2,1.6,0.5s0.6,0.8,0.6,1.3h-1c0-0.3-0.1-0.5-0.3-0.7c-0.2-0.2-0.5-0.3-0.9-0.3
	s-0.6,0.1-0.8,0.2c-0.2,0.2-0.3,0.4-0.3,0.6s0.1,0.4,0.3,0.5c0.2,0.1,0.5,0.2,1,0.3c0.5,0.1,0.9,0.2,1.2,0.4
	c0.3,0.2,0.5,0.3,0.7,0.6c0.1,0.2,0.2,0.5,0.2,0.8c0,0.5-0.2,0.9-0.6,1.2c-0.4,0.3-1,0.5-1.6,0.5c-0.5,0-0.9-0.1-1.2-0.2
	c-0.4-0.2-0.6-0.4-0.8-0.7c-0.2-0.3-0.3-0.6-0.3-1h1c0,0.3,0.2,0.6,0.4,0.8c0.2,0.2,0.6,0.3,1,0.3s0.7-0.1,0.9-0.2
	C371.1,293.6,371.2,293.4,371.2,293.2z M376.2,287.4c0-0.2,0-0.3,0.1-0.4s0.2-0.2,0.4-0.2s0.3,0.1,0.4,0.2s0.2,0.2,0.2,0.4
	s-0.1,0.3-0.2,0.4s-0.2,0.2-0.4,0.2s-0.3-0.1-0.4-0.2C376.3,287.7,376.2,287.5,376.2,287.4z M377.3,294.7h-1v-5.8h1V294.7z
	 M380.2,287.5v1.4h1.1v0.8h-1.1v3.6c0,0.2,0,0.4,0.1,0.5s0.3,0.2,0.5,0.2c0.1,0,0.3,0,0.5-0.1v0.8c-0.3,0.1-0.5,0.1-0.8,0.1
	c-0.4,0-0.8-0.1-1-0.4s-0.3-0.6-0.3-1.1v-3.6h-1.1v-0.8h1.1v-1.4H380.2z M388.6,293.2c0-0.3-0.1-0.5-0.3-0.6
	c-0.2-0.1-0.6-0.3-1.1-0.4s-0.9-0.2-1.2-0.4s-0.5-0.3-0.7-0.5c-0.1-0.2-0.2-0.5-0.2-0.7c0-0.5,0.2-0.9,0.6-1.2
	c0.4-0.3,0.9-0.5,1.5-0.5c0.7,0,1.2,0.2,1.6,0.5s0.6,0.8,0.6,1.3h-1c0-0.3-0.1-0.5-0.3-0.7c-0.2-0.2-0.5-0.3-0.9-0.3
	s-0.6,0.1-0.8,0.2c-0.2,0.2-0.3,0.4-0.3,0.6s0.1,0.4,0.3,0.5c0.2,0.1,0.5,0.2,1,0.3c0.5,0.1,0.9,0.2,1.2,0.4
	c0.3,0.2,0.5,0.3,0.7,0.6c0.1,0.2,0.2,0.5,0.2,0.8c0,0.5-0.2,0.9-0.6,1.2c-0.4,0.3-1,0.5-1.6,0.5c-0.5,0-0.9-0.1-1.2-0.2
	c-0.4-0.2-0.6-0.4-0.8-0.7c-0.2-0.3-0.3-0.6-0.3-1h1c0,0.3,0.2,0.6,0.4,0.8c0.2,0.2,0.6,0.3,1,0.3s0.7-0.1,0.9-0.2
	C388.5,293.6,388.6,293.4,388.6,293.2z M392,294.7h-1v-8.2h1V294.7z M393.3,291.8c0-0.6,0.1-1.1,0.3-1.5c0.2-0.5,0.5-0.8,0.9-1.1
	c0.4-0.2,0.9-0.4,1.4-0.4c0.8,0,1.4,0.3,1.9,0.8s0.7,1.3,0.7,2.2v0.1c0,0.6-0.1,1.1-0.3,1.5c-0.2,0.4-0.5,0.8-0.9,1.1
	c-0.4,0.3-0.9,0.4-1.4,0.4c-0.8,0-1.4-0.3-1.9-0.8S393.3,292.7,393.3,291.8L393.3,291.8z M394.3,291.9c0,0.6,0.1,1.2,0.4,1.6
	s0.7,0.6,1.2,0.6s0.9-0.2,1.2-0.6c0.3-0.4,0.4-0.9,0.4-1.7c0-0.6-0.2-1.2-0.5-1.5c-0.3-0.4-0.7-0.6-1.2-0.6s-0.9,0.2-1.2,0.6
	C394.5,290.6,394.3,291.2,394.3,291.9z M405,293.4l1.1-4.4h1l-1.7,5.8h-0.8l-1.4-4.4l-1.4,4.4H401l-1.7-5.8h1l1.1,4.4l1.4-4.4h0.8
	L405,293.4z M412.7,293.7c-0.5,0.7-1.2,1.1-2.2,1.1c-0.8,0-1.4-0.3-1.9-0.8s-0.7-1.2-0.7-2.1v-0.2c0-0.6,0.1-1.1,0.3-1.5
	c0.2-0.5,0.5-0.8,0.9-1.1c0.4-0.3,0.8-0.4,1.3-0.4c0.8,0,1.3,0.2,1.8,0.7c0.4,0.5,0.6,1.2,0.6,2.1v0.4h-3.9c0,0.6,0.2,1,0.5,1.4
	s0.7,0.5,1.2,0.5c0.4,0,0.6-0.1,0.9-0.2c0.2-0.1,0.5-0.3,0.6-0.6L412.7,293.7L412.7,293.7z M410.4,289.6c-0.4,0-0.7,0.1-1,0.4
	s-0.4,0.7-0.5,1.2h2.9v-0.1c0-0.5-0.2-0.9-0.4-1.2C411.1,289.8,410.8,289.6,410.4,289.6z M416.7,289.8c-0.2,0-0.3,0-0.5,0
	c-0.7,0-1.1,0.3-1.3,0.8v4.1h-1v-5.8h1v0.7c0.3-0.5,0.8-0.8,1.4-0.8c0.2,0,0.3,0,0.4,0.1V289.8z M421.7,287.5v1.4h1.1v0.8h-1.1v3.6
	c0,0.2,0,0.4,0.1,0.5s0.3,0.2,0.5,0.2c0.1,0,0.3,0,0.5-0.1v0.8c-0.3,0.1-0.5,0.1-0.8,0.1c-0.4,0-0.8-0.1-1-0.4s-0.3-0.6-0.3-1.1
	v-3.6h-1.1v-0.8h1.1v-1.4H421.7z M423.6,291.8c0-0.6,0.1-1.1,0.3-1.5c0.2-0.5,0.5-0.8,0.9-1.1c0.4-0.2,0.9-0.4,1.4-0.4
	c0.8,0,1.4,0.3,1.9,0.8s0.7,1.3,0.7,2.2v0.1c0,0.6-0.1,1.1-0.3,1.5c-0.2,0.4-0.5,0.8-0.9,1.1c-0.4,0.3-0.9,0.4-1.4,0.4
	c-0.8,0-1.4-0.3-1.9-0.8S423.6,292.7,423.6,291.8L423.6,291.8z M424.6,291.9c0,0.6,0.1,1.2,0.4,1.6s0.7,0.6,1.2,0.6s0.9-0.2,1.2-0.6
	c0.3-0.4,0.4-0.9,0.4-1.7c0-0.6-0.2-1.2-0.5-1.5c-0.3-0.4-0.7-0.6-1.2-0.6s-0.9,0.2-1.2,0.6C424.7,290.6,424.6,291.2,424.6,291.9z
	 M433.9,294.7h-1v-8.2h1V294.7z M435.2,291.8c0-0.6,0.1-1.1,0.3-1.5c0.2-0.5,0.5-0.8,0.9-1.1c0.4-0.2,0.9-0.4,1.4-0.4
	c0.8,0,1.4,0.3,1.9,0.8s0.7,1.3,0.7,2.2v0.1c0,0.6-0.1,1.1-0.3,1.5c-0.2,0.4-0.5,0.8-0.9,1.1c-0.4,0.3-0.9,0.4-1.4,0.4
	c-0.8,0-1.4-0.3-1.9-0.8S435.2,292.7,435.2,291.8L435.2,291.8z M436.2,291.9c0,0.6,0.1,1.2,0.4,1.6s0.7,0.6,1.2,0.6s0.9-0.2,1.2-0.6
	c0.3-0.4,0.4-0.9,0.4-1.7c0-0.6-0.2-1.2-0.5-1.5c-0.3-0.4-0.7-0.6-1.2-0.6s-0.9,0.2-1.2,0.6C436.4,290.6,436.2,291.2,436.2,291.9z
	 M445.4,294.7c-0.1-0.1-0.1-0.3-0.1-0.6c-0.5,0.5-1,0.7-1.7,0.7c-0.6,0-1-0.2-1.4-0.5s-0.6-0.7-0.6-1.2c0-0.6,0.2-1.1,0.7-1.4
	s1.1-0.5,1.9-0.5h1v-0.5c0-0.3-0.1-0.6-0.3-0.8c-0.2-0.2-0.5-0.3-0.9-0.3s-0.7,0.1-0.9,0.3c-0.2,0.2-0.4,0.4-0.4,0.6h-1
	c0-0.3,0.1-0.6,0.3-0.8c0.2-0.3,0.5-0.5,0.8-0.6c0.4-0.2,0.7-0.2,1.2-0.2c0.7,0,1.2,0.2,1.6,0.5s0.6,0.8,0.6,1.4v2.7
	c0,0.5,0.1,1,0.2,1.3v0.1h-1V294.7z M443.7,294c0.3,0,0.6-0.1,0.9-0.2s0.5-0.4,0.6-0.6V292h-0.8c-1.2,0-1.8,0.4-1.8,1.1
	c0,0.3,0.1,0.6,0.3,0.7S443.4,294,443.7,294z M447.5,291.8c0-0.9,0.2-1.6,0.6-2.2c0.4-0.5,1-0.8,1.7-0.8s1.2,0.2,1.6,0.7v-3h1v8.2
	h-0.9v-0.6c-0.4,0.5-1,0.7-1.7,0.7s-1.2-0.3-1.6-0.8C447.7,293.5,447.5,292.7,447.5,291.8L447.5,291.8z M448.5,291.9
	c0,0.7,0.1,1.2,0.4,1.5c0.3,0.4,0.6,0.6,1.1,0.6c0.6,0,1.1-0.3,1.4-0.8v-2.7c-0.3-0.5-0.8-0.8-1.4-0.8c-0.5,0-0.9,0.2-1.1,0.6
	C448.6,290.6,448.5,291.1,448.5,291.9z M454,294.2c0-0.2,0.1-0.3,0.2-0.4s0.3-0.2,0.5-0.2s0.4,0.1,0.5,0.2s0.2,0.3,0.2,0.4
	c0,0.2-0.1,0.3-0.2,0.4s-0.3,0.2-0.5,0.2s-0.4-0.1-0.5-0.2S454,294.4,454,294.2z M464.1,292.7h-3.3l-0.7,2H459l3-7.8h0.9l3,7.8h-1.1
	L464.1,292.7z M461.1,291.8h2.7l-1.3-3.7L461.1,291.8z M467.8,294.7h-1v-8.2h1V294.7z M472.8,293.2c0-0.3-0.1-0.5-0.3-0.6
	c-0.2-0.1-0.6-0.3-1.1-0.4s-0.9-0.2-1.2-0.4s-0.5-0.3-0.7-0.5c-0.1-0.2-0.2-0.5-0.2-0.7c0-0.5,0.2-0.9,0.6-1.2
	c0.4-0.3,0.9-0.5,1.5-0.5c0.7,0,1.2,0.2,1.6,0.5s0.6,0.8,0.6,1.3h-1c0-0.3-0.1-0.5-0.3-0.7c-0.2-0.2-0.5-0.3-0.9-0.3
	s-0.6,0.1-0.8,0.2c-0.2,0.2-0.3,0.4-0.3,0.6s0.1,0.4,0.3,0.5c0.2,0.1,0.5,0.2,1,0.3c0.5,0.1,0.9,0.2,1.2,0.4
	c0.3,0.2,0.5,0.3,0.7,0.6c0.1,0.2,0.2,0.5,0.2,0.8c0,0.5-0.2,0.9-0.6,1.2c-0.4,0.3-1,0.5-1.6,0.5c-0.5,0-0.9-0.1-1.2-0.2
	c-0.4-0.2-0.6-0.4-0.8-0.7c-0.2-0.3-0.3-0.6-0.3-1h1c0,0.3,0.2,0.6,0.4,0.8c0.2,0.2,0.6,0.3,1,0.3s0.7-0.1,0.9-0.2
	C472.7,293.6,472.8,293.4,472.8,293.2z M474.8,291.8c0-0.6,0.1-1.1,0.3-1.5c0.2-0.5,0.5-0.8,0.9-1.1c0.4-0.2,0.9-0.4,1.4-0.4
	c0.8,0,1.4,0.3,1.9,0.8s0.7,1.3,0.7,2.2v0.1c0,0.6-0.1,1.1-0.3,1.5c-0.2,0.4-0.5,0.8-0.9,1.1c-0.4,0.3-0.9,0.4-1.4,0.4
	c-0.8,0-1.4-0.3-1.9-0.8S474.8,292.7,474.8,291.8L474.8,291.8z M475.8,291.9c0,0.6,0.1,1.2,0.4,1.6s0.7,0.6,1.2,0.6s0.9-0.2,1.2-0.6
	c0.3-0.4,0.4-0.9,0.4-1.7c0-0.6-0.2-1.2-0.5-1.5c-0.3-0.4-0.7-0.6-1.2-0.6s-0.9,0.2-1.2,0.6C476,290.6,475.8,291.2,475.8,291.9z
	 M481.3,296.3l-0.6-0.4c0.3-0.5,0.5-1,0.5-1.5v-0.9h1v0.8c0,0.4-0.1,0.7-0.3,1.1C481.8,295.8,481.6,296.1,481.3,296.3z M487.6,287.5
	v1.4h1.1v0.8h-1.1v3.6c0,0.2,0,0.4,0.1,0.5s0.3,0.2,0.5,0.2c0.1,0,0.3,0,0.5-0.1v0.8c-0.3,0.1-0.5,0.1-0.8,0.1c-0.4,0-0.8-0.1-1-0.4
	s-0.3-0.6-0.3-1.1v-3.6h-1.1v-0.8h1.1v-1.4H487.6z M489.5,291.8c0-0.6,0.1-1.1,0.3-1.5c0.2-0.5,0.5-0.8,0.9-1.1
	c0.4-0.2,0.9-0.4,1.4-0.4c0.8,0,1.4,0.3,1.9,0.8s0.7,1.3,0.7,2.2v0.1c0,0.6-0.1,1.1-0.3,1.5c-0.2,0.4-0.5,0.8-0.9,1.1
	c-0.4,0.3-0.9,0.4-1.4,0.4c-0.8,0-1.4-0.3-1.9-0.8S489.5,292.7,489.5,291.8L489.5,291.8z M490.5,291.9c0,0.6,0.1,1.2,0.4,1.6
	s0.7,0.6,1.2,0.6s0.9-0.2,1.2-0.6c0.3-0.4,0.4-0.9,0.4-1.7c0-0.6-0.2-1.2-0.5-1.5c-0.3-0.4-0.7-0.6-1.2-0.6s-0.9,0.2-1.2,0.6
	C490.6,290.6,490.5,291.2,490.5,291.9z M501.1,294c0.4,0,0.7-0.1,0.9-0.3c0.3-0.2,0.4-0.5,0.4-0.8h0.9c0,0.3-0.1,0.6-0.3,1
	c-0.2,0.3-0.5,0.5-0.8,0.7c-0.4,0.2-0.7,0.3-1.1,0.3c-0.8,0-1.4-0.3-1.9-0.8s-0.7-1.3-0.7-2.2v-0.2c0-0.6,0.1-1.1,0.3-1.5
	c0.2-0.4,0.5-0.8,0.9-1s0.8-0.4,1.4-0.4c0.7,0,1.2,0.2,1.6,0.6s0.7,0.9,0.7,1.5h-0.9c0-0.4-0.2-0.7-0.4-0.9
	c-0.3-0.2-0.6-0.4-0.9-0.4c-0.5,0-0.9,0.2-1.2,0.5c-0.3,0.4-0.4,0.9-0.4,1.6v0.2c0,0.7,0.1,1.2,0.4,1.5
	C500.2,293.8,500.6,294,501.1,294z M504.2,291.8c0-0.6,0.1-1.1,0.3-1.5c0.2-0.5,0.5-0.8,0.9-1.1c0.4-0.2,0.9-0.4,1.4-0.4
	c0.8,0,1.4,0.3,1.9,0.8s0.7,1.3,0.7,2.2v0.1c0,0.6-0.1,1.1-0.3,1.5c-0.2,0.4-0.5,0.8-0.9,1.1c-0.4,0.3-0.9,0.4-1.4,0.4
	c-0.8,0-1.4-0.3-1.9-0.8S504.2,292.7,504.2,291.8L504.2,291.8z M505.2,291.9c0,0.6,0.1,1.2,0.4,1.6s0.7,0.6,1.2,0.6s0.9-0.2,1.2-0.6
	c0.3-0.4,0.4-0.9,0.4-1.7c0-0.6-0.2-1.2-0.5-1.5c-0.3-0.4-0.7-0.6-1.2-0.6s-0.9,0.2-1.2,0.6C505.4,290.6,505.2,291.2,505.2,291.9z
	 M511.7,288.9v0.7c0.4-0.6,1-0.8,1.7-0.8c1.2,0,1.8,0.7,1.9,2.1v3.8h-1v-3.8c0-0.4-0.1-0.7-0.3-0.9c-0.2-0.2-0.5-0.3-0.9-0.3
	c-0.3,0-0.6,0.1-0.8,0.3c-0.2,0.2-0.4,0.4-0.6,0.7v4.1h-1V289h1V288.9z M517.2,294.7v-5h-0.9v-0.8h0.9v-0.5c0-0.6,0.2-1.2,0.6-1.5
	c0.4-0.4,0.9-0.5,1.6-0.5c0.4,0,0.9,0.1,1.5,0.3l-0.2,0.8c-0.4-0.2-0.9-0.3-1.3-0.3c-0.4,0-0.7,0.1-0.9,0.3
	c-0.2,0.2-0.3,0.5-0.3,0.9v0.5h1.2v0.8h-1.2v5L517.2,294.7L517.2,294.7z M521.3,294.7h-1v-5.8h1V294.7z M525.7,289.8
	c-0.2,0-0.3,0-0.5,0c-0.7,0-1.1,0.3-1.3,0.8v4.1h-1v-5.8h1v0.7c0.3-0.5,0.8-0.8,1.4-0.8c0.2,0,0.3,0,0.4,0.1L525.7,289.8
	L525.7,289.8z M527.6,288.9v0.6c0.4-0.5,1-0.8,1.7-0.8c0.8,0,1.4,0.3,1.7,0.9c0.2-0.3,0.4-0.5,0.8-0.7c0.3-0.2,0.7-0.3,1.1-0.3
	c1.3,0,1.9,0.7,1.9,2v3.9h-1v-3.8c0-0.4-0.1-0.7-0.3-0.9c-0.2-0.2-0.5-0.3-1-0.3c-0.4,0-0.7,0.1-0.9,0.3c-0.2,0.2-0.4,0.5-0.4,0.9
	v3.9h-1v-3.8c0-0.8-0.4-1.3-1.2-1.3c-0.7,0-1.1,0.3-1.3,0.8v4.2h-1v-5.8h0.9V288.9z M542.6,294.7c-0.1-0.1-0.1-0.3-0.1-0.6
	c-0.5,0.5-1,0.7-1.7,0.7c-0.6,0-1-0.2-1.4-0.5s-0.6-0.7-0.6-1.2c0-0.6,0.2-1.1,0.7-1.4s1.1-0.5,1.9-0.5h1v-0.5
	c0-0.3-0.1-0.6-0.3-0.8c-0.2-0.2-0.5-0.3-0.9-0.3s-0.7,0.1-0.9,0.3c-0.2,0.2-0.4,0.4-0.4,0.6h-1c0-0.3,0.1-0.6,0.3-0.8
	c0.2-0.3,0.5-0.5,0.8-0.6c0.4-0.2,0.7-0.2,1.2-0.2c0.7,0,1.2,0.2,1.6,0.5c0.4,0.3,0.6,0.8,0.6,1.4v2.7c0,0.5,0.1,1,0.2,1.3v0.1h-1
	V294.7z M540.9,294c0.3,0,0.6-0.1,0.9-0.2s0.5-0.4,0.6-0.6V292h-0.8c-1.2,0-1.8,0.4-1.8,1.1c0,0.3,0.1,0.6,0.3,0.7
	C540.4,293.9,540.6,294,540.9,294z M545.9,288.9v0.7c0.4-0.6,1-0.8,1.7-0.8c1.2,0,1.8,0.7,1.9,2.1v3.8h-1v-3.8
	c0-0.4-0.1-0.7-0.3-0.9c-0.2-0.2-0.5-0.3-0.9-0.3c-0.3,0-0.6,0.1-0.8,0.3c-0.2,0.2-0.4,0.4-0.6,0.7v4.1h-1V289h1V288.9z
	 M550.8,291.8c0-0.9,0.2-1.6,0.6-2.2c0.4-0.5,1-0.8,1.7-0.8s1.2,0.2,1.6,0.7v-3h1v8.2h-0.9v-0.6c-0.4,0.5-1,0.7-1.7,0.7
	s-1.2-0.3-1.6-0.8C551,293.5,550.8,292.7,550.8,291.8L550.8,291.8z M551.8,291.9c0,0.7,0.1,1.2,0.4,1.5c0.3,0.4,0.6,0.6,1.1,0.6
	c0.6,0,1.1-0.3,1.4-0.8v-2.7c-0.3-0.5-0.8-0.8-1.4-0.8c-0.5,0-0.9,0.2-1.1,0.6C552,290.6,551.8,291.1,551.8,291.9z"/>
<text transform="matrix(1 0 0 1 245 307.9263)" class="st3 st1 st4">check my location, you are required </text>
<text transform="matrix(1 0 0 1 420 307.9263)" class="st3 st1 st4">t</text>
<text transform="matrix(1 0 0 1 423.5 307.9263)" class="st3 st1 st4">o h</text>
<text transform="matrix(1 0 0 1 438.5 307.9263)" class="st3 st1 st4">a</text>
<text transform="matrix(1 0 0 1 444.4 307.9263)" class="st3 st1 st4">ve internet and text </text>
<text transform="matrix(1 0 0 1 245 321.1265)" class="st3 st1 st4">messages. When using the app, I also noticed that my location </text>
<text transform="matrix(1 0 0 1 245 334.3262)" class="st3 st1 st4">was</text>
<text transform="matrix(1 0 0 1 264.9 334.3262)" class="st3 st1 st4">n</text>
<text transform="matrix(1 0 0 1 270.6 334.3262)" class="st3 st1 st4">’t very accu</text>
<text transform="matrix(1 0 0 1 325.4 334.3262)" class="st3 st1 st4">r</text>
<text transform="matrix(1 0 0 1 329 334.3262)" class="st3 st1 st4">ate. Ove</text>
<text transform="matrix(1 0 0 1 368.7 334.3262)" class="st3 st1 st4">r</text>
<text transform="matrix(1 0 0 1 372.2 334.3262)" class="st3 st1 st4">all, the experience was very intuitive </text>
<path class="st3" d="M249.3,347.5c-0.1-0.1-0.1-0.3-0.1-0.6c-0.5,0.5-1,0.7-1.7,0.7c-0.6,0-1-0.2-1.4-0.5s-0.6-0.7-0.6-1.2
	c0-0.6,0.2-1.1,0.7-1.4s1.1-0.5,1.9-0.5h1v-0.5c0-0.3-0.1-0.6-0.3-0.8c-0.2-0.2-0.5-0.3-0.9-0.3s-0.7,0.1-0.9,0.3
	c-0.2,0.2-0.4,0.4-0.4,0.6h-1c0-0.3,0.1-0.6,0.3-0.8c0.2-0.3,0.5-0.5,0.8-0.6c0.4-0.2,0.7-0.2,1.2-0.2c0.7,0,1.2,0.2,1.6,0.5
	c0.4,0.3,0.6,0.8,0.6,1.4v2.7c0,0.5,0.1,1,0.2,1.3v0.1h-1V347.5z M247.7,346.8c0.3,0,0.6-0.1,0.9-0.2s0.5-0.4,0.6-0.6v-1.2h-0.8
	c-1.2,0-1.8,0.4-1.8,1.1c0,0.3,0.1,0.6,0.3,0.7C247.1,346.7,247.4,346.8,247.7,346.8z M252.7,341.7v0.7c0.4-0.6,1-0.8,1.7-0.8
	c1.2,0,1.8,0.7,1.9,2.1v3.8h-1v-3.8c0-0.4-0.1-0.7-0.3-0.9c-0.2-0.2-0.5-0.3-0.9-0.3c-0.3,0-0.6,0.1-0.8,0.3
	c-0.2,0.2-0.4,0.4-0.6,0.7v4.1h-1v-5.8h1V341.7z M257.6,344.6c0-0.9,0.2-1.6,0.6-2.2c0.4-0.5,1-0.8,1.7-0.8s1.2,0.2,1.6,0.7v-3h1
	v8.2h-0.9v-0.6c-0.4,0.5-1,0.7-1.7,0.7s-1.2-0.3-1.6-0.8C257.8,346.3,257.6,345.5,257.6,344.6L257.6,344.6z M258.6,344.7
	c0,0.7,0.1,1.2,0.4,1.5c0.3,0.4,0.6,0.6,1.1,0.6c0.6,0,1.1-0.3,1.4-0.8v-2.7c-0.3-0.5-0.8-0.8-1.4-0.8c-0.5,0-0.9,0.2-1.1,0.6
	C258.7,343.4,258.6,343.9,258.6,344.7z M268.1,340.3v1.4h1.1v0.8h-1.1v3.6c0,0.2,0,0.4,0.1,0.5s0.3,0.2,0.5,0.2c0.1,0,0.3,0,0.5-0.1
	v0.8c-0.3,0.1-0.5,0.1-0.8,0.1c-0.4,0-0.8-0.1-1-0.4s-0.3-0.6-0.3-1.1v-3.6H266v-0.8h1.1v-1.4H268.1z M271.3,342.4
	c0.4-0.5,1-0.8,1.7-0.8c1.2,0,1.8,0.7,1.9,2.1v3.8h-1v-3.8c0-0.4-0.1-0.7-0.3-0.9c-0.2-0.2-0.5-0.3-0.9-0.3c-0.3,0-0.6,0.1-0.8,0.3
	c-0.2,0.2-0.4,0.4-0.6,0.7v4.1h-1v-8.2h1L271.3,342.4L271.3,342.4z M281,346.5c-0.5,0.7-1.2,1.1-2.2,1.1c-0.8,0-1.4-0.3-1.9-0.8
	s-0.7-1.2-0.7-2.1v-0.2c0-0.6,0.1-1.1,0.3-1.5c0.2-0.5,0.5-0.8,0.9-1.1c0.4-0.3,0.8-0.4,1.3-0.4c0.8,0,1.3,0.2,1.8,0.7
	c0.4,0.5,0.6,1.2,0.6,2.1v0.4h-3.9c0,0.6,0.2,1,0.5,1.4s0.7,0.5,1.2,0.5c0.4,0,0.6-0.1,0.9-0.2c0.2-0.1,0.5-0.3,0.6-0.6L281,346.5
	L281,346.5z M278.7,342.4c-0.4,0-0.7,0.1-1,0.4s-0.4,0.7-0.5,1.2h2.9l0,0c0-0.5-0.2-0.9-0.4-1.2
	C279.4,342.6,279.1,342.4,278.7,342.4z M288.3,346c0-0.3-0.1-0.5-0.3-0.6c-0.2-0.1-0.6-0.3-1.1-0.4s-0.9-0.2-1.2-0.4
	s-0.5-0.3-0.7-0.5c-0.1-0.2-0.2-0.5-0.2-0.7c0-0.5,0.2-0.9,0.6-1.2c0.4-0.3,0.9-0.5,1.5-0.5c0.7,0,1.2,0.2,1.6,0.5s0.6,0.8,0.6,1.3
	h-1c0-0.3-0.1-0.5-0.3-0.7c-0.2-0.2-0.5-0.3-0.9-0.3s-0.6,0.1-0.8,0.2c-0.2,0.2-0.3,0.4-0.3,0.6s0.1,0.4,0.3,0.5
	c0.2,0.1,0.5,0.2,1,0.3c0.5,0.1,0.9,0.2,1.2,0.4c0.3,0.2,0.5,0.3,0.7,0.6c0.1,0.2,0.2,0.5,0.2,0.8c0,0.5-0.2,0.9-0.6,1.2
	c-0.4,0.3-1,0.5-1.6,0.5c-0.5,0-0.9-0.1-1.2-0.2c-0.4-0.2-0.6-0.4-0.8-0.7c-0.2-0.3-0.3-0.6-0.3-1h1c0,0.3,0.2,0.6,0.4,0.8
	c0.2,0.2,0.6,0.3,1,0.3s0.7-0.1,0.9-0.2C288.2,346.4,288.3,346.2,288.3,346z M291.6,342.4c0.4-0.5,1-0.8,1.7-0.8
	c1.2,0,1.8,0.7,1.9,2.1v3.8h-1v-3.8c0-0.4-0.1-0.7-0.3-0.9c-0.2-0.2-0.5-0.3-0.9-0.3c-0.3,0-0.6,0.1-0.8,0.3
	c-0.2,0.2-0.4,0.4-0.6,0.7v4.1h-1v-8.2h1L291.6,342.4L291.6,342.4z M296.4,344.6c0-0.6,0.1-1.1,0.3-1.5c0.2-0.5,0.5-0.8,0.9-1.1
	c0.4-0.2,0.9-0.4,1.4-0.4c0.8,0,1.4,0.3,1.9,0.8s0.7,1.3,0.7,2.2v0.1c0,0.6-0.1,1.1-0.3,1.5c-0.2,0.4-0.5,0.8-0.9,1.1
	c-0.4,0.3-0.9,0.4-1.4,0.4c-0.8,0-1.4-0.3-1.9-0.8S296.4,345.5,296.4,344.6L296.4,344.6z M297.4,344.7c0,0.6,0.1,1.2,0.4,1.6
	s0.7,0.6,1.2,0.6s0.9-0.2,1.2-0.6c0.3-0.4,0.4-0.9,0.4-1.7c0-0.6-0.2-1.2-0.5-1.5c-0.3-0.4-0.7-0.6-1.2-0.6s-0.9,0.2-1.2,0.6
	C297.6,343.4,297.4,344,297.4,344.7z M305.8,342.6c-0.2,0-0.3,0-0.5,0c-0.7,0-1.1,0.3-1.3,0.8v4.1h-1v-5.8h1v0.7
	c0.3-0.5,0.8-0.8,1.4-0.8c0.2,0,0.3,0,0.4,0.1V342.6z M308.3,340.3v1.4h1.1v0.8h-1.1v3.6c0,0.2,0,0.4,0.1,0.5s0.3,0.2,0.5,0.2
	c0.1,0,0.3,0,0.5-0.1v0.8c-0.3,0.1-0.5,0.1-0.8,0.1c-0.4,0-0.8-0.1-1-0.4s-0.3-0.6-0.3-1.1v-3.6h-1.1v-0.8h1.1v-1.4H308.3z
	 M314.6,340.3v1.4h1.1v0.8h-1.1v3.6c0,0.2,0,0.4,0.1,0.5s0.3,0.2,0.5,0.2c0.1,0,0.3,0,0.5-0.1v0.8c-0.3,0.1-0.5,0.1-0.8,0.1
	c-0.4,0-0.8-0.1-1-0.4s-0.3-0.6-0.3-1.1v-3.6h-1.1v-0.8h1.1v-1.4H314.6z M320.4,347c-0.4,0.5-1,0.7-1.7,0.7c-0.6,0-1.1-0.2-1.4-0.5
	c-0.3-0.4-0.5-0.9-0.5-1.6v-3.8h1v3.8c0,0.9,0.4,1.3,1.1,1.3c0.8,0,1.3-0.3,1.5-0.8v-4.2h1v5.8h-0.9L320.4,347z M324.3,340.3v1.4
	h1.1v0.8h-1.1v3.6c0,0.2,0,0.4,0.1,0.5s0.3,0.2,0.5,0.2c0.1,0,0.3,0,0.5-0.1v0.8c-0.3,0.1-0.5,0.1-0.8,0.1c-0.4,0-0.8-0.1-1-0.4
	s-0.3-0.6-0.3-1.1v-3.6h-1.1v-0.8h1.1v-1.4H324.3z M326.1,344.6c0-0.6,0.1-1.1,0.3-1.5c0.2-0.5,0.5-0.8,0.9-1.1
	c0.4-0.2,0.9-0.4,1.4-0.4c0.8,0,1.4,0.3,1.9,0.8s0.7,1.3,0.7,2.2v0.1c0,0.6-0.1,1.1-0.3,1.5c-0.2,0.4-0.5,0.8-0.9,1.1
	c-0.4,0.3-0.9,0.4-1.4,0.4c-0.8,0-1.4-0.3-1.9-0.8S326.1,345.5,326.1,344.6L326.1,344.6z M327.1,344.7c0,0.6,0.1,1.2,0.4,1.6
	s0.7,0.6,1.2,0.6s0.9-0.2,1.2-0.6c0.3-0.4,0.4-0.9,0.4-1.7c0-0.6-0.2-1.2-0.5-1.5c-0.3-0.4-0.7-0.6-1.2-0.6s-0.9,0.2-1.2,0.6
	C327.3,343.4,327.1,344,327.1,344.7z M335.5,342.6c-0.2,0-0.3,0-0.5,0c-0.7,0-1.1,0.3-1.3,0.8v4.1h-1v-5.8h1v0.7
	c0.3-0.5,0.8-0.8,1.4-0.8c0.2,0,0.3,0,0.4,0.1V342.6z M336.4,340.2c0-0.2,0-0.3,0.1-0.4s0.2-0.2,0.4-0.2s0.3,0.1,0.4,0.2
	s0.2,0.2,0.2,0.4s-0.1,0.3-0.2,0.4s-0.2,0.2-0.4,0.2s-0.3-0.1-0.4-0.2S336.4,340.3,336.4,340.2z M337.5,347.5h-1v-5.8h1V347.5z
	 M342.6,347.5c-0.1-0.1-0.1-0.3-0.1-0.6c-0.5,0.5-1,0.7-1.7,0.7c-0.6,0-1-0.2-1.4-0.5s-0.6-0.7-0.6-1.2c0-0.6,0.2-1.1,0.7-1.4
	s1.1-0.5,1.9-0.5h1v-0.5c0-0.3-0.1-0.6-0.3-0.8c-0.2-0.2-0.5-0.3-0.9-0.3s-0.7,0.1-0.9,0.3c-0.2,0.2-0.4,0.4-0.4,0.6h-1
	c0-0.3,0.1-0.6,0.3-0.8c0.2-0.3,0.5-0.5,0.8-0.6c0.4-0.2,0.7-0.2,1.2-0.2c0.7,0,1.2,0.2,1.6,0.5s0.6,0.8,0.6,1.4v2.7
	c0,0.5,0.1,1,0.2,1.3v0.1h-1V347.5z M341,346.8c0.3,0,0.6-0.1,0.9-0.2s0.5-0.4,0.6-0.6v-1.2h-0.8c-1.2,0-1.8,0.4-1.8,1.1
	c0,0.3,0.1,0.6,0.3,0.7C340.4,346.7,340.7,346.8,341,346.8z M346.1,347.5h-1v-8.2h1V347.5z M355.6,346.2l1.1-4.4h1l-1.7,5.8h-0.8
	l-1.4-4.4l-1.4,4.4h-0.8l-1.7-5.8h1l1.1,4.4l1.4-4.4h0.8L355.6,346.2z M359.7,342.4c0.4-0.5,1-0.8,1.7-0.8c1.2,0,1.8,0.7,1.9,2.1
	v3.8h-1v-3.8c0-0.4-0.1-0.7-0.3-0.9c-0.2-0.2-0.5-0.3-0.9-0.3c-0.3,0-0.6,0.1-0.8,0.3c-0.2,0.2-0.4,0.4-0.6,0.7v4.1h-1v-8.2h1
	L359.7,342.4L359.7,342.4z M369.4,346.5c-0.5,0.7-1.2,1.1-2.2,1.1c-0.8,0-1.4-0.3-1.9-0.8s-0.7-1.2-0.7-2.1v-0.2
	c0-0.6,0.1-1.1,0.3-1.5c0.2-0.5,0.5-0.8,0.9-1.1c0.4-0.3,0.8-0.4,1.3-0.4c0.8,0,1.3,0.2,1.8,0.7c0.4,0.5,0.6,1.2,0.6,2.1v0.4h-3.9
	c0,0.6,0.2,1,0.5,1.4s0.7,0.5,1.2,0.5c0.4,0,0.6-0.1,0.9-0.2c0.2-0.1,0.5-0.3,0.6-0.6L369.4,346.5L369.4,346.5z M367,342.4
	c-0.4,0-0.7,0.1-1,0.4s-0.4,0.7-0.5,1.2h2.9l0,0c0-0.5-0.2-0.9-0.4-1.2C367.8,342.6,367.5,342.4,367,342.4z M371.5,341.7v0.7
	c0.4-0.6,1-0.8,1.7-0.8c1.2,0,1.8,0.7,1.9,2.1v3.8h-1v-3.8c0-0.4-0.1-0.7-0.3-0.9c-0.2-0.2-0.5-0.3-0.9-0.3c-0.3,0-0.6,0.1-0.8,0.3
	c-0.2,0.2-0.4,0.4-0.6,0.7v4.1h-1v-5.8h1V341.7z M381.3,346.1l1.4-4.4h1.1l-2.3,6.7c-0.4,1-0.9,1.5-1.7,1.5h-0.2l-0.4-0.1V349h0.3
	c0.3,0,0.6-0.1,0.8-0.2c0.2-0.1,0.3-0.4,0.5-0.7l0.2-0.6l-2.1-5.7h1.1L381.3,346.1z M384.3,344.6c0-0.6,0.1-1.1,0.3-1.5
	c0.2-0.5,0.5-0.8,0.9-1.1c0.4-0.2,0.9-0.4,1.4-0.4c0.8,0,1.4,0.3,1.9,0.8s0.7,1.3,0.7,2.2v0.1c0,0.6-0.1,1.1-0.3,1.5
	c-0.2,0.4-0.5,0.8-0.9,1.1c-0.4,0.3-0.9,0.4-1.4,0.4c-0.8,0-1.4-0.3-1.9-0.8S384.3,345.5,384.3,344.6L384.3,344.6z M385.3,344.7
	c0,0.6,0.1,1.2,0.4,1.6s0.7,0.6,1.2,0.6s0.9-0.2,1.2-0.6c0.3-0.4,0.4-0.9,0.4-1.7c0-0.6-0.2-1.2-0.5-1.5c-0.3-0.4-0.7-0.6-1.2-0.6
	s-0.9,0.2-1.2,0.6C385.5,343.4,385.3,344,385.3,344.7z M394.4,347c-0.4,0.5-1,0.7-1.7,0.7c-0.6,0-1.1-0.2-1.4-0.5
	c-0.3-0.4-0.5-0.9-0.5-1.6v-3.8h1v3.8c0,0.9,0.4,1.3,1.1,1.3c0.8,0,1.3-0.3,1.5-0.8v-4.2h1v5.8h-0.9L394.4,347z M400,347.5v-5h-0.9
	v-0.8h0.9v-0.5c0-0.6,0.2-1.2,0.6-1.5c0.4-0.4,0.9-0.5,1.6-0.5c0.4,0,0.9,0.1,1.5,0.3l-0.2,0.8c-0.4-0.2-0.9-0.3-1.3-0.3
	s-0.7,0.1-0.9,0.3c-0.2,0.2-0.3,0.5-0.3,0.9v0.5h1.2v0.8H401v5L400,347.5L400,347.5z M404.1,347.5h-1v-5.8h1V347.5z M408.6,342.6
	c-0.2,0-0.3,0-0.5,0c-0.7,0-1.1,0.3-1.3,0.8v4.1h-1v-5.8h1v0.7c0.3-0.5,0.8-0.8,1.4-0.8c0.2,0,0.3,0,0.4,0.1V342.6z M412.8,346
	c0-0.3-0.1-0.5-0.3-0.6c-0.2-0.1-0.6-0.3-1.1-0.4s-0.9-0.2-1.2-0.4s-0.5-0.3-0.7-0.5c-0.1-0.2-0.2-0.5-0.2-0.7
	c0-0.5,0.2-0.9,0.6-1.2c0.4-0.3,0.9-0.5,1.5-0.5c0.7,0,1.2,0.2,1.6,0.5s0.6,0.8,0.6,1.3h-1c0-0.3-0.1-0.5-0.3-0.7
	c-0.2-0.2-0.5-0.3-0.9-0.3s-0.6,0.1-0.8,0.2c-0.2,0.2-0.3,0.4-0.3,0.6s0.1,0.4,0.3,0.5c0.2,0.1,0.5,0.2,1,0.3
	c0.5,0.1,0.9,0.2,1.2,0.4c0.3,0.2,0.5,0.3,0.7,0.6c0.1,0.2,0.2,0.5,0.2,0.8c0,0.5-0.2,0.9-0.6,1.2c-0.4,0.3-1,0.5-1.6,0.5
	c-0.5,0-0.9-0.1-1.2-0.2c-0.4-0.2-0.6-0.4-0.8-0.7c-0.2-0.3-0.3-0.6-0.3-1h1c0,0.3,0.2,0.6,0.4,0.8c0.2,0.2,0.6,0.3,1,0.3
	s0.7-0.1,0.9-0.2C412.7,346.4,412.8,346.2,412.8,346z M416.5,340.3v1.4h1.1v0.8h-1.1v3.6c0,0.2,0,0.4,0.1,0.5s0.3,0.2,0.5,0.2
	c0.1,0,0.3,0,0.5-0.1v0.8c-0.3,0.1-0.5,0.1-0.8,0.1c-0.4,0-0.8-0.1-1-0.4s-0.3-0.6-0.3-1.1v-3.6h-1.1v-0.8h1.1v-1.4H416.5z
	 M421.2,344.6c0-0.9,0.2-1.6,0.6-2.2c0.4-0.5,1-0.8,1.7-0.8s1.2,0.2,1.6,0.7v-3h1v8.2h-0.9v-0.6c-0.4,0.5-1,0.7-1.7,0.7
	s-1.2-0.3-1.6-0.8C421.4,346.3,421.2,345.5,421.2,344.6L421.2,344.6z M422.2,344.7c0,0.7,0.1,1.2,0.4,1.5c0.3,0.4,0.6,0.6,1.1,0.6
	c0.6,0,1.1-0.3,1.4-0.8v-2.7c-0.3-0.5-0.8-0.8-1.4-0.8c-0.5,0-0.9,0.2-1.1,0.6C422.3,343.4,422.2,343.9,422.2,344.7z M427.4,344.6
	c0-0.6,0.1-1.1,0.3-1.5c0.2-0.5,0.5-0.8,0.9-1.1c0.4-0.2,0.9-0.4,1.4-0.4c0.8,0,1.4,0.3,1.9,0.8s0.7,1.3,0.7,2.2v0.1
	c0,0.6-0.1,1.1-0.3,1.5c-0.2,0.4-0.5,0.8-0.9,1.1c-0.4,0.3-0.9,0.4-1.4,0.4c-0.8,0-1.4-0.3-1.9-0.8S427.4,345.5,427.4,344.6
	L427.4,344.6z M428.4,344.7c0,0.6,0.1,1.2,0.4,1.6s0.7,0.6,1.2,0.6s0.9-0.2,1.2-0.6c0.3-0.4,0.4-0.9,0.4-1.7c0-0.6-0.2-1.2-0.5-1.5
	c-0.3-0.4-0.7-0.6-1.2-0.6s-0.9,0.2-1.2,0.6C428.6,343.4,428.4,344,428.4,344.7z M439.1,346.2l1.1-4.4h1l-1.7,5.8h-0.8l-1.4-4.4
	l-1.4,4.4h-0.8l-1.7-5.8h1l1.1,4.4l1.4-4.4h0.8L439.1,346.2z M443.1,341.7v0.7c0.4-0.6,1-0.8,1.7-0.8c1.2,0,1.8,0.7,1.9,2.1v3.8h-1
	v-3.8c0-0.4-0.1-0.7-0.3-0.9c-0.2-0.2-0.5-0.3-0.9-0.3c-0.3,0-0.6,0.1-0.8,0.3c-0.2,0.2-0.4,0.4-0.6,0.7v4.1h-1v-5.8h1V341.7z
	 M449.3,347.5h-1v-8.2h1V347.5z M450.7,344.6c0-0.6,0.1-1.1,0.3-1.5c0.2-0.5,0.5-0.8,0.9-1.1c0.4-0.2,0.9-0.4,1.4-0.4
	c0.8,0,1.4,0.3,1.9,0.8s0.7,1.3,0.7,2.2v0.1c0,0.6-0.1,1.1-0.3,1.5c-0.2,0.4-0.5,0.8-0.9,1.1c-0.4,0.3-0.9,0.4-1.4,0.4
	c-0.8,0-1.4-0.3-1.9-0.8S450.7,345.5,450.7,344.6L450.7,344.6z M451.7,344.7c0,0.6,0.1,1.2,0.4,1.6s0.7,0.6,1.2,0.6s0.9-0.2,1.2-0.6
	c0.3-0.4,0.4-0.9,0.4-1.7c0-0.6-0.2-1.2-0.5-1.5c-0.3-0.4-0.7-0.6-1.2-0.6s-0.9,0.2-1.2,0.6C451.8,343.4,451.7,344,451.7,344.7z
	 M460.8,347.5c-0.1-0.1-0.1-0.3-0.1-0.6c-0.5,0.5-1,0.7-1.7,0.7c-0.6,0-1-0.2-1.4-0.5s-0.6-0.7-0.6-1.2c0-0.6,0.2-1.1,0.7-1.4
	s1.1-0.5,1.9-0.5h1v-0.5c0-0.3-0.1-0.6-0.3-0.8c-0.2-0.2-0.5-0.3-0.9-0.3s-0.7,0.1-0.9,0.3c-0.2,0.2-0.4,0.4-0.4,0.6h-1
	c0-0.3,0.1-0.6,0.3-0.8c0.2-0.3,0.5-0.5,0.8-0.6c0.4-0.2,0.7-0.2,1.2-0.2c0.7,0,1.2,0.2,1.6,0.5s0.6,0.8,0.6,1.4v2.7
	c0,0.5,0.1,1,0.2,1.3v0.1h-1V347.5z M459.2,346.8c0.3,0,0.6-0.1,0.9-0.2s0.5-0.4,0.6-0.6v-1.2h-0.8c-1.2,0-1.8,0.4-1.8,1.1
	c0,0.3,0.1,0.6,0.3,0.7C458.6,346.7,458.8,346.8,459.2,346.8z M463,344.6c0-0.9,0.2-1.6,0.6-2.2c0.4-0.5,1-0.8,1.7-0.8
	s1.2,0.2,1.6,0.7v-3h1v8.2H467v-0.6c-0.4,0.5-1,0.7-1.7,0.7s-1.2-0.3-1.6-0.8C463.2,346.3,463,345.5,463,344.6L463,344.6z
	 M463.9,344.7c0,0.7,0.1,1.2,0.4,1.5c0.3,0.4,0.6,0.6,1.1,0.6c0.6,0,1.1-0.3,1.4-0.8v-2.7c-0.3-0.5-0.8-0.8-1.4-0.8
	c-0.5,0-0.9,0.2-1.1,0.6C464.1,343.4,463.9,343.9,463.9,344.7z M473.5,340.3v1.4h1.1v0.8h-1.1v3.6c0,0.2,0,0.4,0.1,0.5
	s0.3,0.2,0.5,0.2c0.1,0,0.3,0,0.5-0.1v0.8c-0.3,0.1-0.5,0.1-0.8,0.1c-0.4,0-0.8-0.1-1-0.4s-0.3-0.6-0.3-1.1v-3.6h-1.1v-0.8h1.1v-1.4
	H473.5z M476.7,342.4c0.4-0.5,1-0.8,1.7-0.8c1.2,0,1.8,0.7,1.9,2.1v3.8h-1v-3.8c0-0.4-0.1-0.7-0.3-0.9c-0.2-0.2-0.5-0.3-0.9-0.3
	c-0.3,0-0.6,0.1-0.8,0.3c-0.2,0.2-0.4,0.4-0.6,0.7v4.1h-1v-8.2h1L476.7,342.4L476.7,342.4z M486.4,346.5c-0.5,0.7-1.2,1.1-2.2,1.1
	c-0.8,0-1.4-0.3-1.9-0.8s-0.7-1.2-0.7-2.1v-0.2c0-0.6,0.1-1.1,0.3-1.5c0.2-0.5,0.5-0.8,0.9-1.1c0.4-0.3,0.8-0.4,1.3-0.4
	c0.8,0,1.3,0.2,1.8,0.7c0.4,0.5,0.6,1.2,0.6,2.1v0.4h-3.9c0,0.6,0.2,1,0.5,1.4s0.7,0.5,1.2,0.5c0.4,0,0.6-0.1,0.9-0.2
	c0.2-0.1,0.5-0.3,0.6-0.6L486.4,346.5L486.4,346.5z M484.1,342.4c-0.4,0-0.7,0.1-1,0.4s-0.4,0.7-0.5,1.2h2.9l0,0
	c0-0.5-0.2-0.9-0.4-1.2C484.8,342.6,484.5,342.4,484.1,342.4z M493.9,347.5c-0.1-0.1-0.1-0.3-0.1-0.6c-0.5,0.5-1,0.7-1.7,0.7
	c-0.6,0-1-0.2-1.4-0.5s-0.6-0.7-0.6-1.2c0-0.6,0.2-1.1,0.7-1.4s1.1-0.5,1.9-0.5h1v-0.5c0-0.3-0.1-0.6-0.3-0.8
	c-0.2-0.2-0.5-0.3-0.9-0.3s-0.7,0.1-0.9,0.3c-0.2,0.2-0.4,0.4-0.4,0.6h-1c0-0.3,0.1-0.6,0.3-0.8c0.2-0.3,0.5-0.5,0.8-0.6
	c0.4-0.2,0.7-0.2,1.2-0.2c0.7,0,1.2,0.2,1.6,0.5s0.6,0.8,0.6,1.4v2.7c0,0.5,0.1,1,0.2,1.3v0.1h-1V347.5z M492.3,346.8
	c0.3,0,0.6-0.1,0.9-0.2s0.5-0.4,0.6-0.6v-1.2H493c-1.2,0-1.8,0.4-1.8,1.1c0,0.3,0.1,0.6,0.3,0.7C491.7,346.7,492,346.8,492.3,346.8z
	 M501.2,344.7c0,0.9-0.2,1.6-0.6,2.1s-1,0.8-1.6,0.8c-0.7,0-1.3-0.2-1.7-0.7v2.8h-1v-8h0.9v0.6c0.4-0.5,1-0.8,1.7-0.8
	s1.3,0.3,1.7,0.8C501,342.9,501.2,343.7,501.2,344.7L501.2,344.7z M500.2,344.6c0-0.7-0.1-1.2-0.4-1.6s-0.7-0.6-1.1-0.6
	c-0.6,0-1.1,0.3-1.4,0.8v2.8c0.3,0.5,0.8,0.8,1.4,0.8c0.5,0,0.9-0.2,1.1-0.6C500.1,345.9,500.2,345.3,500.2,344.6z M507.4,344.7
	c0,0.9-0.2,1.6-0.6,2.1s-1,0.8-1.6,0.8c-0.7,0-1.3-0.2-1.7-0.7v2.8h-1v-8h0.9v0.6c0.4-0.5,1-0.8,1.7-0.8s1.3,0.3,1.7,0.8
	C507.2,342.9,507.4,343.7,507.4,344.7L507.4,344.7z M506.4,344.6c0-0.7-0.1-1.2-0.4-1.6s-0.7-0.6-1.1-0.6c-0.6,0-1.1,0.3-1.4,0.8
	v2.8c0.3,0.5,0.8,0.8,1.4,0.8c0.5,0,0.9-0.2,1.1-0.6C506.3,345.9,506.4,345.3,506.4,344.6z M511.4,340.2c0-0.2,0-0.3,0.1-0.4
	s0.2-0.2,0.4-0.2s0.3,0.1,0.4,0.2s0.2,0.2,0.2,0.4s-0.1,0.3-0.2,0.4c-0.1,0.1-0.2,0.2-0.4,0.2s-0.3-0.1-0.4-0.2
	C511.5,340.5,511.4,340.3,511.4,340.2z M512.5,347.5h-1v-5.8h1V347.5z M517.5,346c0-0.3-0.1-0.5-0.3-0.6s-0.6-0.3-1.1-0.4
	s-0.9-0.2-1.2-0.4s-0.5-0.3-0.7-0.5c-0.1-0.2-0.2-0.5-0.2-0.7c0-0.5,0.2-0.9,0.6-1.2c0.4-0.3,0.9-0.5,1.5-0.5c0.7,0,1.2,0.2,1.6,0.5
	c0.4,0.3,0.6,0.8,0.6,1.3h-1c0-0.3-0.1-0.5-0.3-0.7s-0.5-0.3-0.9-0.3s-0.6,0.1-0.8,0.2c-0.2,0.2-0.3,0.4-0.3,0.6s0.1,0.4,0.3,0.5
	s0.5,0.2,1,0.3c0.5,0.1,0.9,0.2,1.2,0.4c0.3,0.2,0.5,0.3,0.7,0.6c0.1,0.2,0.2,0.5,0.2,0.8c0,0.5-0.2,0.9-0.6,1.2
	c-0.4,0.3-1,0.5-1.6,0.5c-0.5,0-0.9-0.1-1.2-0.2c-0.4-0.2-0.6-0.4-0.8-0.7c-0.2-0.3-0.3-0.6-0.3-1h1c0,0.3,0.2,0.6,0.4,0.8
	c0.2,0.2,0.6,0.3,1,0.3s0.7-0.1,0.9-0.2C517.3,346.4,517.5,346.2,517.5,346z M523.5,342.4c0.4-0.5,1-0.8,1.7-0.8
	c1.2,0,1.8,0.7,1.9,2.1v3.8h-1v-3.8c0-0.4-0.1-0.7-0.3-0.9c-0.2-0.2-0.5-0.3-0.9-0.3c-0.3,0-0.6,0.1-0.8,0.3
	c-0.2,0.2-0.4,0.4-0.6,0.7v4.1h-1v-8.2h1L523.5,342.4L523.5,342.4z M533.1,346.5c-0.5,0.7-1.2,1.1-2.2,1.1c-0.8,0-1.4-0.3-1.9-0.8
	s-0.7-1.2-0.7-2.1v-0.2c0-0.6,0.1-1.1,0.3-1.5c0.2-0.5,0.5-0.8,0.9-1.1c0.4-0.3,0.8-0.4,1.3-0.4c0.8,0,1.3,0.2,1.8,0.7
	c0.4,0.5,0.6,1.2,0.6,2.1v0.4h-3.9c0,0.6,0.2,1,0.5,1.4s0.7,0.5,1.2,0.5c0.4,0,0.6-0.1,0.9-0.2c0.2-0.1,0.5-0.3,0.6-0.6L533.1,346.5
	L533.1,346.5z M530.8,342.4c-0.4,0-0.7,0.1-1,0.4s-0.4,0.7-0.5,1.2h2.9l0,0c0-0.5-0.2-0.9-0.4-1.2
	C531.6,342.6,531.2,342.4,530.8,342.4z M535.4,347.5h-1v-8.2h1V347.5z M541.9,344.7c0,0.9-0.2,1.6-0.6,2.1c-0.4,0.5-1,0.8-1.6,0.8
	c-0.7,0-1.3-0.2-1.7-0.7v2.8h-1v-8h0.9v0.6c0.4-0.5,1-0.8,1.7-0.8s1.3,0.3,1.7,0.8C541.7,342.9,541.9,343.7,541.9,344.7L541.9,344.7
	z M541,344.6c0-0.7-0.1-1.2-0.4-1.6c-0.3-0.4-0.7-0.6-1.1-0.6c-0.6,0-1.1,0.3-1.4,0.8v2.8c0.3,0.5,0.8,0.8,1.4,0.8
	c0.5,0,0.9-0.2,1.1-0.6C540.8,345.9,541,345.3,541,344.6z M543.7,347.5v-5h-0.9v-0.8h0.9v-0.6c0-0.6,0.2-1.1,0.5-1.4
	s0.8-0.5,1.4-0.5c0.2,0,0.5,0,0.7,0.1l-0.1,0.8c-0.2,0-0.3,0-0.5,0c-0.3,0-0.6,0.1-0.7,0.3c-0.2,0.2-0.3,0.5-0.3,0.8v0.6h1.2v0.8
	h-1.2v5L543.7,347.5L543.7,347.5z M550.6,347c-0.4,0.5-1,0.7-1.7,0.7c-0.6,0-1.1-0.2-1.4-0.5c-0.3-0.4-0.5-0.9-0.5-1.6v-3.8h1v3.8
	c0,0.9,0.4,1.3,1.1,1.3c0.8,0,1.3-0.3,1.5-0.8v-4.2h1v5.8h-0.9L550.6,347z M554.2,347.5h-1v-8.2h1V347.5z M555.8,347
	c0-0.2,0.1-0.3,0.2-0.4c0.1-0.1,0.3-0.2,0.5-0.2s0.4,0.1,0.5,0.2s0.2,0.3,0.2,0.4c0,0.2-0.1,0.3-0.2,0.4c-0.1,0.1-0.3,0.2-0.5,0.2
	s-0.4-0.1-0.5-0.2S555.8,347.2,555.8,347z"/>
<text transform="matrix(1 0 0 1 245 360.7266)" class="st3 st1 st4">How</text>
<text transform="matrix(1 0 0 1 267.4 360.7266)" class="st3 st1 st4">e</text>
<text transform="matrix(1 0 0 1 273.2 360.7266)" class="st3 st1 st4">ve</text>
<text transform="matrix(1 0 0 1 284.3 360.7266)" class="st3 st1 st4">r</text>
<text transform="matrix(1 0 0 1 287.4 360.7266)" class="st3 st1 st4">, there are some technical p</text>
<text transform="matrix(1 0 0 1 421.7 360.7266)" class="st3 st1 st4">r</text>
<text transform="matrix(1 0 0 1 425.3 360.7266)" class="st3 st1 st4">oblems that makes this app </text>
<text transform="matrix(1 0 0 1 245 373.9263)" class="st3 st1 st4">harder and inconvenient </text>
<text transform="matrix(1 0 0 1 365.2 373.9263)" class="st3 st1 st4">t</text>
<text transform="matrix(1 0 0 1 368.6 373.9263)" class="st3 st1 st4">o use. </text>
<text transform="matrix(1 0 0 1 245 428.5264)" class="st3 st1 st4">“bSaf</text>
<text transform="matrix(1 0 0 1 271.4 428.5264)" class="st3 st1 st4">e</text>
<text transform="matrix(1 0 0 1 277.1 428.5264)" class="st3 st1 st4">” is another companion app. Although this app made their </text>
<text transform="matrix(1 0 0 1 245 441.7266)" class="st3 st1 st4">premium features free, there are still p</text>
<text transform="matrix(1 0 0 1 430.9 441.7266)" class="st3 st1 st4">r</text>
<text transform="matrix(1 0 0 1 434.5 441.7266)" class="st3 st1 st4">oblems I faced when </text>
<text transform="matrix(1 0 0 1 245 454.9268)" class="st3 st1 st4">downloading and using the app. </text>
<text transform="matrix(1 0 0 1 403.1 454.9268)" class="st3 st1 st4">F</text>
<text transform="matrix(1 0 0 1 409 454.9268)" class="st3 st1 st4">or instance, when you are on </text>
<text transform="matrix(1 0 0 1 245 468.126)" class="st3 st1 st4">the app, it changes the appea</text>
<text transform="matrix(1 0 0 1 388 468.126)" class="st3 st1 st4">r</text>
<text transform="matrix(1 0 0 1 391.5 468.126)" class="st3 st1 st4">ance of the keyboard and normal </text>
<text transform="matrix(1 0 0 1 245 481.3262)" class="st3 st1 st4">Apple UI, the text is bigger and bolded. Also, when I created an </text>
<text transform="matrix(1 0 0 1 245 494.5264)" class="st3 st1 st4">account and entered the app, they had a quick tu</text>
<text transform="matrix(1 0 0 1 481.2 494.5264)" class="st3 st1 st4">t</text>
<text transform="matrix(1 0 0 1 484.6 494.5264)" class="st3 st1 st4">orial page, </text>
<text transform="matrix(1 0 0 1 245 507.7266)" class="st3 st1 st4">which was helpful. How</text>
<text transform="matrix(1 0 0 1 360.5 507.7266)" class="st3 st1 st4">e</text>
<text transform="matrix(1 0 0 1 366.2 507.7266)" class="st3 st1 st4">ve</text>
<text transform="matrix(1 0 0 1 377.4 507.7266)" class="st3 st1 st4">r</text>
<text transform="matrix(1 0 0 1 380.4 507.7266)" class="st3 st1 st4">, the tu</text>
<text transform="matrix(1 0 0 1 413.2 507.7266)" class="st3 st1 st4">t</text>
<text transform="matrix(1 0 0 1 416.7 507.7266)" class="st3 st1 st4">orial page had </text>
<text transform="matrix(1 0 0 1 488.5 507.7266)" class="st3 st1 st4">t</text>
<text transform="matrix(1 0 0 1 492 507.7266)" class="st3 st1 st4">oo much </text>
<text transform="matrix(1 0 0 1 245 520.9268)" class="st3 st1 st4">information, which made it less intuitive. Also, once you enter the </text>
<text transform="matrix(1 0 0 1 245 534.126)" class="st3 st1 st4">app, you are required </text>
<text transform="matrix(1 0 0 1 349.7 534.126)" class="st3 st1 st4">t</text>
<text transform="matrix(1 0 0 1 353.2 534.126)" class="st3 st1 st4">o enter 6 contacts, which is not effective </text>
<text transform="matrix(1 0 0 1 245 547.3262)" class="st3 st1 st4">if you h</text>
<text transform="matrix(1 0 0 1 280.5 547.3262)" class="st3 st1 st4">a</text>
<text transform="matrix(1 0 0 1 286.4 547.3262)" class="st3 st1 st4">ve very few friends or l</text>
<text transform="matrix(1 0 0 1 395.9 547.3262)" class="st3 st1 st4">o</text>
<text transform="matrix(1 0 0 1 402 547.3262)" class="st3 st1 st4">ved ones. I felt that the signup </text>
<text transform="matrix(1 0 0 1 245 560.5264)" class="st3 st1 st4">p</text>
<text transform="matrix(1 0 0 1 251.2 560.5264)" class="st3 st1 st4">r</text>
<text transform="matrix(1 0 0 1 254.8 560.5264)" class="st3 st1 st4">ocess required </text>
<text transform="matrix(1 0 0 1 329.7 560.5264)" class="st3 st1 st4">t</text>
<text transform="matrix(1 0 0 1 333.2 560.5264)" class="st3 st1 st4">oo much. What I do like about the app is that </text>
<text transform="matrix(1 0 0 1 245 573.7266)" class="st3 st1 st4">it allows you </text>
<text transform="matrix(1 0 0 1 308.5 573.7266)" class="st3 st1 st4">t</text>
<text transform="matrix(1 0 0 1 312 573.7266)" class="st3 st1 st4">o record audio and video au</text>
<text transform="matrix(1 0 0 1 447.2 573.7266)" class="st3 st1 st4">t</text>
<text transform="matrix(1 0 0 1 450.7 573.7266)" class="st3 st1 st4">omatically once you </text>
<text transform="matrix(1 0 0 1 245 586.9268)" class="st3 st1 st4">press the ale</text>
<text transform="matrix(1 0 0 1 307.5 586.9268)" class="st3 st1 st4">r</text>
<text transform="matrix(1 0 0 1 311.4 586.9268)" class="st3 st1 st4">t but</text>
<text transform="matrix(1 0 0 1 333.6 586.9268)" class="st3 st1 st4">t</text>
<text transform="matrix(1 0 0 1 337.1 586.9268)" class="st3 st1 st4">on.</text>
<g>
	<g>
		<defs>
			<rect id="SVGID_1_" x="36" y="417" width="190.5" height="339"/>
		</defs>
		<clipPath id="SVGID_2_">
			<use xlink:href="#SVGID_1_"  style="overflow:visible;"/>
		</clipPath>
		<g class="st5">
			<g>
				<defs>
					<rect id="SVGID_3_" x="35.9" y="417" width="190.6" height="339"/>
				</defs>
				<clipPath id="SVGID_4_">
					<use xlink:href="#SVGID_3_"  style="overflow:visible;"/>
				</clipPath>
				<g class="st6">
					
						<image style="overflow:visible;enable-background:new    ;" width="755" height="1336" xlink:href="B0061FBD47F382EA.png"  transform="matrix(0.2534 0 0 0.2534 35.5349 417.2102)">
					</image>
				</g>
			</g>
		</g>
		<line class="st7" x1="36" y1="81.1" x2="576" y2="81.1"/>
		<g class="st5">
			<g>
				<defs>
					<rect id="SVGID_5_" x="36" y="98.4" width="190.5" height="309.6"/>
				</defs>
				<clipPath id="SVGID_6_">
					<use xlink:href="#SVGID_5_"  style="overflow:visible;"/>
				</clipPath>
				<g class="st8">
					<g>
						<defs>
							<rect id="SVGID_7_" x="36" y="98.4" width="190.5" height="310.8"/>
						</defs>
						<clipPath id="SVGID_8_">
							<use xlink:href="#SVGID_7_"  style="overflow:visible;"/>
						</clipPath>
						<g class="st9">
							
								<image style="overflow:visible;enable-background:new    ;" width="751" height="1226" xlink:href="B0061FBD47F382EE.png"  transform="matrix(0.2658 0 0 0.2494 31.4571 100.9315)">
							</image>
						</g>
					</g>
				</g>
				<rect class="st10" width="612" height="792"/>
			</g>
		</g>
	</g>
</g>
<g>
	<defs>
		<rect id="SVGID_9_" x="36" y="98.4" width="190.5" height="309.6"/>
	</defs>
	<clipPath id="SVGID_10_">
		<use xlink:href="#SVGID_9_"  style="overflow:visible;"/>
	</clipPath>
	<g class="st11">
		<defs>
			<rect id="SVGID_11_" x="36" y="98.4" width="190.5" height="310.8"/>
		</defs>
		<clipPath id="SVGID_12_">
			<use xlink:href="#SVGID_11_"  style="overflow:visible;"/>
		</clipPath>
		<g style="clip-path:url(#SVGID_12_);">
			
				<image style="overflow:visible;" width="750" height="1304" xlink:href="B0061FBD47F382E9.png"  transform="matrix(0.254 0 0 0.2384 36 98.4)">
			</image>
		</g>
	</g>
</g>
<line class="st12" x1="36" y1="81.1" x2="576" y2="81.1"/>
</svg>
