<?xml version="1.0" encoding="utf-8"?>
<!-- Generator: Adobe Illustrator 22.1.0, SVG Export Plug-In . SVG Version: 6.00 Build 0)  -->
<svg version="1.1" id="Layer_1" xmlns="http://www.w3.org/2000/svg" xmlns:xlink="http://www.w3.org/1999/xlink" x="0px" y="0px"
	 viewBox="0 0 950 224.5" style="enable-background:new 0 0 950 224.5;" xml:space="preserve">
<style type="text/css">
	.st0{fill:#8968AC;}
	.st1{fill:#808080;}
	.st2{fill:#FFFFFF;stroke:#A7A9AC;stroke-width:0.25;stroke-miterlimit:10;}
	.st3{font-family:'Roboto-Regular';}
	.st4{font-size:10px;}
	.st5{font-size:13px;}
	.st6{font-family:'Roboto-Medium';}
	.st7{font-size:36px;}
	.st8{font-size:12px;}
	.st9{fill:#8A68AD;}
	.st10{opacity:0.67;fill:none;stroke:#8A68AD;stroke-width:1.6404;stroke-miterlimit:10;enable-background:new    ;}
	.st11{opacity:0.6;fill:#FF3E3E;enable-background:new    ;}
</style>
<rect x="106.3" y="42.2" class="st0" width="38.4" height="38.4"/>
<rect x="106.3" y="101" class="st1" width="38.4" height="38.4"/>
<rect x="106.3" y="159.8" class="st2" width="38.4" height="38.4"/>
<text transform="matrix(1 0 0 1 155.2374 52.7191)" class="st3 st4">Venture Purple (#8968ac)</text>
<text transform="matrix(1 0 0 1 155.2374 64.7191)" class="st3 st4">C=52 M=67 Y=0 K=0</text>
<text transform="matrix(1 0 0 1 155.2374 76.7191)" class="st3 st4">R=137 G=104 B=172</text>
<text transform="matrix(1 0 0 1 155.2376 112.8083)" class="st3 st4">Gray (#808080)</text>
<text transform="matrix(1 0 0 1 155.2376 124.8083)" class="st3 st4">C=52 M=43 Y=43 K=8</text>
<text transform="matrix(1 0 0 1 155.2376 136.8083)" class="st3 st4">R=128 G=128 B=128</text>
<text transform="matrix(1 0 0 1 155.2376 169.6761)" class="st3 st4">White (#ffffff)</text>
<text transform="matrix(1 0 0 1 155.2376 181.6761)" class="st3 st4">C=0 M=0 Y=0 K=0</text>
<text transform="matrix(1 0 0 1 155.2376 193.6761)" class="st3 st4">R=255 G=255 B=255</text>
<text transform="matrix(1 0 0 1 106.331 26.954)" class="st3 st5">Colors:</text>
<text transform="matrix(1 0 0 1 395.6492 70.1574)" class="st6 st7">Roboto</text>
<text transform="matrix(1 0 0 1 395.6492 91.1574)" class="st3 st8">ABCDEFGHIJKLMNOPQRSTUVWXYZ</text>
<text transform="matrix(1 0 0 1 395.6492 109.1574)" class="st3 st8">abcdefghijklmnopqrstuvwxyz</text>
<text transform="matrix(1 0 0 1 395.6492 127.1574)" class="st3 st8">01234567890</text>
<text transform="matrix(1 0 0 1 395.6492 26.954)" class="st3 st5">Font:</text>
<text transform="matrix(1 0 0 1 712.0581 26.954)" class="st3 st5">Icons:</text>
<g>
	<circle class="st9" cx="742.3" cy="108" r="4.3"/>
	<path class="st9" d="M744.9,112c-0.8,0.5-1.7,0.8-2.6,0.8s-1.8-0.3-2.6-0.8c-2.8,1.5-4.9,5.5-4.9,8.8h15.1
		C749.9,117.5,747.8,113.5,744.9,112z"/>
	<circle class="st9" cx="764.6" cy="119.1" r="5.7"/>
	<path class="st9" d="M767.9,124.3c-1,0.6-2.2,1-3.5,1s-2.4-0.4-3.5-1c-3.9,2.1-6.6,7.3-6.6,11.6h20.1
		C774.6,131.7,771.8,126.4,767.9,124.3z"/>
	<circle class="st9" cx="719.9" cy="119.1" r="5.7"/>
	<path class="st9" d="M723.4,124.3c-1,0.6-2.2,1-3.5,1c-1.3,0-2.4-0.4-3.5-1c-3.9,2.1-6.6,7.3-6.6,11.6h20.1
		C729.9,131.7,727.2,126.5,723.4,124.3z"/>
	<ellipse class="st10" cx="742.3" cy="124.6" rx="25.5" ry="7.6"/>
</g>
<g>
	<path class="st11" d="M750.9,73.2c0,0.4-17.5,0.4-17.5,0c0-11.7-1-15.9,9.1-15.9C751.9,57.1,750.9,62.7,750.9,73.2z"/>
	<path class="st11" d="M751.9,78.6H732c-1.2,0-2-0.6-2-1.6v-0.6c0-1,0.8-1.6,2-1.6h20.1c1.2,0,2,0.6,2,1.6V77
		C753.9,78,753.1,78.6,751.9,78.6z"/>
	<path class="st11" d="M753.9,66.6c3,0,6,0,8.9,0c1.8,0,1.8-2.8,0-2.8c-3,0-6,0-8.9,0C752.1,63.9,752.1,66.6,753.9,66.6L753.9,66.6z
		"/>
	<path class="st11" d="M721.5,66.6c3,0,6,0,8.9,0c1.8,0,1.8-2.8,0-2.8c-3,0-6,0-8.9,0C719.7,63.9,719.7,66.6,721.5,66.6L721.5,66.6z
		"/>
	<path class="st11" d="M725.5,52.1c2.2,2.2,4.4,4.4,6.4,6.4c1.2,1.2,3-0.8,2-2c-2.2-2.2-4.4-4.4-6.4-6.4
		C726.1,48.9,724.3,50.9,725.5,52.1L725.5,52.1z"/>
	<path class="st11" d="M757.1,50.1c-2.2,2.2-4.4,4.4-6.4,6.4c-1.2,1.2,0.8,3,2,2c2.2-2.2,4.4-4.4,6.4-6.4
		C760.1,50.9,758.3,48.9,757.1,50.1L757.1,50.1z"/>
	<path class="st11" d="M740.8,44.4c0,3,0,6,0,8.9c0,1.8,2.8,1.8,2.8,0c0-3,0-6,0-8.9C743.6,42.6,740.8,42.6,740.8,44.4L740.8,44.4z"
		/>
</g>
<g>
	<path class="st9" d="M763.7,181.7h-7.5c-0.5-6.6-6.1-12.2-13.1-13.1v-7.5h-2.8v7.5c-7,0.9-12.6,6.6-13.1,13.1h-7.5v2.8h8
		c0.9,7,6.1,12.2,13.1,12.6v8h2.8v-7.5c7-0.5,12.2-6.1,13.1-12.6h8v-3.3H763.7z M741.7,193.4c-5.6,0-10.3-4.7-10.3-10.3
		c0-5.6,4.7-10.3,10.3-10.3c5.6,0,10.3,4.7,10.3,10.3C752,188.7,747.3,193.4,741.7,193.4z"/>
	<circle class="st9" cx="742.2" cy="183.6" r="3.3"/>
</g>
</svg>
