<?xml version="1.0" encoding="utf-8"?>
<!-- Generator: Adobe Illustrator 22.1.0, SVG Export Plug-In . SVG Version: 6.00 Build 0)  -->
<svg version="1.1" id="Layer_1" xmlns="http://www.w3.org/2000/svg" xmlns:xlink="http://www.w3.org/1999/xlink" x="0px" y="0px"
	 viewBox="0 0 1084.6 788.6" style="enable-background:new 0 0 1084.6 788.6;" xml:space="preserve">
<style type="text/css">
	.st0{fill:#737474;}
	.st1{font-family:'GothamHTF-Medium';}
	.st2{font-size:11.2022px;}
	.st3{fill:none;stroke:#8A68AD;stroke-width:1.7157;stroke-miterlimit:10;}
</style>
<text transform="matrix(1 0 0 1 409.202 58.2505)" class="st0 st1 st2">Log In</text>
<rect x="391.4" y="37" class="st3" width="80.5" height="33"/>
<text transform="matrix(1 0 0 1 534.1488 58.2505)" class="st0 st1 st2">Sign Up</text>
<rect x="516" y="37" class="st3" width="80.5" height="33"/>
<text transform="matrix(1 0 0 1 414.9935 120.0191)" class="st0 st1 st2">Home</text>
<polygon class="st3" points="471.9,131.8 431.6,131.8 391.4,131.8 391.4,98.8 471.9,98.8 "/>
<text transform="matrix(1 0 0 1 275.8709 223.1978)" class="st0 st1 st2">Help</text>
<polygon class="st3" points="329.1,235 288.9,235 248.6,235 248.6,202 329.1,202 "/>
<text transform="matrix(1 0 0 1 158.6854 223.1978)" class="st0 st1 st2">Record</text>
<polygon class="st3" points="219.3,235 179.1,235 138.8,235 138.8,202 219.3,202 "/>
<text transform="matrix(1 0 0 1 32.8753 302.5215)"><tspan x="0" y="0" class="st0 st1 st2">Contact</tspan><tspan x="-10" y="13.4" class="st0 st1 st2">Companion</tspan></text>
<text transform="matrix(1 0 0 1 157.5809 302.5215)"><tspan x="0" y="0" class="st0 st1 st2">Contact</tspan><tspan x="-9" y="13.4" class="st0 st1 st2">Authorities</tspan></text>
<polygon class="st3" points="95.5,321.5 55.2,321.5 15,321.5 15,288.4 95.5,288.4 "/>
<polygon class="st3" points="220.2,321.5 179.9,321.5 139.7,321.5 139.7,288.4 220.2,288.4 "/>
<text transform="matrix(1 0 0 1 546.5072 223.1978)" class="st0 st1 st2">Where to?</text>
<polygon class="st3" points="616.2,235 576,235 535.8,235 535.8,202 616.2,202 "/>
<text transform="matrix(1 0 0 1 417.2411 223.1978)" class="st0 st1 st2">Menu</text>
<polygon class="st3" points="472.7,235 432.4,235 392.2,235 392.2,202 472.7,202 "/>
<text transform="matrix(1 0 0 1 553.6273 381.6724)" class="st0 st1 st2">Contacts</text>
<text transform="matrix(1 0 0 1 122.1375 404.1627)" class="st0 st1 st2">Text</text>
<text transform="matrix(1 0 0 1 212.8744 404.1627)" class="st0 st1 st2">Call</text>
<polygon class="st3" points="619,393.5 578.8,393.5 538.6,393.5 538.6,360.4 619,360.4 "/>
<polygon class="st3" points="174.9,417.3 134.7,417.3 94.5,417.3 94.5,384.3 174.9,384.3 "/>
<polygon class="st3" points="265.4,417.3 225.2,417.3 185,417.3 185,384.3 265.4,384.3 "/>
<text transform="matrix(1 0 0 1 672.4672 381.6724)" class="st0 st1 st2">Near by</text>
<polygon class="st3" points="734.9,393.5 694.6,393.5 654.4,393.5 654.4,360.4 734.9,360.4 "/>
<text transform="matrix(1 0 0 1 660.5306 436.5748)" class="st0 st1 st2">View Profile</text>
<polygon class="st3" points="734.9,448.4 694.6,448.4 654.4,448.4 654.4,415.3 734.9,415.3 "/>
<line class="st3" x1="471.9" y1="53.5" x2="516" y2="53.5"/>
<line class="st3" x1="431.6" y1="70" x2="431.6" y2="98.8"/>
<line class="st3" x1="431.6" y1="202" x2="431.6" y2="131.8"/>
<polyline class="st3" points="288.9,202 288.9,168.9 715.9,168.9 715.9,202 "/>
<line class="st3" x1="576" y1="202" x2="576" y2="168.9"/>
<text transform="matrix(1 0 0 1 685.0951 223.1978)" class="st0 st1 st2">Companion</text>
<polygon class="st3" points="757.7,235 717.5,235 677.3,235 677.3,202 757.7,202 "/>
<polyline class="st3" points="179.9,235 179.9,260.6 179.9,288.4 "/>
<polyline class="st3" points="57.3,288.1 57.3,260.6 179.9,260.6 "/>
<polyline class="st3" points="576,235 576,260.6 636.7,260.6 636.7,288.1 "/>
<polyline class="st3" points="520.9,288.1 520.9,260.6 576,260.6 "/>
<polyline class="st3" points="179.9,321.5 179.1,357.1 223.5,357.1 223.5,384 "/>
<polyline class="st3" points="139.7,384 139.7,357.1 179.1,357.1 "/>
<text transform="matrix(1 0 0 1 726.9799 683.7203)" class="st0 st1 st2">No</text>
<text transform="matrix(1 0 0 1 813.6937 683.7203)" class="st0 st1 st2">Yes</text>
<polygon class="st3" points="775.3,696.8 735.1,696.8 694.8,696.8 694.8,663.8 775.3,663.8 "/>
<polygon class="st3" points="865.8,696.8 825.6,696.8 785.3,696.8 785.3,663.8 865.8,663.8 "/>
<polyline class="st3" points="779.9,627.2 779.5,646.5 823.9,646.5 823.9,663.8 "/>
<polyline class="st3" points="740.1,663.8 740.1,646.5 779.5,646.5 "/>
<text transform="matrix(1 0 0 1 749.0824 747.6295)"><tspan x="0" y="0" class="st0 st1 st2">Add New</tspan><tspan x="1.6" y="13.4" class="st0 st1 st2">Location</tspan></text>
<text transform="matrix(1 0 0 1 838.6156 753.3482)" class="st0 st1 st2">Continue</text>
<polygon class="st3" points="815.6,766.5 775.3,766.5 735.1,766.5 735.1,733.4 815.6,733.4 "/>
<polygon class="st3" points="906.1,766.5 865.8,766.5 825.6,766.5 825.6,733.4 906.1,733.4 "/>
<polyline class="st3" points="820.2,696.8 819.7,716.1 864.1,716.1 864.1,733.4 "/>
<polyline class="st3" points="780.3,733.4 780.3,716.1 819.7,716.1 "/>
<line class="st3" x1="219.3" y1="221.3" x2="248.6" y2="221.3"/>
<line class="st3" x1="694.6" y1="415.3" x2="694.6" y2="393.5"/>
<text transform="matrix(1 0 0 1 788.3929 381.0015)" class="st0 st1 st2">Set Alerts</text>
<text transform="matrix(1 0 0 1 1007.0765 381.0015)" class="st0 st1 st2">Contact</text>
<polygon class="st3" points="856.4,392.8 816.2,392.8 775.9,392.8 775.9,359.8 856.4,359.8 "/>
<text transform="matrix(1 0 0 1 908.7924 373.1841)"><tspan x="0" y="0" class="st0 st1 st2">View</tspan><tspan x="-7.8" y="13.4" class="st0 st1 st2">On Map</tspan></text>
<polygon class="st3" points="963,392.8 922.8,392.8 882.6,392.8 882.6,359.8 963,359.8 "/>
<polygon class="st3" points="1069.7,392.8 1029.4,392.8 989.2,392.8 989.2,359.8 1069.7,359.8 "/>
<line class="st3" x1="636.7" y1="343.6" x2="636.7" y2="321.7"/>
<text transform="matrix(1 0 0 1 677.1996 491.4761)" class="st0 st1 st2">Select</text>
<polygon class="st3" points="734.9,503.3 694.6,503.3 654.4,503.3 654.4,470.2 734.9,470.2 "/>
<text transform="matrix(1 0 0 1 830.9723 537.2121)"><tspan x="0" y="0" class="st0 st1 st2">Current</tspan><tspan x="-13.8" y="13.4" class="st0 st1 st2">Companions</tspan></text>
<polygon class="st3" points="892.6,557.6 852.4,557.6 812.1,557.6 812.1,524.6 892.6,524.6 "/>
<text transform="matrix(1 0 0 1 622.3187 309.6705)" class="st0 st1 st2">Walk</text>
<polygon class="st3" points="677,321.5 636.7,321.5 596.5,321.5 596.5,288.4 677,288.4 "/>
<text transform="matrix(1 0 0 1 713.8656 309.6705)" class="st0 st1 st2">Decline</text>
<polygon class="st3" points="775.1,321.5 734.9,321.5 694.6,321.5 694.6,288.4 775.1,288.4 "/>
<text transform="matrix(1 0 0 1 814.8461 309.6705)" class="st0 st1 st2">View Profile</text>
<polygon class="st3" points="889.2,321.5 849,321.5 808.7,321.5 808.7,288.4 889.2,288.4 "/>
<text transform="matrix(1 0 0 1 505.8539 309.6705)" class="st0 st1 st2">Drive</text>
<polygon class="st3" points="561.1,321.5 520.9,321.5 480.6,321.5 480.6,288.4 561.1,288.4 "/>
<line class="st3" x1="694.6" y1="470.2" x2="694.6" y2="448.4"/>
<text transform="matrix(1 0 0 1 686.5756 546.3785)" class="st0 st1 st2">Go</text>
<polygon class="st3" points="734.9,558.2 694.6,558.2 654.4,558.2 654.4,525.1 734.9,525.1 "/>
<text transform="matrix(1 0 0 1 595.4779 615.4244)" class="st0 st1 st2">Arrived</text>
<polygon class="st3" points="656.8,627.2 616.6,627.2 576.4,627.2 576.4,594.2 656.8,594.2 "/>
<text transform="matrix(1 0 0 1 433.7865 615.4244)" class="st0 st1 st2">Cancel</text>
<polygon class="st3" points="493.1,627.2 452.9,627.2 412.6,627.2 412.6,594.2 493.1,594.2 "/>
<text transform="matrix(1 0 0 1 758.0433 608.0132)"><tspan x="0" y="0" class="st0 st1 st2">Are you</tspan><tspan x="5.7" y="13.4" class="st0 st1 st2">okay?</tspan></text>
<polygon class="st3" points="820.6,627.2 780.3,627.2 740.1,627.2 740.1,594.2 820.6,594.2 "/>
<line class="st3" x1="694.6" y1="525.1" x2="694.6" y2="503.3"/>
<line class="st3" x1="812.3" y1="541.6" x2="734.9" y2="541.6"/>
<text transform="matrix(1 0 0 1 603.5831 676.451)"><tspan x="0" y="0" class="st0 st1 st2">Rate</tspan><tspan x="-19.4" y="13.4" class="st0 st1 st2">Companion</tspan></text>
<polygon class="st3" points="656.8,696.3 616.6,696.3 576.4,696.3 576.4,663.2 656.8,663.2 "/>
<line class="st3" x1="616.6" y1="663.2" x2="616.6" y2="626.7"/>
<text transform="matrix(1 0 0 1 414.0038 278.0992)" class="st0 st1 st2">Profile</text>
<polygon class="st3" points="472.7,289.9 432.4,289.9 392.2,289.9 392.2,256.9 472.7,256.9 "/>
<line class="st3" x1="432.4" y1="256.9" x2="432.4" y2="235"/>
<text transform="matrix(1 0 0 1 400.0287 325.5279)"><tspan x="0" y="0" class="st0 st1 st2">Companion</tspan><tspan x="8.9" y="13.4" class="st0 st1 st2">On / Off</tspan></text>
<polygon class="st3" points="472.7,344.8 432.4,344.8 392.2,344.8 392.2,311.8 472.7,311.8 "/>
<line class="st3" x1="432.4" y1="311.8" x2="432.4" y2="289.9"/>
<text transform="matrix(1 0 0 1 416.5692 380.4371)"><tspan x="0" y="0" class="st0 st1 st2">Invite</tspan><tspan x="-5.1" y="13.4" class="st0 st1 st2">Friends</tspan></text>
<polygon class="st3" points="472.7,399.7 432.4,399.7 392.2,399.7 392.2,366.7 472.7,366.7 "/>
<line class="st3" x1="432.4" y1="366.7" x2="432.4" y2="344.8"/>
<text transform="matrix(1 0 0 1 410.8783 442.8052)" class="st0 st1 st2">Log Off</text>
<polygon class="st3" points="472.7,454.6 432.4,454.6 392.2,454.6 392.2,421.6 472.7,421.6 "/>
<line class="st3" x1="432.4" y1="421.6" x2="432.4" y2="399.7"/>
<polyline class="st3" points="654.4,541.6 578.8,541.6 578.8,393.5 "/>
<polyline class="st3" points="578.8,360.4 578.8,343.6 694.6,343.6 694.6,360.4 "/>
<polyline class="st3" points="520.9,321.5 520.9,376.9 538.6,376.9 "/>
<polyline class="st3" points="55.2,321.5 55.2,339.3 179.1,339.3 "/>
<polyline class="st3" points="694.6,558.2 694.6,574.2 780.3,574.2 780.3,594.2 "/>
<polyline class="st3" points="694.6,574.2 616.6,574.2 616.6,594.2 "/>
<polyline class="st3" points="288.9,235 288.9,716.1 735.1,716.1 735.1,696.8 "/>
<polyline class="st3" points="906.1,750 933,750 933,610.7 820.6,610.7 "/>
<polyline class="st3" points="717.5,235 717.5,261.6 734.9,261.6 734.9,288.1 "/>
<polyline class="st3" points="734.9,261.6 849,261.6 849,288.4 "/>
<text transform="matrix(1 0 0 1 942.7865 309.6705)" class="st0 st1 st2">Accept</text>
<polygon class="st3" points="1003.3,321.5 963,321.5 922.8,321.5 922.8,288.4 1003.3,288.4 "/>
<polyline class="st3" points="849,261.6 963,261.6 963,288.4 "/>
<polyline class="st3" points="816.2,359.8 816.2,343.2 963,343.2 963,321.3 "/>
<polyline class="st3" points="1029.4,359.8 1029.4,343.6 963,343.6 "/>
<line class="st3" x1="922.8" y1="359.8" x2="922.8" y2="343.6"/>
<polyline class="st3" points="452.9,594.2 452.9,574.2 616.6,574.2 "/>
</svg>
