<?xml version="1.0" encoding="utf-8"?>
<!-- Generator: Adobe Illustrator 22.1.0, SVG Export Plug-In . SVG Version: 6.00 Build 0)  -->
<svg version="1.1" id="Layer_1" xmlns="http://www.w3.org/2000/svg" xmlns:xlink="http://www.w3.org/1999/xlink" x="0px" y="0px"
	 viewBox="0 0 525 498" style="enable-background:new 0 0 525 498;" xml:space="preserve">
<style type="text/css">
	.st0{fill:none;}
	.st1{font-family:'Roboto-Regular';}
	.st2{font-size:12px;}
	.st3{fill:#856AA8;}
	.st4{font-family:'Roboto-Bold';}
	.st5{font-size:20px;}
	.st6{clip-path:url(#SVGID_2_);}
	.st7{clip-path:url(#SVGID_4_);}
	.st8{font-family:'DIN2014-Demi';}
	.st9{font-size:24.9345px;}
	.st10{font-family:'DIN2014-Regular';}
	.st11{font-size:7.6356px;}
	.st12{fill:none;stroke:#856AA8;stroke-miterlimit:10;}
</style>
<rect x="19.1" y="44.1" class="st0" width="501" height="412"/>
<text transform="matrix(1 0 0 1 19.0656 53.0788)"><tspan x="0" y="0" class="st1 st2">How will your users understand the content of the project?</tspan><tspan x="0" y="14.4" class="st1 st2">- Users will understand the content of the project by having a tutorial screen and through the </tspan><tspan x="0" y="28.8" class="st1 st2">minimal design of the app.</tspan><tspan x="0" y="43.2" class="st1 st2">How will your users understand the primary objectives?</tspan><tspan x="0" y="57.6" class="st1 st2">- The user will understand the primary objectives of my project through an about</tspan><tspan x="0" y="72" class="st1 st2">page or having a quick blurb during the loading screen.</tspan><tspan x="0" y="86.4" class="st1 st2">What content and features do your users need, and in what form do they need it?</tspan><tspan x="0" y="100.8" class="st1 st2">- My users need a way to quickly share their location, alert someone when they</tspan><tspan x="0" y="115.2" class="st1 st2">are not safe, and have someone be able to watch over them.</tspan><tspan x="0" y="129.6" class="st1 st2">How do your users think your interactive projects should work and what are their experience </tspan><tspan x="0" y="144" class="st1 st2">levels with the type of media you are creating?</tspan><tspan x="0" y="158.4" class="st1 st2">- My users think that my project will be able to allow people to see where they are and what </tspan><tspan x="0" y="172.8" class="st1 st2">they are doing. The experience level of my users should be everyday smartphone users, they </tspan><tspan x="0" y="187.2" class="st1 st2">should be able to quickly learn how to use the app, because the interface will be similar to </tspan><tspan x="0" y="201.6" class="st1 st2">other apps.</tspan></text>
<g>
	<text transform="matrix(1 0 0 1 19.0656 30.0788)" class="st3 st4 st5">User Goals</text>
</g>
<g>
	<text transform="matrix(1 0 0 1 19.0656 332.0788)" class="st3 st4 st5">Audience Persona</text>
</g>
<g>
	<g>
		<defs>
			<rect id="SVGID_1_" x="-12.2" y="323.1" width="404.7" height="169"/>
		</defs>
		<clipPath id="SVGID_2_">
			<use xlink:href="#SVGID_1_"  style="overflow:visible;"/>
		</clipPath>
		<g class="st6">
			<defs>
				<path id="SVGID_3_" d="M9.1,412.6c0,36.7,29.8,66.5,66.5,66.5c36.7,0,66.5-29.8,66.5-66.5s-29.8-66.5-66.5-66.5
					C38.8,346.1,9.1,375.9,9.1,412.6"/>
			</defs>
			<clipPath id="SVGID_4_">
				<use xlink:href="#SVGID_3_"  style="overflow:visible;"/>
			</clipPath>
			<g class="st7">
				<defs>
					<rect id="SVGID_5_" x="-56.6" y="342.4" width="227.8" height="171"/>
				</defs>
				<clipPath id="SVGID_6_">
					<use xlink:href="#SVGID_5_"  style="overflow:visible;"/>
				</clipPath>
				<g style="clip-path:url(#SVGID_6_);">
					
						<image style="overflow:visible;" width="2048" height="1537" xlink:href="5590F2EE8C8706E8.jpg"  transform="matrix(0.1113 0 0 0.1113 -56.5736 342.4287)">
					</image>
				</g>
			</g>
		</g>
		<g class="st6">
			<text transform="matrix(1 0 0 1 155.7256 368.0771)"><tspan x="0" y="0" class="st8 st9">Olivia Mo</tspan><tspan x="97.4" y="0" class="st8 st9">k</tspan><tspan x="109.1" y="0" class="st8 st9">ona</tspan></text>
		</g>
		<g class="st6">
			<text transform="matrix(1 0 0 1 155.4443 382.9668)" class="st10 st11">Olivia is currently a 21 years old college senior at the University of </text>
		</g>
		<g class="st6">
			<text transform="matrix(1 0 0 1 155.4443 392.1299)"><tspan x="0" y="0" class="st10 st11">California, Davis planning to g</tspan><tspan x="95.4" y="0" class="st10 st11">r</tspan><tspan x="98.3" y="0" class="st10 st11">aduate in the spring. She works on </tspan></text>
		</g>
		<g class="st6">
			<text transform="matrix(1 0 0 1 155.4443 401.292)"><tspan x="0" y="0" class="st10 st11">c</tspan><tspan x="3.3" y="0" class="st10 st11">ampus and is currently majoring in sociology and hopes to ﬁnd a </tspan></text>
		</g>
		<g class="st6">
			<text transform="matrix(1 0 0 1 155.4443 410.4551)"><tspan x="0" y="0" class="st10 st11">meaningful job in the work force. </tspan><tspan x="106.6" y="0" class="st10 st11">T</tspan><tspan x="110.1" y="0" class="st10 st11">o get to school and work, she </tspan></text>
		</g>
		<g class="st6">
			<text transform="matrix(1 0 0 1 155.4443 419.6182)"><tspan x="0" y="0" class="st10 st11">walks and buses to her desired lo</tspan><tspan x="107.2" y="0" class="st10 st11">c</tspan><tspan x="110.6" y="0" class="st10 st11">ation. On her free time, she li</tspan><tspan x="202.6" y="0" class="st10 st11">k</tspan><tspan x="206.1" y="0" class="st10 st11">es </tspan></text>
		</g>
		<g class="st6">
			<text transform="matrix(1 0 0 1 155.4443 428.7803)"><tspan x="0" y="0" class="st10 st11">to t</tspan><tspan x="10.5" y="0" class="st10 st11">r</tspan><tspan x="13.4" y="0" class="st10 st11">avel around </tspan><tspan x="53.2" y="0" class="st10 st11">e</tspan><tspan x="56.8" y="0" class="st10 st11">xploring different parts of California. Although </tspan></text>
		</g>
		<g class="st6">
			<text transform="matrix(1 0 0 1 155.4443 437.9434)" class="st10 st11">most parts of California are relatively safe, her family is concerned </text>
		</g>
		<g class="st6">
			<text transform="matrix(1 0 0 1 155.4443 447.1064)" class="st10 st11">about her safety and her whereabouts. She is very adventurous, </text>
		</g>
		<g class="st6">
			<text transform="matrix(1 0 0 1 155.4443 456.2686)" class="st10 st11">but sometimes, she feels concerned or uncomfortable when she is </text>
		</g>
		<g class="st6">
			<text transform="matrix(1 0 0 1 155.4443 465.4316)"><tspan x="0" y="0" class="st10 st11">by hersel</tspan><tspan x="29.6" y="0" class="st10 st11">f</tspan><tspan x="31.6" y="0" class="st10 st11">. When she chooses a place to t</tspan><tspan x="131.4" y="0" class="st10 st11">r</tspan><tspan x="134.3" y="0" class="st10 st11">avel, she li</tspan><tspan x="168.4" y="0" class="st10 st11">k</tspan><tspan x="171.9" y="0" class="st10 st11">es to </tspan></text>
		</g>
		<g class="st6">
			<text transform="matrix(1 0 0 1 155.4443 474.5947)" class="st10 st11">research on where to visit and what to prepare for the visit.</text>
		</g>
	</g>
</g>
<line class="st12" x1="70" y1="-39" x2="610" y2="-39"/>
</svg>
