<?xml version="1.0" encoding="utf-8"?>
<!-- Generator: Adobe Illustrator 22.1.0, SVG Export Plug-In . SVG Version: 6.00 Build 0)  -->
<svg version="1.1" id="Layer_1" xmlns="http://www.w3.org/2000/svg" xmlns:xlink="http://www.w3.org/1999/xlink" x="0px" y="0px"
	 viewBox="0 0 1296.2 764" style="enable-background:new 0 0 1296.2 764;" xml:space="preserve">
<style type="text/css">
	.st0{fill:#FFFFFF;stroke:#8A68AD;stroke-miterlimit:10;}
	.st1{fill:#737474;}
	.st2{font-family:'GothamHTF-Medium';}
	.st3{font-size:22px;}
	.st4{fill:#8A68AD;}
	.st5{fill:#E7DCD3;stroke:#8A68AD;stroke-miterlimit:10;}
	.st6{fill:none;}
	.st7{font-family:'Helvetica';}
	.st8{font-size:11px;}
</style>
<rect x="93.8" y="56.5" class="st0" width="184.6" height="128.2"/>
<text transform="matrix(1 0 0 1 153.3769 125.6318)" class="st1 st2 st3">Home</text>
<rect x="394.1" y="56.5" class="st0" width="184.6" height="128.2"/>
<text transform="matrix(1 0 0 1 428.5162 125.6315)" class="st1 st2 st3">Where to?</text>
<rect x="721.1" y="56.5" class="st0" width="184.6" height="128.2"/>
<text transform="matrix(1 0 0 1 785.1332 125.6315)" class="st1 st2 st3">Walk</text>
<rect x="1024.1" y="56.5" class="st0" width="184.6" height="128.2"/>
<text transform="matrix(1 0 0 1 1072.8392 125.6313)" class="st1 st2 st3">Near by</text>
<rect x="93.2" y="480.9" class="st0" width="184.6" height="128.2"/>
<text transform="matrix(1 0 0 1 119.0577 548.2778)" class="st1 st2 st3">View Profile</text>
<rect x="403.7" y="480.9" class="st0" width="184.6" height="128.2"/>
<text transform="matrix(1 0 0 1 462.2774 548.2778)" class="st1 st2 st3">Select</text>
<rect x="714.2" y="480.9" class="st0" width="184.6" height="128.2"/>
<text transform="matrix(1 0 0 1 791.1754 548.2778)" class="st1 st2 st3">Go</text>
<rect x="1024.7" y="480.9" class="st0" width="184.6" height="128.2"/>
<text transform="matrix(1 0 0 1 1076.0304 548.2778)" class="st1 st2 st3">Arrived</text>
<g>
	<g>
		<g>
			<path class="st4" d="M336.6,101.1c8.5,8.5,17,17,25.5,25.5c0-0.6,0-1.2,0-1.8c-8.5,8.5-17,17-25.5,25.5c-1.1,1.1,0.6,2.9,1.8,1.8
				c8.5-8.5,17-17,25.5-25.5c0.5-0.5,0.5-1.3,0-1.8c-8.5-8.5-17-17-25.5-25.5C337.3,98.2,335.5,99.9,336.6,101.1L336.6,101.1z"/>
		</g>
	</g>
	<g>
		<g>
			<path class="st4" d="M357.5,124.4c-16,0-32,0-48,0c-1.6,0-1.6,2.5,0,2.5c16,0,32,0,48,0C359.1,126.9,359.1,124.4,357.5,124.4
				L357.5,124.4z"/>
		</g>
	</g>
</g>
<g>
	<g>
		<g>
			<path class="st4" d="M650.3,101.1c8.5,8.5,17,17,25.5,25.5c0-0.6,0-1.2,0-1.8c-8.5,8.5-17,17-25.5,25.5c-1.1,1.1,0.6,2.9,1.8,1.8
				c8.5-8.5,17-17,25.5-25.5c0.5-0.5,0.5-1.3,0-1.8c-8.5-8.5-17-17-25.5-25.5C650.9,98.2,649.2,99.9,650.3,101.1L650.3,101.1z"/>
		</g>
	</g>
	<g>
		<g>
			<path class="st4" d="M671.2,124.4c-16,0-32,0-48,0c-1.6,0-1.6,2.5,0,2.5c16,0,32,0,48,0C672.8,126.9,672.8,124.4,671.2,124.4
				L671.2,124.4z"/>
		</g>
	</g>
</g>
<g>
	<g>
		<g>
			<path class="st4" d="M965.3,101.1c8.5,8.5,17,17,25.5,25.5c0-0.6,0-1.2,0-1.8c-8.5,8.5-17,17-25.5,25.5c-1.1,1.1,0.6,2.9,1.8,1.8
				c8.5-8.5,17-17,25.5-25.5c0.5-0.5,0.5-1.3,0-1.8c-8.5-8.5-17-17-25.5-25.5C965.9,98.2,964.2,99.9,965.3,101.1L965.3,101.1z"/>
		</g>
	</g>
	<g>
		<g>
			<path class="st4" d="M986.2,124.4c-16,0-32,0-48,0c-1.6,0-1.6,2.5,0,2.5c16,0,32,0,48,0C987.8,126.9,987.8,124.4,986.2,124.4
				L986.2,124.4z"/>
		</g>
	</g>
</g>
<g>
	<g>
		<g>
			<path class="st4" d="M336.6,523.7c8.5,8.5,17,17,25.5,25.5c0-0.6,0-1.2,0-1.8c-8.5,8.5-17,17-25.5,25.5c-1.1,1.1,0.6,2.9,1.8,1.8
				c8.5-8.5,17-17,25.5-25.5c0.5-0.5,0.5-1.3,0-1.8c-8.5-8.5-17-17-25.5-25.5C337.3,520.8,335.5,522.6,336.6,523.7L336.6,523.7z"/>
		</g>
	</g>
	<g>
		<g>
			<path class="st4" d="M357.5,547c-16,0-32,0-48,0c-1.6,0-1.6,2.5,0,2.5c16,0,32,0,48,0C359.1,549.5,359.1,547,357.5,547L357.5,547
				z"/>
		</g>
	</g>
</g>
<g>
	<g>
		<g>
			<path class="st4" d="M650.3,523.7c8.5,8.5,17,17,25.5,25.5c0-0.6,0-1.2,0-1.8c-8.5,8.5-17,17-25.5,25.5c-1.1,1.1,0.6,2.9,1.8,1.8
				c8.5-8.5,17-17,25.5-25.5c0.5-0.5,0.5-1.3,0-1.8c-8.5-8.5-17-17-25.5-25.5C650.9,520.8,649.2,522.6,650.3,523.7L650.3,523.7z"/>
		</g>
	</g>
	<g>
		<g>
			<path class="st4" d="M671.2,547c-16,0-32,0-48,0c-1.6,0-1.6,2.5,0,2.5c16,0,32,0,48,0C672.8,549.5,672.8,547,671.2,547L671.2,547
				z"/>
		</g>
	</g>
</g>
<g>
	<g>
		<g>
			<path class="st4" d="M965.3,523.7c8.5,8.5,17,17,25.5,25.5c0-0.6,0-1.2,0-1.8c-8.5,8.5-17,17-25.5,25.5c-1.1,1.1,0.6,2.9,1.8,1.8
				c8.5-8.5,17-17,25.5-25.5c0.5-0.5,0.5-1.3,0-1.8c-8.5-8.5-17-17-25.5-25.5C965.9,520.8,964.2,522.6,965.3,523.7L965.3,523.7z"/>
		</g>
	</g>
	<g>
		<g>
			<path class="st4" d="M986.2,547c-16,0-32,0-48,0c-1.6,0-1.6,2.5,0,2.5c16,0,32,0,48,0C987.8,549.5,987.8,547,986.2,547L986.2,547
				z"/>
		</g>
	</g>
</g>
<g>
	<g>
		<path class="st4" d="M210.6,401c-8.5,8.5-17,17-25.5,25.5c0.6,0,1.2,0,1.8,0c-8.5-8.5-17-17-25.5-25.5c-1.1-1.1-2.9,0.6-1.8,1.8
			c8.5,8.5,17,17,25.5,25.5c0.5,0.5,1.3,0.5,1.8,0c8.5-8.5,17-17,25.5-25.5C213.5,401.6,211.8,399.8,210.6,401L210.6,401z"/>
	</g>
</g>
<g>
	<g>
		<path class="st4" d="M187.3,421.8c0-17.1,0-34.1,0-51.2c-0.4,0.4-0.8,0.8-1.2,1.2c8.3,0,16.6,0,24.9,0c22.6,0,45.3,0,67.9,0
			c33.3,0,66.6,0,100,0c40.6,0,81.3,0,121.9,0c44.7,0,89.3,0,134,0c45.1,0,90.2,0,135.3,0c41.9,0,83.8,0,125.7,0
			c35.4,0,70.8,0,106.2,0c25.6,0,51.1,0,76.7,0c12.1,0,24.2,0.3,36.3,0c0.5,0,1,0,1.5,0c0.7,0,1.2-0.6,1.2-1.2c0-17.2,0-34.5,0-51.7
			c0-1.6-2.5-1.6-2.5,0c0,17.2,0,34.5,0,51.7c0.4-0.4,0.8-0.8,1.2-1.2c-8.3,0-16.6,0-24.9,0c-22.6,0-45.3,0-67.9,0
			c-33.3,0-66.6,0-100,0c-40.6,0-81.3,0-121.9,0c-44.7,0-89.3,0-134,0c-45.1,0-90.2,0-135.3,0c-41.9,0-83.8,0-125.7,0
			c-35.4,0-70.8,0-106.2,0c-25.6,0-51.1,0-76.7,0c-12.1,0-24.2-0.3-36.3,0c-0.5,0-1,0-1.5,0c-0.7,0-1.3,0.6-1.2,1.2
			c0,17.1,0,34.1,0,51.2C184.8,423.5,187.3,423.5,187.3,421.8L187.3,421.8z"/>
	</g>
</g>
<text transform="matrix(1 0 0 1 86.2021 -182.5606)" class="st5 st2" style="font-size:107.794px;">User Flow</text>
<rect x="98.5" y="212" class="st6" width="175.1" height="94.3"/>
<text transform="matrix(1 0 0 1 98.4768 219.9444)"><tspan x="0" y="0" class="st1 st7 st8">After logging in one time, users will </tspan><tspan x="0" y="13.2" class="st1 st7 st8">be able to instantly log into the app. </tspan><tspan x="0" y="26.4" class="st1 st7 st8">At home, you are able to pick your </tspan><tspan x="0" y="39.6" class="st1 st7 st8">location goal, access the menu, get </tspan><tspan x="0" y="52.8" class="st1 st7 st8">your current location and share with </tspan><tspan x="0" y="66" class="st1 st7 st8">people, and instantly access the </tspan><tspan x="0" y="79.2" class="st1 st7 st8">emergency button. </tspan></text>
<rect x="98.5" y="637.4" class="st6" width="175.1" height="94.3"/>
<text transform="matrix(1 0 0 1 98.4768 645.2855)"><tspan x="0" y="0" class="st1 st7 st8">After choosing near by, users will </tspan><tspan x="0" y="13.2" class="st1 st7 st8">encounter a page, asking them to </tspan><tspan x="0" y="26.4" class="st1 st7 st8">pick their companions. You are able </tspan><tspan x="0" y="39.6" class="st1 st7 st8">to view their profile by clicking on </tspan><tspan x="0" y="52.8" class="st1 st7 st8">their icons. </tspan></text>
<rect x="409" y="637.4" class="st6" width="175.1" height="94.3"/>
<text transform="matrix(1 0 0 1 408.9954 645.2855)"><tspan x="0" y="0" class="st1 st7 st8">After looking a profiles, they are </tspan><tspan x="0" y="13.2" class="st1 st7 st8">able to choose who their </tspan><tspan x="0" y="26.4" class="st1 st7 st8">companions are.</tspan></text>
<rect x="719.5" y="637.4" class="st6" width="175.1" height="94.3"/>
<text transform="matrix(1 0 0 1 719.4797 645.2855)"><tspan x="0" y="0" class="st1 st7 st8">Once you have selected your </tspan><tspan x="0" y="13.2" class="st1 st7 st8">companions, the path will route and </tspan><tspan x="0" y="26.4" class="st1 st7 st8">the users can just continue walking </tspan><tspan x="0" y="39.6" class="st1 st7 st8">with the assurance of someone is </tspan><tspan x="0" y="52.8" class="st1 st7 st8">watching over them.</tspan></text>
<rect x="1028.9" y="637.4" class="st6" width="175.1" height="94.3"/>
<text transform="matrix(1 0 0 1 1028.8521 645.2855)" class="st1 st7 st8">The user arrives home safely.</text>
<rect x="398.9" y="212" class="st6" width="175.1" height="94.3"/>
<text transform="matrix(1 0 0 1 398.8836 219.9444)"><tspan x="0" y="0" class="st1 st7 st8">The user would type in or pin drop </tspan><tspan x="0" y="13.2" class="st1 st7 st8">where they are headed, so a path is </tspan><tspan x="0" y="26.4" class="st1 st7 st8">established for the users to follow.</tspan></text>
<rect x="725.9" y="212" class="st6" width="175.1" height="94.3"/>
<text transform="matrix(1 0 0 1 725.8673 219.9444)"><tspan x="0" y="0" class="st1 st7 st8">After picking where to, the user </tspan><tspan x="0" y="13.2" class="st1 st7 st8">would decided if they are walking, </tspan><tspan x="0" y="26.4" class="st1 st7 st8">biking, or driving to their desired </tspan><tspan x="0" y="39.6" class="st1 st7 st8">location. Depending on what you </tspan><tspan x="0" y="52.8" class="st1 st7 st8">choose, different ways to choose a </tspan><tspan x="0" y="66" class="st1 st7 st8">companion will pop up.</tspan></text>
<rect x="1028.9" y="212" class="st6" width="175.1" height="94.3"/>
<text transform="matrix(1 0 0 1 1028.8521 219.9444)"><tspan x="0" y="0" class="st1 st7 st8">If the user chose walking, they </tspan><tspan x="0" y="13.2" class="st1 st7 st8">would get an option to choose their </tspan><tspan x="0" y="26.4" class="st1 st7 st8">contacts or near by for companions.</tspan></text>
</svg>
