<?xml version="1.0" encoding="utf-8"?>
<!-- Generator: Adobe Illustrator 22.1.0, SVG Export Plug-In . SVG Version: 6.00 Build 0)  -->
<svg version="1.1" id="Layer_1" xmlns="http://www.w3.org/2000/svg" xmlns:xlink="http://www.w3.org/1999/xlink" x="0px" y="0px"
	 viewBox="0 0 1190.7 781.2" style="enable-background:new 0 0 1190.7 781.2;" xml:space="preserve">
<style type="text/css">
	.st0{fill:#BFA5CF;stroke:#FFFFFF;stroke-width:0.1109;stroke-miterlimit:10;}
	.st1{fill:#8A68AD;stroke:#FFFFFF;stroke-width:0.1324;stroke-miterlimit:10;}
	.st2{fill:#BFA5CF;stroke:#FFFFFF;stroke-width:0.1324;stroke-miterlimit:10;}
	.st3{fill:#FFF6F4;}
	.st4{font-family:'HelveticaNeue';}
	.st5{font-size:5.3471px;}
	.st6{fill:none;stroke:#FFFFFF;stroke-width:0.5328;stroke-miterlimit:10;}
	.st7{font-family:'HelveticaNeue-Bold';}
	.st8{font-size:10.6943px;}
	.st9{fill:#BFA5CF;stroke:#FFFFFF;stroke-width:0.1244;stroke-miterlimit:10;}
	.st10{font-size:8.9119px;}
	.st11{fill:#BFA5CF;stroke:#FFFFFF;stroke-width:9.750597e-02;stroke-miterlimit:10;}
	.st12{fill:#CCCCCC;stroke:#FFFFFF;stroke-width:9.750597e-02;stroke-miterlimit:10;}
	.st13{fill:#BFA5CF;stroke:#FFFFFF;stroke-width:7.917724e-02;stroke-miterlimit:10;}
	.st14{fill:#BFA5CF;stroke:#FFFFFF;stroke-width:0.3586;stroke-miterlimit:10;}
	.st15{fill:#BFA5CF;stroke:#FFFFFF;stroke-width:0.2258;stroke-miterlimit:10;}
	.st16{fill:none;stroke:#FFFFFF;stroke-width:0.1485;stroke-miterlimit:10;}
	.st17{fill:none;stroke:#BFA5CF;stroke-width:0.8912;stroke-miterlimit:10;}
	.st18{fill:#737474;}
	.st19{font-size:9.04px;}
	.st20{fill:#FFFFFF;}
	.st21{opacity:0.19;fill:#737474;}
	.st22{fill:#BFA5CF;stroke:#FFFFFF;stroke-width:0.1419;stroke-miterlimit:10;}
	.st23{opacity:0.38;fill:#4E4E4E;}
	.st24{fill:#8A68AD;stroke:#FFFFFF;stroke-width:0.1319;stroke-miterlimit:10;}
	.st25{fill:#8A68AD;stroke:#FFFFFF;stroke-width:0.1318;stroke-miterlimit:10;}
	.st26{fill:#BFA5CF;stroke:#FFFFFF;stroke-width:0.1318;stroke-miterlimit:10;}
	.st27{font-size:10.6462px;}
	.st28{fill:#BFA5CF;stroke:#FFFFFF;stroke-width:7.882136e-02;stroke-miterlimit:10;}
	.st29{font-size:8.8718px;}
	.st30{font-size:5.3231px;}
	.st31{fill:#8A68AD;stroke:#FFFFFF;stroke-width:0.1342;stroke-miterlimit:10;}
	.st32{fill:#BFA5CF;stroke:#FFFFFF;stroke-width:0.1342;stroke-miterlimit:10;}
	.st33{fill:#BFA5CF;stroke:#FFFFFF;stroke-width:0.1125;stroke-miterlimit:10;}
	.st34{font-size:5.4228px;}
	.st35{fill:none;stroke:#FFFFFF;stroke-width:0.5403;stroke-miterlimit:10;}
	.st36{font-size:12.675px;}
	.st37{fill:#BFA5CF;stroke:#FFFFFF;stroke-width:0.1262;stroke-miterlimit:10;}
	.st38{font-size:9.038px;}
	.st39{fill:#BFA5CF;stroke:#FFFFFF;stroke-width:0.2095;stroke-miterlimit:10;}
	.st40{font-size:6.5309px;}
	.st41{fill:none;stroke:#FFFFFF;stroke-width:0.1506;stroke-miterlimit:10;}
	.st42{fill:#BFA5CF;stroke:#FFFFFF;stroke-width:0.1439;stroke-miterlimit:10;}
	.st43{font-size:10.8456px;}
	.st44{fill:#BFA5CF;stroke:#FFFFFF;stroke-width:0.9038;stroke-miterlimit:10;}
	.st45{fill:#BFA5CF;stroke:#FFFFFF;stroke-width:0.1053;stroke-miterlimit:10;}
</style>
<rect x="567.9" y="300.7" class="st0" width="8.1" height="8.1"/>
<line class="st0" x1="569.2" y1="303.2" x2="574.6" y2="303.2"/>
<line class="st0" x1="569.2" y1="304.8" x2="574.6" y2="304.8"/>
<line class="st0" x1="569.2" y1="306.5" x2="574.6" y2="306.5"/>
<rect x="230.6" y="296" class="st1" width="111.3" height="198.1"/>
<rect x="230.6" y="296" class="st2" width="111.4" height="16"/>
<rect x="234.9" y="300.7" class="st0" width="8.1" height="8.1"/>
<line class="st0" x1="236.2" y1="303.2" x2="241.6" y2="303.2"/>
<line class="st0" x1="236.2" y1="304.8" x2="241.6" y2="304.8"/>
<line class="st0" x1="236.2" y1="306.5" x2="241.6" y2="306.5"/>
<rect x="301.9" y="477.6" class="st2" width="34" height="9.7"/>
<text transform="matrix(1 0 0 1 305.2264 484.1218)" class="st3 st4 st5">Emergency</text>
<circle class="st6" cx="241.9" cy="484.6" r="2.6"/>
<circle class="st3" cx="241.9" cy="484.6" r="1.1"/>
<line class="st6" x1="241.9" y1="488.4" x2="241.9" y2="480.2"/>
<line class="st6" x1="237.8" y1="484.3" x2="246" y2="484.3"/>
<text transform="matrix(1 0 0 1 245.9628 344.6926)"><tspan x="0" y="0" class="st3 st7 st8">Look for a </tspan><tspan x="0" y="12.8" class="st3 st7 st8">companion:</tspan></text>
<rect x="245.9" y="393.6" class="st9" width="76.6" height="18.9"/>
<rect x="245.9" y="419.8" class="st9" width="76.6" height="18.9"/>
<text transform="matrix(1 0 0 1 264.9442 405.1579)" class="st3 st7 st10">Contacts</text>
<text transform="matrix(1 0 0 1 271.1786 432.2839)" class="st3 st7 st10">Nearby</text>
<rect x="230.6" y="37.3" class="st1" width="111.3" height="198.1"/>
<rect x="230.6" y="37.3" class="st2" width="111.4" height="16"/>
<rect x="234.9" y="42.1" class="st0" width="8.1" height="8.1"/>
<line class="st0" x1="236.2" y1="44.5" x2="241.6" y2="44.5"/>
<line class="st0" x1="236.2" y1="46.2" x2="241.6" y2="46.2"/>
<line class="st0" x1="236.2" y1="47.9" x2="241.6" y2="47.9"/>
<rect x="301.9" y="219" class="st2" width="34" height="9.7"/>
<text transform="matrix(1 0 0 1 305.2264 225.4716)" class="st3 st4 st5">Emergency</text>
<circle class="st6" cx="241.9" cy="225.9" r="2.6"/>
<circle class="st3" cx="241.9" cy="225.9" r="1.1"/>
<line class="st6" x1="241.9" y1="229.8" x2="241.9" y2="221.6"/>
<line class="st6" x1="237.8" y1="225.7" x2="246" y2="225.7"/>
<text transform="matrix(1 0 0 1 245.9628 86.0419)" class="st3 st7 st8">Are you:</text>
<rect x="245.9" y="134.9" class="st9" width="76.6" height="18.9"/>
<rect x="245.9" y="161.1" class="st9" width="76.6" height="18.9"/>
<text transform="matrix(1 0 0 1 270.8969 146.6552)" class="st3 st7 st10">Biking</text>
<rect x="245.9" y="106.9" class="st9" width="76.6" height="18.9"/>
<text transform="matrix(1 0 0 1 267.2699 118.5829)" class="st3 st7 st10">Walking</text>
<text transform="matrix(1 0 0 1 271.348 173.6337)" class="st3 st7 st10">Driving</text>
<rect x="404.4" y="296" class="st1" width="111.3" height="198.1"/>
<rect x="404.4" y="296" class="st2" width="111.4" height="16"/>
<rect x="408.7" y="300.7" class="st0" width="8.1" height="8.1"/>
<line class="st0" x1="410" y1="303.2" x2="415.4" y2="303.2"/>
<line class="st0" x1="410" y1="304.8" x2="415.4" y2="304.8"/>
<line class="st0" x1="410" y1="306.5" x2="415.4" y2="306.5"/>
<rect x="475.7" y="477.6" class="st2" width="34" height="9.7"/>
<text transform="matrix(1 0 0 1 479.0087 484.1218)" class="st3 st4 st5">Emergency</text>
<circle class="st6" cx="415.7" cy="484.6" r="2.6"/>
<circle class="st3" cx="415.7" cy="484.6" r="1.1"/>
<line class="st6" x1="415.7" y1="488.4" x2="415.7" y2="480.2"/>
<line class="st6" x1="411.6" y1="484.3" x2="419.8" y2="484.3"/>
<text transform="matrix(1 0 0 1 419.746 344.6926)"><tspan x="0" y="0" class="st3 st7 st8">Select who </tspan><tspan x="0" y="12.8" class="st3 st7 st8">you want:</tspan></text>
<circle class="st11" cx="424.8" cy="398.8" r="6.5"/>
<circle class="st11" cx="485.4" cy="387.1" r="6.5"/>
<circle class="st11" cx="498.3" cy="444.3" r="6.5"/>
<circle class="st3" cx="456.9" cy="425.3" r="4.1"/>
<rect x="42.6" y="296" class="st1" width="111.3" height="198.1"/>
<rect x="42.6" y="296" class="st2" width="111.4" height="16"/>
<rect x="46.9" y="300.7" class="st0" width="8.1" height="8.1"/>
<line class="st0" x1="48.1" y1="303.2" x2="53.6" y2="303.2"/>
<line class="st0" x1="48.1" y1="304.8" x2="53.6" y2="304.8"/>
<line class="st0" x1="48.1" y1="306.5" x2="53.6" y2="306.5"/>
<rect x="58.8" y="338.2" class="st2" width="78.9" height="10.2"/>
<rect x="127.4" y="338.2" class="st2" width="10.2" height="10.2"/>
<rect x="113.9" y="477.6" class="st2" width="34" height="9.7"/>
<text transform="matrix(1 0 0 1 117.1864 484.1218)" class="st3 st4 st5">Emergency</text>
<text transform="matrix(1 0 0 1 62.5272 345.3928)" class="st3 st4 st5">Where to?</text>
<circle class="st6" cx="53.8" cy="484.6" r="2.6"/>
<circle class="st3" cx="53.8" cy="484.6" r="1.1"/>
<line class="st6" x1="53.9" y1="488.4" x2="53.9" y2="480.2"/>
<line class="st6" x1="49.8" y1="484.3" x2="57.9" y2="484.3"/>
<circle class="st3" cx="94.1" cy="425.3" r="4.1"/>
<rect x="725.2" y="296" class="st1" width="111.3" height="198.1"/>
<rect x="725.2" y="296" class="st2" width="111.4" height="16"/>
<rect x="729.5" y="300.7" class="st0" width="8.1" height="8.1"/>
<line class="st0" x1="730.8" y1="303.2" x2="736.2" y2="303.2"/>
<line class="st0" x1="730.8" y1="304.8" x2="736.2" y2="304.8"/>
<line class="st0" x1="730.8" y1="306.5" x2="736.2" y2="306.5"/>
<rect x="796.5" y="477.6" class="st2" width="34" height="9.7"/>
<text transform="matrix(1 0 0 1 799.8373 484.1218)" class="st3 st4 st5">Emergency</text>
<circle class="st6" cx="736.5" cy="484.6" r="2.6"/>
<circle class="st3" cx="736.5" cy="484.6" r="1.1"/>
<line class="st6" x1="736.5" y1="488.4" x2="736.5" y2="480.2"/>
<line class="st6" x1="732.4" y1="484.3" x2="740.6" y2="484.3"/>
<text transform="matrix(1 0 0 1 740.5736 344.6926)"><tspan x="0" y="0" class="st3 st7 st8">Select who </tspan><tspan x="0" y="12.8" class="st3 st7 st8">you want:</tspan></text>
<circle class="st12" cx="747.1" cy="425.9" r="6.5"/>
<circle class="st12" cx="793.3" cy="380.7" r="6.5"/>
<circle class="st11" cx="819.2" cy="421.1" r="6.5"/>
<circle class="st3" cx="777.8" cy="425.3" r="4.1"/>
<rect x="758.5" y="450.5" class="st13" width="38.6" height="15.2"/>
<text transform="matrix(1 0 0 1 770.2738 461.4343)" class="st3 st7 st10">Go</text>
<rect x="563.6" y="296" class="st1" width="111.3" height="198.1"/>
<rect x="563.6" y="296" class="st2" width="111.4" height="16"/>
<rect x="634.9" y="477.6" class="st2" width="34" height="9.7"/>
<text transform="matrix(1 0 0 1 638.2357 484.1218)" class="st3 st4 st5">Emergency</text>
<circle class="st6" cx="574.9" cy="484.6" r="2.6"/>
<circle class="st3" cx="574.9" cy="484.6" r="1.1"/>
<line class="st6" x1="574.9" y1="488.4" x2="574.9" y2="480.2"/>
<line class="st6" x1="570.8" y1="484.3" x2="579" y2="484.3"/>
<text transform="matrix(1 0 0 1 571.5428 330.2853)"><tspan x="0" y="0" class="st3 st7 st8">Do you want them </tspan><tspan x="-3.9" y="12.8" class="st3 st7 st8">as your companion?</tspan></text>
<circle class="st14" cx="619.2" cy="375.1" r="23.8"/>
<polygon class="st15" points="581.9,404.5 583.6,408 587.6,408.6 584.7,411.4 585.4,415.3 581.9,413.5 578.3,415.3 579,411.4 
	576.2,408.6 580.1,408 "/>
<polygon class="st15" points="600.6,404.5 602.3,408 606.3,408.6 603.4,411.4 604.1,415.3 600.6,413.5 597.1,415.3 597.7,411.4 
	594.9,408.6 598.8,408 "/>
<polygon class="st15" points="619.3,404.5 621,408 625,408.6 622.1,411.4 622.8,415.3 619.3,413.5 615.8,415.3 616.4,411.4 
	613.6,408.6 617.5,408 "/>
<polygon class="st15" points="638,404.5 639.8,408 643.7,408.6 640.8,411.4 641.5,415.3 638,413.5 634.5,415.3 635.1,411.4 
	632.3,408.6 636.2,408 "/>
<polygon class="st15" points="656.7,404.5 658.5,408 662.4,408.6 659.5,411.4 660.2,415.3 656.7,413.5 653.2,415.3 653.8,411.4 
	651,408.6 654.9,408 "/>
<g>
	<text transform="matrix(1 0 0 1 584.8763 427.0632)"><tspan x="0" y="0" class="st3 st4 st5">Name:</tspan><tspan x="4.8" y="6.4" class="st3 st4 st5">Age:</tspan><tspan x="-6.7" y="12.8" class="st3 st4 st5">Watches:</tspan><tspan x="6.2" y="19.2" class="st3 st4 st5">Bio:</tspan></text>
</g>
<line class="st16" x1="602.6" y1="427.1" x2="651.3" y2="427.1"/>
<line class="st16" x1="602.6" y1="434" x2="613.9" y2="434"/>
<line class="st16" x1="602.6" y1="439.9" x2="613.9" y2="439.9"/>
<line class="st16" x1="602.6" y1="446.4" x2="651.3" y2="446.4"/>
<line class="st16" x1="602.6" y1="453" x2="651.3" y2="453"/>
<rect x="625.2" y="458" class="st13" width="38.6" height="15.2"/>
<text transform="matrix(1 0 0 1 636.2621 469.0104)" class="st3 st7 st10">Yes</text>
<rect x="581.9" y="458" class="st13" width="38.6" height="15.2"/>
<text transform="matrix(1 0 0 1 594.4926 469.0104)" class="st3 st7 st10">No</text>
<rect x="888.6" y="296" class="st1" width="111.3" height="198.1"/>
<rect x="888.6" y="296" class="st2" width="111.4" height="16"/>
<rect x="892.9" y="300.7" class="st0" width="8.1" height="8.1"/>
<line class="st0" x1="894.2" y1="303.2" x2="899.6" y2="303.2"/>
<line class="st0" x1="894.2" y1="304.8" x2="899.6" y2="304.8"/>
<line class="st0" x1="894.2" y1="306.5" x2="899.6" y2="306.5"/>
<rect x="959.9" y="477.6" class="st2" width="34" height="9.7"/>
<text transform="matrix(1 0 0 1 963.2201 484.1218)" class="st3 st4 st5">Emergency</text>
<circle class="st6" cx="899.9" cy="484.6" r="2.6"/>
<circle class="st3" cx="899.9" cy="484.6" r="1.1"/>
<line class="st6" x1="899.9" y1="488.4" x2="899.9" y2="480.2"/>
<line class="st6" x1="895.8" y1="484.3" x2="904" y2="484.3"/>
<circle class="st3" cx="940.1" cy="425.3" r="4.1"/>
<path class="st17" d="M946.2,312c0,0,13.8,19.8,13.8,43s-12.3,31.2-15.7,40.1c-3.4,8.9-4.2,26.1-4.2,26.1s-4.2,21.8-4.2,42
	c0,20.2-8,30.9-8,30.9"/>
<rect x="894.2" y="318.5" class="st17" width="10.5" height="12.3"/>
<text transform="matrix(1 0 0 1 906.601 328.0158)" class="st18 st4 st19">x2</text>
<rect x="898.3" y="457.3" class="st2" width="40.7" height="13.4"/>
<rect x="951.3" y="457.3" class="st2" width="40.7" height="13.4"/>
<text transform="matrix(1 0 0 1 960.7543 465.3229)" class="st20 st4 st5">Arrived</text>
<text transform="matrix(1 0 0 1 910.2504 465.3229)" class="st20 st4 st5">Cancel</text>
<rect x="42.6" y="547.6" class="st1" width="111.3" height="198.1"/>
<rect x="42.6" y="547.6" class="st2" width="111.4" height="16"/>
<rect x="46.9" y="552.4" class="st0" width="8.1" height="8.1"/>
<line class="st0" x1="48.2" y1="554.8" x2="53.6" y2="554.8"/>
<line class="st0" x1="48.2" y1="556.5" x2="53.6" y2="556.5"/>
<line class="st0" x1="48.2" y1="558.1" x2="53.6" y2="558.1"/>
<rect x="113.9" y="729.3" class="st2" width="34" height="9.7"/>
<text transform="matrix(1 0 0 1 117.224 735.7399)" class="st3 st4 st5">Emergency</text>
<circle class="st6" cx="53.9" cy="736.2" r="2.6"/>
<circle class="st3" cx="53.9" cy="736.2" r="1.1"/>
<line class="st6" x1="53.9" y1="740" x2="53.9" y2="731.9"/>
<line class="st6" x1="49.8" y1="735.9" x2="58" y2="735.9"/>
<circle class="st3" cx="109.9" cy="685.3" r="4.1"/>
<rect x="48.2" y="570.1" class="st17" width="10.5" height="12.3"/>
<text transform="matrix(1 0 0 1 60.6029 579.6345)" class="st18 st4 st19">x2</text>
<path class="st17" d="M103.1,563.6c0,0-14.3,46.4,0,68.7s27.4,34.3,32.1,51.5c4.9,18.3,18.7,22.4,18.7,22.4"/>
<rect x="42.5" y="563.7" class="st21" width="111.3" height="182.1"/>
<rect x="58.6" y="608.4" class="st2" width="81.4" height="48"/>
<rect x="58.6" y="643" class="st2" width="40.7" height="13.4"/>
<rect x="99.3" y="643" class="st2" width="40.7" height="13.4"/>
<text transform="matrix(1 0 0 1 65.5038 623.2927)"><tspan x="0" y="0" class="st18 st4 st5">You’ve moved off your path,</tspan><tspan x="17.1" y="6.4" class="st18 st4 st5">are you okay?</tspan></text>
<text transform="matrix(1 0 0 1 112.7738 650.9938)" class="st18 st4 st5">Yes</text>
<text transform="matrix(1 0 0 1 75.4945 650.9938)" class="st18 st4 st5">No</text>
<circle class="st2" cx="99.3" cy="689.4" r="12.3"/>
<rect x="230.7" y="545.7" class="st1" width="111.3" height="198.1"/>
<rect x="230.7" y="545.7" class="st2" width="111.4" height="16"/>
<rect x="235" y="550.4" class="st0" width="8.1" height="8.1"/>
<line class="st0" x1="236.3" y1="552.9" x2="241.7" y2="552.9"/>
<line class="st0" x1="236.3" y1="554.5" x2="241.7" y2="554.5"/>
<line class="st0" x1="236.3" y1="556.2" x2="241.7" y2="556.2"/>
<rect x="302" y="727.3" class="st2" width="34" height="9.7"/>
<text transform="matrix(1 0 0 1 305.3207 733.8044)" class="st3 st4 st5">Emergency</text>
<circle class="st6" cx="242" cy="734.3" r="2.6"/>
<circle class="st3" cx="242" cy="734.3" r="1.1"/>
<line class="st6" x1="242" y1="738.1" x2="242" y2="729.9"/>
<line class="st6" x1="237.9" y1="734" x2="246.1" y2="734"/>
<circle class="st3" cx="297.9" cy="683.3" r="4.1"/>
<rect x="236.3" y="568.2" class="st17" width="10.5" height="12.3"/>
<text transform="matrix(1 0 0 1 248.6986 577.6979)" class="st18 st4 st19">x2</text>
<path class="st17" d="M291.2,561.7c0,0-14.3,46.4,0,68.7c14.3,22.3,27.4,34.3,32.1,51.5c4.9,18.3,18.7,22.4,18.7,22.4"/>
<rect x="230.6" y="561.8" class="st21" width="111.3" height="182.1"/>
<rect x="246.7" y="606.4" class="st2" width="81.4" height="48"/>
<rect x="246.7" y="641" class="st2" width="40.7" height="13.4"/>
<rect x="287.4" y="641" class="st2" width="40.7" height="13.4"/>
<text transform="matrix(1 0 0 1 263.015 621.3571)" class="st18 st4 st5">Add a new location?</text>
<text transform="matrix(1 0 0 1 300.8705 649.0563)" class="st18 st4 st5">Yes</text>
<text transform="matrix(1 0 0 1 263.5892 649.0563)" class="st18 st4 st5">No</text>
<rect x="562.6" y="37.3" class="st1" width="111.3" height="198.1"/>
<rect x="562.6" y="37.3" class="st2" width="111.4" height="16"/>
<rect x="566.9" y="42.1" class="st0" width="8.1" height="8.1"/>
<line class="st0" x1="568.2" y1="44.5" x2="573.6" y2="44.5"/>
<line class="st0" x1="568.2" y1="46.2" x2="573.6" y2="46.2"/>
<line class="st0" x1="568.2" y1="47.9" x2="573.6" y2="47.9"/>
<rect x="633.9" y="219" class="st2" width="34" height="9.7"/>
<text transform="matrix(1 0 0 1 637.2502 225.4725)" class="st3 st4 st5">Emergency</text>
<circle class="st6" cx="573.9" cy="225.9" r="2.6"/>
<circle class="st3" cx="573.9" cy="225.9" r="1.1"/>
<line class="st6" x1="573.9" y1="229.8" x2="573.9" y2="221.6"/>
<line class="st6" x1="569.8" y1="225.7" x2="578" y2="225.7"/>
<rect x="562.7" y="53.3" class="st21" width="111.3" height="182.1"/>
<rect x="562.6" y="53.4" class="st22" width="58.5" height="182.1"/>
<circle class="st22" cx="592" cy="82.8" r="15.3"/>
<text transform="matrix(1 0 0 1 572.9553 123.4061)"><tspan x="0" y="0" class="st20 st4 st5">Profile</tspan><tspan x="0" y="12.8" class="st20 st4 st5">Be A Companion</tspan><tspan x="0" y="25.7" class="st20 st4 st5">Invite Friends</tspan><tspan x="0" y="38.5" class="st20 st4 st5">FAQ</tspan><tspan x="0" y="51.3" class="st20 st4 st5">Log Off</tspan></text>
<rect x="404.4" y="545.7" class="st1" width="111.3" height="198.1"/>
<rect x="404.2" y="561.7" class="st23" width="111.4" height="182.1"/>
<rect x="404.4" y="545.7" class="st2" width="111.4" height="16"/>
<rect x="408.7" y="550.4" class="st0" width="8.1" height="8.1"/>
<line class="st0" x1="410" y1="552.9" x2="415.4" y2="552.9"/>
<line class="st0" x1="410" y1="554.5" x2="415.4" y2="554.5"/>
<line class="st0" x1="410" y1="556.2" x2="415.4" y2="556.2"/>
<text transform="matrix(1 0 0 1 419.746 606.4059)" class="st3 st7 st8">Contact:</text>
<rect x="421.8" y="618.9" class="st9" width="76.6" height="18.9"/>
<rect x="421.8" y="648.2" class="st9" width="76.6" height="18.9"/>
<text transform="matrix(1 0 0 1 436.9379 631.2214)" class="st3 st7 st10">Authorities</text>
<text transform="matrix(1 0 0 1 437.7269 660.7263)" class="st3 st7 st10">Companion</text>
<text transform="matrix(1 0 0 1 453.6288 680.7536)" class="st20 st4 st5">Cancel</text>
<text transform="matrix(1 0 0 1 431.9423 714.6198)" class="st20 st4 st5">*You are now recording</text>
<rect x="560.6" y="544.2" class="st24" width="111.3" height="196.7"/>
<rect x="560.7" y="558.8" class="st23" width="111.4" height="182.1"/>
<text transform="matrix(1 0 0 1 577.9315 604.9196)" class="st3 st7 st8">Companions:</text>
<rect x="560.5" y="544.2" class="st2" width="111.4" height="16"/>
<rect x="564.8" y="548.9" class="st0" width="8.1" height="8.1"/>
<line class="st0" x1="566.1" y1="551.4" x2="571.5" y2="551.4"/>
<line class="st0" x1="566.1" y1="553" x2="571.5" y2="553"/>
<line class="st0" x1="566.1" y1="554.7" x2="571.5" y2="554.7"/>
<rect x="577.9" y="617.4" class="st9" width="76.6" height="18.9"/>
<rect x="577.9" y="646.7" class="st9" width="76.6" height="18.9"/>
<text transform="matrix(1 0 0 1 608.0648 629.737)" class="st3 st7 st10">Call</text>
<text transform="matrix(1 0 0 1 599.1088 659.2399)" class="st3 st7 st10">Message</text>
<text transform="matrix(1 0 0 1 609.7357 679.2702)" class="st20 st4 st5">Cancel</text>
<text transform="matrix(1 0 0 1 588.0502 713.1354)" class="st20 st4 st5">*You are now recording</text>
<rect x="725.1" y="544.2" class="st24" width="111.3" height="196.7"/>
<rect x="725.1" y="558.8" class="st23" width="111.4" height="182.1"/>
<text transform="matrix(1 0 0 1 742.3549 604.9196)" class="st3 st7 st8">Authorities:</text>
<rect x="724.9" y="544.2" class="st2" width="111.4" height="16"/>
<rect x="729.2" y="548.9" class="st0" width="8.1" height="8.1"/>
<line class="st0" x1="730.5" y1="551.4" x2="735.9" y2="551.4"/>
<line class="st0" x1="730.5" y1="553" x2="735.9" y2="553"/>
<line class="st0" x1="730.5" y1="554.7" x2="735.9" y2="554.7"/>
<rect x="742.3" y="617.4" class="st9" width="76.6" height="18.9"/>
<rect x="742.3" y="646.7" class="st9" width="76.6" height="18.9"/>
<text transform="matrix(1 0 0 1 772.4886 629.737)" class="st3 st7 st10">Call</text>
<text transform="matrix(1 0 0 1 763.5326 659.2399)" class="st3 st7 st10">Message</text>
<text transform="matrix(1 0 0 1 774.1595 679.2702)" class="st20 st4 st5">Cancel</text>
<text transform="matrix(1 0 0 1 752.474 713.1354)" class="st20 st4 st5">*You are now recording</text>
<text transform="matrix(1 0 0 1 752.474 720.5612)" class="st20 st4 st5">*Authorities have been alerted</text>
<rect x="42.6" y="37.3" class="st1" width="111.3" height="198.1"/>
<circle class="st2" cx="98.3" cy="97.5" r="28.1"/>
<rect x="56.8" y="140.7" class="st2" width="83.8" height="14.6"/>
<rect x="56.8" y="159.7" class="st2" width="83.8" height="14.6"/>
<rect x="63.4" y="184.2" class="st2" width="31.6" height="10.4"/>
<rect x="98.1" y="184.2" class="st2" width="31.6" height="10.4"/>
<text transform="matrix(1 0 0 1 105.4174 190.8509)" class="st18 st4 st5">Sign In</text>
<text transform="matrix(1 0 0 1 62.1937 149.8578)" class="st18 st4 st5">username</text>
<text transform="matrix(1 0 0 1 62.1937 168.4222)" class="st18 st4 st5">password</text>
<text transform="matrix(1 0 0 1 70.6615 190.8509)" class="st18 st4 st5">Sign Up</text>
<rect x="404.6" y="37.3" class="st25" width="110.7" height="197.3"/>
<rect x="404.6" y="37.3" class="st26" width="110.9" height="16"/>
<text transform="matrix(1 0 0 1 419.8525 73.8471)" class="st3 st7 st27">Contacts:</text>
<rect x="441.8" y="205.6" class="st28" width="38.5" height="15.1"/>
<text transform="matrix(1 0 0 1 456.0737 216.5312)" class="st3 st7 st29">Go</text>
<rect x="420.5" y="84.6" class="st26" width="76.7" height="11.1"/>
<rect x="420.5" y="95.7" class="st26" width="76.7" height="11.1"/>
<rect x="420.5" y="106.8" class="st26" width="76.7" height="11.1"/>
<rect x="420.5" y="117.8" class="st26" width="76.7" height="11.1"/>
<rect x="420.5" y="128.9" class="st26" width="76.7" height="11.1"/>
<rect x="420.5" y="140" class="st26" width="76.7" height="11.1"/>
<rect x="420.5" y="151.1" class="st26" width="76.7" height="11.1"/>
<rect x="420.5" y="162.2" class="st26" width="76.7" height="11.1"/>
<rect x="420.5" y="173.3" class="st26" width="76.7" height="11.1"/>
<circle class="st26" cx="489.3" cy="90.6" r="2.7"/>
<circle class="st26" cx="489.3" cy="101.7" r="2.7"/>
<circle class="st26" cx="489.3" cy="112.7" r="2.7"/>
<circle class="st26" cx="489.3" cy="123.8" r="2.7"/>
<circle class="st26" cx="489.3" cy="134.9" r="2.7"/>
<circle class="st26" cx="489.3" cy="146" r="2.7"/>
<circle class="st26" cx="489.3" cy="157.1" r="2.7"/>
<circle class="st26" cx="489.3" cy="168.2" r="2.7"/>
<circle class="st26" cx="489.3" cy="179.3" r="2.7"/>
<g>
	<text transform="matrix(1 0 0 1 445.5981 195.4736)" class="st3 st4 st30">Find near by</text>
</g>
<rect x="879.5" y="37.3" class="st31" width="112.8" height="200.9"/>
<rect x="879.5" y="37.3" class="st32" width="113" height="16.3"/>
<rect x="883.9" y="42.2" class="st33" width="8.2" height="8.2"/>
<line class="st33" x1="885.1" y1="44.6" x2="890.7" y2="44.6"/>
<line class="st33" x1="885.1" y1="46.3" x2="890.7" y2="46.3"/>
<line class="st33" x1="885.1" y1="48" x2="890.7" y2="48"/>
<rect x="951.8" y="221.6" class="st32" width="34.5" height="9.8"/>
<text transform="matrix(1 0 0 1 955.1706 228.1326)" class="st3 st4 st34">Emergency</text>
<circle class="st35" cx="890.9" cy="228.6" r="2.7"/>
<circle class="st3" cx="890.9" cy="228.6" r="1.1"/>
<line class="st35" x1="890.9" y1="232.5" x2="890.9" y2="224.2"/>
<line class="st35" x1="886.8" y1="228.3" x2="895.1" y2="228.3"/>
<rect x="890.2" y="178.5" class="st32" width="41.3" height="13.6"/>
<rect x="940.5" y="178.5" class="st32" width="41.3" height="13.6"/>
<text transform="matrix(1 0 0 1 914.6052 98.8074)"><tspan x="0" y="0" class="st20 st4 st36">Did you </tspan><tspan x="2.4" y="15.2" class="st20 st4 st36">want to</tspan><tspan x="-9.5" y="30.4" class="st20 st4 st36">watch over </tspan><tspan x="-6.2" y="45.6" class="st20 st4 st36">someone?</tspan></text>
<text transform="matrix(1 0 0 1 954.1237 186.6238)" class="st18 st4 st34">Yes</text>
<text transform="matrix(1 0 0 1 907.277 186.6238)" class="st18 st4 st34">No</text>
<rect x="879.4" y="542" class="st31" width="112.8" height="200.9"/>
<rect x="879.4" y="542" class="st32" width="113" height="16.3"/>
<rect x="883.8" y="546.9" class="st33" width="8.2" height="8.2"/>
<line class="st33" x1="885.1" y1="549.3" x2="890.6" y2="549.3"/>
<line class="st33" x1="885.1" y1="551" x2="890.6" y2="551"/>
<line class="st33" x1="885.1" y1="552.7" x2="890.6" y2="552.7"/>
<rect x="951.7" y="726.3" class="st32" width="34.5" height="9.8"/>
<text transform="matrix(1 0 0 1 955.0952 732.8347)" class="st3 st4 st34">Emergency</text>
<circle class="st35" cx="890.9" cy="733.3" r="2.7"/>
<circle class="st3" cx="890.9" cy="733.3" r="1.1"/>
<line class="st35" x1="890.9" y1="737.2" x2="890.9" y2="728.9"/>
<line class="st35" x1="886.7" y1="733" x2="895" y2="733"/>
<text transform="matrix(1 0 0 1 904.3286 609.384)"><tspan x="0" y="0" class="st20 st4 st36">Yay! You’ve</tspan><tspan x="-5.2" y="15.2" class="st20 st4 st36">made it home</tspan><tspan x="15.6" y="30.4" class="st20 st4 st36">safely!</tspan></text>
<rect x="896.7" y="666.8" class="st37" width="77.7" height="19.2"/>
<text transform="matrix(1 0 0 1 924.9751 679.5115)" class="st3 st7 st38">Home</text>
<rect x="719.9" y="37.3" class="st31" width="112.8" height="200.9"/>
<rect x="719.9" y="37.3" class="st32" width="113" height="16.3"/>
<rect x="724.3" y="42.2" class="st33" width="8.2" height="8.2"/>
<line class="st33" x1="725.5" y1="44.6" x2="731" y2="44.6"/>
<line class="st33" x1="725.5" y1="46.3" x2="731" y2="46.3"/>
<line class="st33" x1="725.5" y1="48" x2="731" y2="48"/>
<rect x="792.2" y="221.6" class="st32" width="34.5" height="9.8"/>
<text transform="matrix(1 0 0 1 795.5649 228.1326)" class="st3 st4 st34">Emergency</text>
<circle class="st35" cx="731.3" cy="228.6" r="2.7"/>
<circle class="st3" cx="731.3" cy="228.6" r="1.1"/>
<line class="st35" x1="731.3" y1="232.5" x2="731.3" y2="224.2"/>
<line class="st35" x1="727.2" y1="228.3" x2="735.5" y2="228.3"/>
<circle class="st39" cx="774" cy="93.4" r="22.6"/>
<text transform="matrix(1 0 0 1 733.8373 144.5545)"><tspan x="0" y="0" class="st20 st4 st40">Name: </tspan><tspan x="5.8" y="15.7" class="st20 st4 st40">Age: </tspan><tspan x="9.4" y="31.3" class="st20 st4 st40">Bio:</tspan></text>
<line class="st41" x1="757.3" y1="144.6" x2="806.7" y2="144.6"/>
<line class="st41" x1="757.3" y1="177" x2="806.7" y2="177"/>
<line class="st41" x1="757.3" y1="185.1" x2="806.7" y2="185.1"/>
<line class="st41" x1="757.3" y1="193.2" x2="806.7" y2="193.2"/>
<line class="st41" x1="757.3" y1="162.1" x2="768.8" y2="162.1"/>
<rect x="1039.1" y="35.9" class="st31" width="112.8" height="200.9"/>
<rect x="1039.1" y="35.9" class="st32" width="113" height="16.3"/>
<rect x="1111.4" y="220.2" class="st32" width="34.5" height="9.8"/>
<text transform="matrix(1 0 0 1 1114.7771 226.7311)" class="st3 st4 st34">Emergency</text>
<circle class="st3" cx="1091.3" cy="167.1" r="4.2"/>
<rect x="1051.3" y="112.2" class="st32" width="82.5" height="48.7"/>
<rect x="1051.3" y="147.2" class="st32" width="41.3" height="13.6"/>
<rect x="1092.6" y="147.2" class="st32" width="41.3" height="13.6"/>
<text transform="matrix(1 0 0 1 1069.1121 127.3058)"><tspan x="0" y="0" class="st18 st4 st34">Share your location</tspan><tspan x="-8.9" y="6.5" class="st18 st4 st34">with people in your group?</tspan></text>
<text transform="matrix(1 0 0 1 1106.197 155.3971)" class="st18 st4 st34">Yes</text>
<text transform="matrix(1 0 0 1 1068.3875 155.3971)" class="st18 st4 st34">No</text>
<rect x="1039" y="294.6" class="st31" width="112.8" height="200.9"/>
<rect x="1039" y="294.6" class="st32" width="113" height="16.3"/>
<rect x="1043.4" y="299.4" class="st33" width="8.2" height="8.2"/>
<circle class="st42" cx="1068.9" cy="373.4" r="15.5"/>
<circle class="st42" cx="1068.9" cy="413.3" r="15.5"/>
<circle class="st42" cx="1068.9" cy="454.1" r="15.5"/>
<text transform="matrix(1 0 0 1 1047.5193 342.3242)" class="st3 st7 st43">Friends List:</text>
<line class="st42" x1="1145.8" y1="348.7" x2="1145.8" y2="475.8"/>
<line class="st44" x1="1145.8" y1="348.7" x2="1145.8" y2="383.5"/>
<text transform="matrix(1 0 0 1 1091.071 365.7563)"><tspan x="0" y="0" class="st20 st4 st34">Name:</tspan><tspan x="0" y="6.5" class="st20 st4 st34">Age:</tspan><tspan x="0" y="13" class="st20 st4 st34">Bio:</tspan><tspan x="0" y="19.5" class="st20 st4 st34">Friends Since:</tspan></text>
<text transform="matrix(1 0 0 1 1091.071 405.2222)"><tspan x="0" y="0" class="st20 st4 st34">Name:</tspan><tspan x="0" y="6.5" class="st20 st4 st34">Age:</tspan><tspan x="0" y="13" class="st20 st4 st34">Bio:</tspan><tspan x="0" y="19.5" class="st20 st4 st34">Friends Since:</tspan></text>
<text transform="matrix(1 0 0 1 1091.071 447.0981)"><tspan x="0" y="0" class="st20 st4 st34">Name:</tspan><tspan x="0" y="6.5" class="st20 st4 st34">Age:</tspan><tspan x="0" y="13" class="st20 st4 st34">Bio:</tspan><tspan x="0" y="19.5" class="st20 st4 st34">Friends Since:</tspan></text>
<rect x="1114.6" y="482.9" class="st32" width="34.5" height="9.8"/>
<text transform="matrix(1 0 0 1 1118.0154 489.4487)" class="st3 st4 st34">Emergency</text>
<rect x="1046" y="482.9" class="st45" width="21.2" height="9.8"/>
<text transform="matrix(1 0 0 1 1049.3259 489.4487)" class="st3 st4 st34">Home</text>
</svg>
