<?xml version="1.0" encoding="utf-8"?>
<!-- Generator: Adobe Illustrator 22.1.0, SVG Export Plug-In . SVG Version: 6.00 Build 0)  -->
<svg version="1.1" id="Layer_1" xmlns="http://www.w3.org/2000/svg" xmlns:xlink="http://www.w3.org/1999/xlink" x="0px" y="0px"
	 viewBox="0 0 950 224.5" style="enable-background:new 0 0 950 224.5;" xml:space="preserve">
<style type="text/css">
	.st0{fill:#192F5B;}
	.st1{fill:#E18127;}
	.st2{fill:#FFFFFF;stroke:#D1D3D4;stroke-width:0.25;stroke-miterlimit:10;}
	.st3{opacity:0.85;}
	.st4{fill:#1B2F5B;}
	.st5{font-family:'Roboto-Regular';}
	.st6{font-size:10px;}
	.st7{font-family:'Roboto-Medium';}
	.st8{font-size:36px;}
	.st9{font-size:12px;}
	.st10{letter-spacing:1;}
</style>
<rect x="57.4" y="41.9" class="st0" width="38.4" height="38.4"/>
<rect x="57.4" y="100.7" class="st1" width="38.4" height="38.4"/>
<rect x="57.4" y="159.5" class="st2" width="38.4" height="38.4"/>
<g class="st3">
	<path class="st4" d="M688.3,94.5c-13.9,0-25.2-11.3-25.2-25.2s11.3-25.2,25.2-25.2c13.9,0,25.2,11.3,25.2,25.2
		S702.2,94.5,688.3,94.5z M688.3,47.4c-12.1,0-21.9,9.8-21.9,21.9s9.8,21.9,21.9,21.9c12.1,0,21.9-9.8,21.9-21.9
		S700.4,47.4,688.3,47.4z"/>
	<path class="st1" d="M678.6,53.7c3.1,5.3,6.2,10.5,9.4,15.8c0.3,0.6,1.2,0.1,0.9-0.5c-3.1-5.3-6.2-10.5-9.4-15.8
		C679.1,52.6,678.2,53.1,678.6,53.7L678.6,53.7z"/>
	<path class="st4" d="M687.1,70c3,2.5,6.1,5,9,7.5c1.5,1.2,3.7-0.9,2.2-2.2c-3-2.5-6.1-5-9-7.5C687.8,66.6,685.5,68.8,687.1,70
		L687.1,70z"/>
	<path class="st4" d="M686.8,50.9c0,6,0,12.1,0,18c0,2,3.1,2,3.1,0c0-6,0-12.1,0-18C689.9,48.8,686.8,48.8,686.8,50.9L686.8,50.9z"
		/>
</g>
<g class="st3">
	<path class="st0" d="M786.1,69.1c2.4-1.7,4.1-4.4,4.1-7.6c0-5.1-4.1-9.2-9.2-9.2c-5.1,0-9.3,4-9.3,9.1c0,3,1.4,5.8,3.8,7.4
		c-5.5,2.9-9.3,10.2-9.3,17.1c0,8.7,29.6,8.7,29.6,0C795.7,79.2,791.6,72.1,786.1,69.1z"/>
	<path class="st0" d="M808.8,58.1c1.8-1.2,2.9-3.2,2.9-5.4c0-3.7-2.9-6.5-6.5-6.5s-6.5,2.9-6.5,6.5c0,2.1,1,4.1,2.7,5.2
		c-3.9,2-6.5,7.2-6.5,12.1c0,6.2,20.9,6.2,20.9,0C815.7,65.2,812.8,60.2,808.8,58.1z"/>
	<path class="st0" d="M760.3,58.1c1.8-1.2,2.9-3.2,2.9-5.4c0-3.7-2.9-6.5-6.5-6.5s-6.4,2.9-6.4,6.5c0,2.1,1,4.1,2.7,5.2
		c-4,2-6.6,7.2-6.6,12.1c0,6.2,20.9,6.2,20.9,0C767.2,65.2,764.3,60.2,760.3,58.1z"/>
</g>
<g class="st3">
	<circle class="st0" cx="869.9" cy="86.2" r="3.1"/>
	<path class="st0" d="M864.7,81.6c2.2-4.8,8.1-4.8,10.5-0.1c1.5,3.1,6,0.4,4.5-2.7c-4.1-8.1-15.6-8.1-19.5,0.1
		C858.7,82,863.1,84.7,864.7,81.6L864.7,81.6z"/>
	<path class="st0" d="M857.3,73.7c5.3-10,19.6-10.1,25.1-0.1c1.7,2.9,6.2,0.3,4.5-2.7c-7.1-13.3-26.9-13.3-34.1,0.1
		C851.2,74,855.7,76.7,857.3,73.7L857.3,73.7z"/>
	<path class="st0" d="M849.3,66.9c8.4-16.5,32.5-16.5,41.4-0.3c1.5,2.9,6.2,0.3,4.5-2.7c-10.5-19.6-40.2-19.6-50.5,0.3
		C843.1,67.2,847.7,69.8,849.3,66.9L849.3,66.9z"/>
</g>
<text transform="matrix(1 0 0 1 106.3186 52.4104)"><tspan x="0" y="0" class="st5 st6">InstaConnect Blue</tspan><tspan x="0" y="12" class="st5 st6">C=100 M=88 Y=35 K=30</tspan><tspan x="0" y="24" class="st5 st6">R=25 G=47 B=91</tspan></text>
<text transform="matrix(1 0 0 1 106.3188 112.4996)"><tspan x="0" y="0" class="st5 st6">InstaConnect Orange</tspan><tspan x="0" y="12" class="st5 st6">C=9 M=58 Y=99 K=0</tspan><tspan x="0" y="24" class="st5 st6">R=225 G=129 B=39</tspan></text>
<text transform="matrix(1 0 0 1 106.3188 169.3674)"><tspan x="0" y="0" class="st5 st6">White</tspan><tspan x="0" y="12" class="st5 st6">C=0 M=0 Y=0 K=0</tspan><tspan x="0" y="24" class="st5 st6">R=255 G=255 B=255</tspan></text>
<text transform="matrix(1 0 0 1 57.4122 26.6453)" class="st5 st6">Colors:</text>
<text transform="matrix(1 0 0 1 346.7304 69.8487)"><tspan x="0" y="0" class="st7 st8">Roboto</tspan><tspan x="0" y="21" class="st5 st9 st10">ABCDEFGHIJKLMNOPQRSTUVWXYZ</tspan><tspan x="0" y="39" class="st5 st9 st10">abcdefghijklmnopqrstuvwxyz</tspan><tspan x="0" y="57" class="st5 st9 st10">01234567890</tspan></text>
<text transform="matrix(1 0 0 1 346.7304 26.6453)" class="st5 st6">Font:</text>
<text transform="matrix(1 0 0 1 663.1393 26.6453)" class="st5 st6">Icons:</text>
</svg>
